STARTFONT 2.3
FONT -FontForge-Butcherman-Book-R-Normal--36-360-72-72-P-195-ISO10646-1
SIZE 36 72 72  4
FONTBOUNDINGBOX 55 71 -4 -25
COMMENT "Generated by fontforge, http://fontforge.sourceforge.net"
COMMENT "Copyright (c) 2011, Typomondo, with Reserved Font Name  "Butcherman"."
STARTPROPERTIES 41
FOUNDRY "FontForge"
FAMILY_NAME "Butcherman"
WEIGHT_NAME "Book"
SLANT "R"
SETWIDTH_NAME "Normal"
ADD_STYLE_NAME ""
PIXEL_SIZE 36
POINT_SIZE 360
RESOLUTION_X 72
RESOLUTION_Y 72
SPACING "P"
AVERAGE_WIDTH 195
CHARSET_REGISTRY "ISO10646"
CHARSET_ENCODING "1"
FONTNAME_REGISTRY ""
CHARSET_COLLECTIONS "ISO8859-2 ISO8859-9 ISO8859-4 ISO10646-1"
BITS_PER_PIXEL 4
FONT_NAME "Butcherman-Regular"
FACE_NAME "Butcherman Regular"
COPYRIGHT "Copyright (c) 2011, Typomondo, with Reserved Font Name  "Butcherman"."
FONT_VERSION "001.004"
FONT_ASCENT 29
FONT_DESCENT 7
UNDERLINE_POSITION -4
UNDERLINE_THICKNESS 2
X_HEIGHT 26
CAP_HEIGHT 26
DEFAULT_CHAR 3
RAW_ASCENT 799
RAW_DESCENT 200
NORM_SPACE 6
RELATIVE_WEIGHT 40
RELATIVE_SETWIDTH 50
SUPERSCRIPT_X 0
SUPERSCRIPT_Y 12
SUPERSCRIPT_SIZE 21
SUBSCRIPT_X 0
SUBSCRIPT_Y 2
SUBSCRIPT_SIZE 21
AVG_LOWERCASE_WIDTH 210
AVG_UPPERCASE_WIDTH 200
ENDPROPERTIES
CHARS 331
STARTCHAR NULL.dup1
ENCODING 0
SWIDTH 161 0
DWIDTH 6 0
BBX 1 1 0 0
BITMAP
00
ENDCHAR
STARTCHAR CR
ENCODING 13
SWIDTH 161 0
DWIDTH 6 0
BBX 1 1 0 0
BITMAP
00
ENDCHAR
STARTCHAR space
ENCODING 32
SWIDTH 161 0
DWIDTH 6 0
BBX 1 1 0 0
BITMAP
00
ENDCHAR
STARTCHAR exclam
ENCODING 33
SWIDTH 350 0
DWIDTH 13 0
BBX 12 44 0 1
BITMAP
000053000000
037DFEFFD940
1FFFFFFFFFF4
0DFFFFFFFFF5
0AFFFFFFFFE1
07FFFFFFFF60
00CFFFFFFF30
005FFFFFFF50
00BFFFFFFF20
00CFFFFFFF00
00EFFFFFFD00
01FFFFFFFC00
00CFFFFFFA00
007FFFFFF700
002FFFFFF400
000EFFFFF000
000AFFFFF400
0007FFFFF700
0005FFFFF300
0003FFFFE000
0002FFFFB100
0002FFFFC000
0002FFFFE000
0002FFFFD000
0002FFFFC000
0002FFFFB000
0001FFFF8000
0000EFEF4000
000010286000
000000000000
000000000000
000000000000
003558ABCA70
0BFFFFFFFFF0
05FFFFFFFFD0
01EFFFFFFFC0
009FFFFFFFC0
008FFFFFFFF3
007FFFFFFFF2
006FFFFFFFF1
007FFFFFFFF0
007FFFFFFFE0
008FFFEBAEA0
004643000000
ENDCHAR
STARTCHAR quotedbl
ENCODING 34
SWIDTH 541 0
DWIDTH 20 0
BBX 17 14 1 13
BITMAP
055578520165798410
4FFFFFFA05FFFFFF70
3FFFFFF902FFFFFF80
0EFFFFF900DFFFFF60
0BFFFFF8009FFFFF40
08FFFFF7005FFFFF20
05FFFFF3002FFFFD00
02FFFFF1000DFFFD00
00FFFFE0000AFFFB00
00CFFFC00007FFF800
009FFFA00005FFF500
006FFF900003FFF200
002FFF700002FFE000
000942100002821000
ENDCHAR
STARTCHAR numbersign
ENCODING 35
SWIDTH 583 0
DWIDTH 21 0
BBX 21 33 0 -4
BITMAP
0000000000000000020000
000000001DE300006EE700
000000006FE000008FF500
00000000BFB00000CFF100
00000001FF800003FFC000
00000006FF600009FF8000
0000000BFF30000CFF4000
0000000BFF00000CFF2000
0008AAAEFE57789EFF7630
000DFFFFFFFFFFFFFFFF30
000EFFFFFFFFFFFFFFF900
000EFFFFFFFFFFFFFFF500
000FFFFFFFFFFFFFFFF400
000FFFFFFFFFFFFFFFF300
00047BFFDDB6EFFF9DD200
00000EFE00005FFD000000
00003FF900008FFA000000
00007FF40000AFF7000000
0000BFF00000DFE1000000
0001FFE00000FFE0000000
0004FFA00003FF90000000
8DCDFFD99AACFFCCC60000
9FFFFFFFFFFFFFFFB00000
AFFFFFFFFFFFFFFF500000
AFFFFFFFFFFFFFFF400000
496FFCCC8BBFF9DD300000
005FE000004FE000000000
00CFA00000AFA000000000
03FF500001EF6000000000
08FF200005FF2000000000
0BFE000007FF0000000000
086B000009FB0000000000
0003000002650000000000
ENDCHAR
STARTCHAR dollar
ENCODING 36
SWIDTH 534 0
DWIDTH 19 0
BBX 17 46 1 -10
BITMAP
000000000100000000
00000002CD00000000
00000007FE00000000
00000009FF00000000
00000009FF00000000
0000000AFE00000000
0000000CFC00000000
0000000BFD10000000
00000008FF10000000
00000007FF74000000
000017DFFFFFC30000
0006EFFFFFFFFF9000
007FFFFFFFFFFFFA00
01FFFFFFFFFFFFFF90
06FFFFFFFFFFFFFFC0
1EFFFFFFFFFFFFFFC0
6FFFFFFFFFFFFFFFC0
8FFFFFFFFFFFFFFFB0
9FFFFFFFFFFFFFFFA0
AFFFFFFFFFFFFFFF80
AFFFFFFFCFFFFFFF60
8FFFFFFA05FFFFFF50
6FFFFFF701FFFFFF50
3FFFFFFD1045436990
0FFFFFFFEEC6000000
0BFFFFFFFFFFC10000
01CFFFFFFFFFFC0000
0008FFFFFFFFFF6000
000036EFFFFFFFC000
0000000169FFFFF100
0177777403FFFFF300
0AFFFFFB01EFFFF300
04FFFFFC1BFFFFD000
00DFFFFFFFFFFF4000
005FFFFFFFFFFA0000
000AFFFFFFFFF60000
0001BC9CFFD8A00000
00000306FB00000000
00000007F900000000
00000009F900000000
0000000CF900000000
0000000DF900000000
0000000DFA00000000
0000000CFA00000000
0000000BEA00000000
000000053500000000
ENDCHAR
STARTCHAR percent
ENCODING 37
SWIDTH 828 0
DWIDTH 30 0
BBX 28 33 1 -4
BITMAP
0000000000000000020000000000
00000000000000004DE800000000
0000000000000000CFF300000000
006AB98100000007FFF000000000
0AFFFFFD2000000AFFD000000000
6FFFFFFFC200000DFF7000000000
DFFFFFFFF700002FFE1000000000
DFFFFFFFF700003FFD1000000000
BFFFFFFFF900005FFE1000000000
AFFF9FFFF800007FFA0000000000
AFFA09FFF90000AFF50000000000
AFF807FFF80000EFE000039B8100
9FF607FFF60006FF90003FFFFD10
8FF807FFF2000CFF3000CFFFFFB1
4FFB09FFB0002FFD0004FFFFFFF2
3FFE4EFF60007FF80005FFFFFFF3
0EFFFFFD1000DFF20002FFFFFFF5
036EFFE60004FFD00002FFFEFFF4
00029B30000AFF900000FFFBFFF5
00000000002FFF800000FFFBFFF6
00000000007FFF400006FFFAFFF7
0000000000DFFB00000CFF53FFF9
00000000007FF800000CFF25FFF2
00000000006FE000000BFFABFFC0
00000000009FB0000007FFFFFF60
0000000000EF500000012BDFF900
0000000006FE00000000014B5000
000000000DFD0000000000000000
000000003FF70000000000000000
000000004FF50000000000000000
000000006FF30000000000000000
0000000056D00000000000000000
0000000000300000000000000000
ENDCHAR
STARTCHAR ampersand
ENCODING 38
SWIDTH 522 0
DWIDTH 19 0
BBX 17 19 1 4
BITMAP
000005AB9861000000
000007FFFFF5000000
000007FFFFF5000000
000006FFFFF5000000
000006FFFFF2000000
000005FFFFF2000000
6CCCCDFFFFF999AC40
8FFFFFFFFFFFFFFF40
8FFFFFFFFFFFFFFF40
8FFFFFFFFFFFFFFF30
8FFFFFFFFFFFFFFF20
8FFFFFFFFFFFFFFF10
17899CFFFFF9AAA900
000007FFFFF4000000
000007FFFFF4000000
000007FFFFF4000000
000007FFFFF1000000
000007FFFFD0000000
000002444430000000
ENDCHAR
STARTCHAR quotesingle
ENCODING 39
SWIDTH 300 0
DWIDTH 11 0
BBX 8 14 1 13
BITMAP
15557741
5FFFFFFB
0EFFFFFB
0CFFFFFB
0AFFFFFB
07FFFFF9
05FFFFF5
02FFFFF4
00FFFFF2
00CFFFF1
00AFFFE0
007FFFD0
004FFFB0
001A3220
ENDCHAR
STARTCHAR parenleft
ENCODING 40
SWIDTH 372 0
DWIDTH 13 0
BBX 12 36 1 -5
BITMAP
000000000179
000000028EFB
0000019FFFFA
00000BFFFFF9
00008FFFFFF7
0003FFFFFFF5
000CFFFFFFF3
003FFFFFFFF1
00CFFFFFFFE0
06FFFFFFFFC0
0AFFFFFFFFA0
0CFFFFFFFFA0
0FFFFFFFEA60
2FFFFFFD1000
4FFFFFF60000
6FFFFFF10000
7FFFFFE00000
8FFFFFD00000
9FFFFFC00000
9FFFFFB00000
9FFFFFA00000
8FFFFF900000
8FFFFFA00000
6FFFFFD00000
3FFFFFE00000
0EFFFFF40000
09FFFFFB0000
03FFFFFF2000
00BFFFFFF300
005FFFFFFE10
000DFFFFFF30
0004FFFFFF70
00009FFFFF90
00001BFFFF80
0000003BFE40
000000001000
ENDCHAR
STARTCHAR parenright
ENCODING 41
SWIDTH 338 0
DWIDTH 12 0
BBX 11 35 0 -5
BITMAP
0BC853000000
0EFFFF900000
1FFFFFFA0000
0BFFFFFF9000
0AFFFFFFF800
09FFFFFFFE00
08FFFFFFFF40
07FFFFFFFF60
06FFFFFFFF60
05FFFFFFFF60
05FFFFFFFF60
04FFFFFFFF60
026AFFFFFF50
00007FFFFF50
00001FFFFF40
00000DFFFF30
00000BFFFF30
00000AFFFF20
000009FFFF10
000009FFFF00
000009FFFE00
00000AFFFD00
00000DFFFB00
00000FFFF900
00001FFFF700
00004FFFF400
00008FFFF100
0000DFFFC000
0000DFFF7000
0238FFFE1000
0AFFFFF50000
1FFFFF800000
3FFFFC000000
2FFFE2000000
18A630000000
ENDCHAR
STARTCHAR asterisk
ENCODING 42
SWIDTH 513 0
DWIDTH 18 0
BBX 19 22 0 7
BITMAP
00000000000570000000
00000040000BD4000000
00001BF2000CFF100000
0000CFFA003FFF200000
0000BFFF30BFFD000000
00005FFFA3FFF7000000
00000EFFFBFFF3000000
000009FFFFFFE0000000
010003FFFFFF70000000
0FECA9FFFFFFACC97200
0DFFFFFFFFFFFFFFF910
1EFFFFFFFFFFFFFFF100
09FFFFFFFFFFFFFFE100
0122339FFFFF52101000
000000CFFFFFA0000000
000000FFFEFFE0000000
000005FFF8FFF7000000
00000CFFD1EFFE000000
00002FFF808FFF200000
00006FFF301DFD200000
0000415C000130000000
00000002000000000000
ENDCHAR
STARTCHAR plus
ENCODING 43
SWIDTH 458 0
DWIDTH 17 0
BBX 14 15 1 6
BITMAP
00003BA8850000
00003FFFFB0000
00003FFFFB0000
00002FFFF80000
14445FFFF81133
6FFFFFFFFFFFFC
6FFFFFFFFFFFFB
6FFFFFFFFFFFFB
6FFFFFFFFFFFFA
5FFFFFFFFFFEF9
01226FFFFA0142
00004FFFFA0000
00004FFFFA0000
00004FFFFA0000
00003CCCC60000
ENDCHAR
STARTCHAR comma
ENCODING 44
SWIDTH 361 0
DWIDTH 13 0
BBX 11 19 1 -6
BITMAP
025520002000
0FFFFFDDFD00
1FFFFFFFFE00
2FFFFFFFFF00
2FFFFFFFFF10
3FFFFFFFFF20
3FFFFFFFFF30
4FFFFFFFFF10
4FFFFFFFFF10
5FFFFFFFFF10
4FFFFFFFFF10
054257CFFF00
000000BFFD00
000000EFFB00
000002FFF800
000004FFF600
000006FFF400
000006FFF200
000001322000
ENDCHAR
STARTCHAR hyphen
ENCODING 45
SWIDTH 478 0
DWIDTH 17 0
BBX 14 8 2 10
BITMAP
45554133313331
DFFFFFFFFFFFF2
DFFFFFFFFFFFC0
EFFFFFFFFFFF70
EFFFFFFFFFFF50
FFFFFFFFFFFF50
EEFFFFFFFFEF50
11688827546920
ENDCHAR
STARTCHAR period
ENCODING 46
SWIDTH 374 0
DWIDTH 13 0
BBX 11 12 1 1
BITMAP
013358AA9620
5EFFFFFFFF80
0CFFFFFFFF80
0AFFFFFFFF70
09FFFFFFFF50
07FFFFFFFFA0
06FFFFFFFFA0
05FFFFFFFF90
04FFFFFFFF80
03FFFFFFFF70
03FFFECBDD60
015330000000
ENDCHAR
STARTCHAR slash
ENCODING 47
SWIDTH 291 0
DWIDTH 11 0
BBX 12 33 -1 -4
BITMAP
000000000200
000000004DE6
000000009FF2
00000000EFF0
00000005FFD0
0000000BFF80
0000000FFF20
0000000EFD10
0000001EFE00
0000007FF900
0000009FF500
000000EFF100
000006FFB000
00001EFF6000
00005FFF1000
00009FFC0000
0000CFF70000
0001FFF20000
0005FFC00000
0008FFB00000
000CFF600000
001FFE000000
000DFC000000
000EF5000000
004FF1000000
009FC0000000
01EF80000000
05FF40000000
0BFD00000000
1FFA00000000
3FF800000000
29A300000000
003000000000
ENDCHAR
STARTCHAR zero
ENCODING 48
SWIDTH 528 0
DWIDTH 19 0
BBX 17 30 1 -3
BITMAP
000003787562000000
0002BFFFFFFF600000
002DFFFFFFFFF81000
00CFFFFFFFFFFF6000
07FFFFFFFFFFFFE500
1EFFFFFFFFFFFFFE10
2FFFFFFFFFFFFFFE00
6FFFFFFFFFFFFFFE00
4FFFFFFFFFFFFFFF10
3FFFFFFFFFFFFFFF40
1FFFFFFFFFFFFFFF30
1FFFFFFEDFFFFFFF10
0FFFFFF31EFFFFFF30
0FFFFF9009FFFFFF30
0EFFFF6008FFFFFF20
0EFFFF4007FFFFFF10
0DFFFF4004FFFFFF00
0CFFFF4002FFFFFD00
0BFFFF5004FFFFFB00
0AFFFF4006FFFFF800
07FFFF7009FFFFF200
04FFFFB00CFFFFA000
01FFFFF10EFFFF5000
00EFFFF99FFFFF3000
00DFFFFFFFFFFD1000
006FFFFFFFFFF70000
00085DFFFFFFC00000
0000068BFFFA500000
00000017FF70000000
000000002400000000
ENDCHAR
STARTCHAR one
ENCODING 49
SWIDTH 366 0
DWIDTH 13 0
BBX 12 28 0 -1
BITMAP
000000038870
0000038FFFF2
0038DFFFFFD1
7DFFFFFFFFF2
CFFFFFFFFFF1
7FFFFFFFFFF2
1EA7FFFFFFFA
0002FFFFFFF8
0000FFFFFFF6
0000EFFFFFF4
0000CFFFFFF2
0000BFFFFFF0
0000AFFFFFD0
00008FFFFF70
00007FFFFF80
00006FFFFFA0
00004FFFFFA0
00003FFFFF90
00002FFFFF40
00001FFFFF10
00000EFFFF40
00000DFFFF50
00000CFFFF40
00000BFFFF20
000009FFFF10
000008FEFF00
00000643FF30
000000002550
ENDCHAR
STARTCHAR two
ENCODING 50
SWIDTH 575 0
DWIDTH 21 0
BBX 20 31 1 -4
BITMAP
000006AAAA7400000000
0002BFFFFFFFD1000000
005BFFFFFFFFFC200000
01EFFFFFFFFFFFE40000
09FFFFFFFFFFFFFC0000
1FFFFFFFFFFFFFFF4000
1EFFFFFFFFFFFFFF8000
1FFFFFFFFFFFFFFFB000
1FFFFFFFFFFFFFFFC000
1FFFFFFFFFFFFFFFC000
1FFFFFFFFFFFFFFFB000
0FFFFFFFEFFFFFFF9000
0EFFFFFC3AFFFFFF6000
0CFFFFF302EFFFFF4000
0AFFFFD005EFFFFF1000
07ECDEB03FFFFFFE0000
01000010AFFFFFFA0000
000000007FFFFFF40000
000000009FFFFFC00000
00000002FFFFFF400000
0000000AFFFFF8000000
0000007FFFFFF3000001
000008FFFFFFFDC98BE2
0496AFFFFFFFFFFFFFD0
0AFFFFFFFFFFFFFFFFC0
0DFFFFFFFFFFFFFFFF80
0EFFFFFFFFFFE9FFFF50
3FFFFFFDEED553ECFF40
6FFFFC95C62020B3F910
0356522010000064F100
00000000000000018000
ENDCHAR
STARTCHAR three
ENCODING 51
SWIDTH 517 0
DWIDTH 19 0
BBX 16 29 1 -2
BITMAP
0000158776300000
0007EFFFFFF80000
01AFFFFFFFFFA000
1AFFFFFFFFFFF900
8FFFFFFFFFFFFF50
CFFFFFFFFFFFFFE0
8FFFFFFFFFFFFFF6
7FFFFFFFFFFFFFFA
6FFFFFFFFFFFFFFB
4FFFFFFFFFFFFFFC
3FFFFFFFFFFFFFFC
2FFFFFFFEFFFFFFC
1FFFFFF52FFFFFFC
0FFFFFD00FFFFFFA
0DEBAA402FFFFFF7
173000007FFFFFF2
00000059DFFFFFD0
000000AFFFFFFF80
0000009FFFFFFFC0
0000004BCDFFFFF4
0000000000AFFFF9
00000000209FFFF9
0004BFFF805FFFF8
0009FFFFA06FFFF3
0004FFFFFAEFFFD0
0000AFFFFFFFFF40
00003FFFFFFFFC00
00000CFFFFFFF500
000002DB85345100
ENDCHAR
STARTCHAR four
ENCODING 52
SWIDTH 466 0
DWIDTH 17 0
BBX 16 36 1 -9
BITMAP
09999887779BDD90
08FFFFFFFFFFD600
007FFFFFFFFB0000
005EFFFFFFE20000
009FFFFFFF500000
00EFFFFFFC000000
00EFFFFFFE000000
00DFFFFFFB000000
01FFFFFFF3000000
04FFFFFFD0000000
06FFFFFF90000000
07FFFFFF60000000
04FFFFFF60000000
03EFFFFF30000000
00EFFFFE00000000
02FFFFFC6B9B6400
04FFFFF7AFFFFA00
07FFFFF39FFFF500
09FFFFF08FFFE000
0AFFFFD05FFFC000
0CFFFFB05FFFB000
0FFFFFC56FFF9000
2FFFFFFFFFFFEDD2
4FFFFFFFFFFFFFA0
6FFFFFFFFFFFFF80
9FFFFFFFFFFFFF80
BFFFFFFFFFFFFF80
7652159BDFFFFF80
000000000FFF9460
000000000DFD1000
000000000BFE0000
000000000AFD0000
000000000BFD0000
000000000AFC0000
00000000067C0000
0000000000020000
ENDCHAR
STARTCHAR five
ENCODING 53
SWIDTH 583 0
DWIDTH 21 0
BBX 20 29 1 -2
BITMAP
19AABBCCCA9753321100
1FFFFFFFFFFFFFFFFFF2
1FFFFFFFFFFFFFFFFFE0
1FFFFFFFFFFFFFFFFFC0
2FFFFFFFFFFFFFFFFF90
0CFFFFFFFFFFFFFFFF70
0EFFFFFFFFFFFFFFFF50
2FFFFFFFFFFFFFFFFF20
2FFFFFFFFFFFFFFFFF00
0FFFFFFFFFFFFFFFFD00
0DFFFFFFFFFFFFFFFB00
0CFFFFFFFFFFFFFFFA00
0CFFFFEADFFFFFFFF800
3FFFFFF0002345679400
3EFFFFE0000000000000
0BFFFFE1122222100000
09FFFFFBCFFFFFA00000
08FFFFFFFFFFFF600000
00DFFFFFFFFFFF900000
0067779BCDFFFFE10000
00000000008FFFF50000
00000000207FFFF50000
0003BFFFA03FFFF40000
0008FFFFC04FFFE00000
0002FFFFFBDFFFA00000
00009FFFFFFFFF200000
00001FFFFFFFFB000000
00000AFFFFFFF4000000
000001CC862541000000
ENDCHAR
STARTCHAR six
ENCODING 54
SWIDTH 582 0
DWIDTH 21 0
BBX 19 31 1 -4
BITMAP
00000245433200000000
0005EFFFEFFFE9100000
002FFFFFFFFFFFE50000
09FFFFFFFFFFFFFF6000
5FFFFFFFFFFFFFFFF300
5FFFFFFFFFFFFFFFFC00
9FFFFFFFFFFFFFFFFF60
9FFFFFFFFFFFFFFFFFB0
8FFFFFFFFFFFFFFFFF70
7FFFFFFFFFFFFFFFFF40
5FFFFFFFFFFFFFFFFF20
3FFFFFFFFFFFFFFFFE00
1FFFFFFC39FFFFFFFA00
0EFFFFFA00AFFFFFF400
0CFFFFF8004FFFFFD000
08FFFFF7001FFFFFD000
06FFFFF300067CFFF000
01FFFFF8797400233100
00BFFFFFFFFFECA71000
007FFFFFFFFFFFFFB000
004FFFFF6349FFFFF100
003FFFFF1002FFFFF200
002FFFFF3002FFFFF000
001FFFFF8003FFFFC000
000CFFFFE77DFFFFD000
0006FFFFFFFFFFFFE000
0001FFFFFFFFFFFFE000
00006FFFFFFFFFFFB000
000009FCFDFFDDFC2000
00000072A08516500000
00000000100000000000
ENDCHAR
STARTCHAR seven
ENCODING 55
SWIDTH 624 0
DWIDTH 22 0
BBX 23 31 0 -4
BITMAP
000012345679ABCCCCBAA920
3ACEFFFFFFFFFFFFFFFFFF10
3FFFFFFFFFFFFFFFFFFFFC00
0FFFFFFFFFFFFFFFFFFFF800
0CFFFFFFFFFFFFFFFFFFF200
09FFFFFFFFFFFFFFFFFF8000
06FFFFFFFFFFFFFFFFFF8000
04FFFFFFFFFFFFFFFFFF6000
02FFFFFFFFFFFFFFFFFF2000
00FFFFFFFFFFFFFFFFFA0000
00DFFFFFFFFFFFFFFFF40000
00CFFFFFFFFFFFFFFFD00000
00AFFFFFFFFDAEFFFF900000
0059764431002FFFFFD10000
0000000000005FFFFF400000
0000000000009FFFFE000000
000000000002EFFFF8000000
000000000006FFFFE1000000
00000000000CFFFF80000000
00000000003FFFFF40000000
00000000008FFFFB00000000
0000000000DFFFF200000000
0000000004FFFF8000000000
0000000008FFFF5000000000
000000000DFFFD0000000000
000000004FFFF60000000000
00000000AFFFE10000000000
00000000EFFF900000000000
00000006FFFF400000000000
0000000EFFFF000000000000
000000011274000000000000
ENDCHAR
STARTCHAR eight
ENCODING 56
SWIDTH 459 0
DWIDTH 17 0
BBX 15 31 1 -4
BITMAP
000489AA97510000
04DFFFFFFFFE7000
2FFFFFFFFFFFF700
8FFFFFFFFFFFFE00
AFFFFFFFFFFFFF10
9FFFFFFFFFFFFF10
8FFFFFFFFFFFFF00
6FFFFFFFFFFFFE00
4FFFFFFFFFFFFC00
2FFFFFFFFFFFF900
0EFFFFFFFFFFF700
0CFFFF9BFFFFF400
09FFFF108FFFF200
07FFFF308FFFE000
04FFFF308FFFB000
01FFFF939FFF8000
00BFFFFFFFFF3000
003DFFFFFFF90000
001BFFFFFFE40000
006FFFFFFFFD0000
008FFF36EFFF0000
007FFB00CFFE0000
006FFE00BFFD0000
005FFE00DFFC0000
004FFFA6FFFB0000
002FFFFFFFF90000
000AFFFFFFF30000
0002EFDCFFA00000
0000157045000000
0000025000000000
0000001000000000
ENDCHAR
STARTCHAR nine
ENCODING 57
SWIDTH 584 0
DWIDTH 21 0
BBX 19 32 1 -5
BITMAP
0000000236A751000000
00001AFFFFFFFF100000
0001DFFFFFFFFFD91000
000AFFFFFFFFFFFFC100
00CFFFFFFFFFFFFFFB00
03FFFFFFFFFFFFFFF900
0BFFFFFFFFFFFFFFFB00
3FFFFFFFFFFFFFFFFF00
6FFFFFFFFFFFFFFFFF20
6FFFFFFFFFFFFFFFFF40
8FFFFFFFFFFFFFFFFF60
8FFFFFFFEDFFFFFFFF70
7FFFFFFF31BFFFFFFF70
5FFFFFFE001FFFFFFF80
1FFFFFFF500EFFFFFF70
0CFFFFFFECCFFFFFFF50
05FFFFFFFFFFFFFFFF20
009FFFFFFFFFFFFFFC00
0009FFFFFFFFFFFFF600
000025B8666FFFFFE100
00000000000FFFFF9000
0048ABCC000FFFFF7000
07FFFFFF405FFFFD0000
01FFFFFF63DFFFFB0000
00AFFFFFFFFFFFD20000
004FFFFFFFFFFF400000
000BFFFFFFFFFD000000
0001AEA9ADDAA9000000
00000400543045000000
00000000443000000000
00000000450000000000
00000000250000000000
ENDCHAR
STARTCHAR colon
ENCODING 58
SWIDTH 386 0
DWIDTH 14 0
BBX 11 30 1 1
BITMAP
000026986410
5BFFFFFFFFA0
2EFFFFFFFF90
09FFFFFFFF80
03FFFFFFFF70
06FFFFFFFF90
07FFFFFFFFA0
06FFFFFFFFB0
03FFFFFFFFB0
02FFFFFFFFB0
02FFFFDEFFA0
029851002100
000000000000
000000000000
000000000000
000000000000
000000000000
000000000000
01468ABB9720
4EFFFFFFFF70
0DFFFFFFFF40
0DFFFFFFFF40
0BFFFFFFFF70
0AFFFFFFFFA0
08FFFFFFFFA0
06FFFFFFFF80
03FFFFFFFF70
00EFFFFFFF60
01FFFEB9CD40
016550000000
ENDCHAR
STARTCHAR semicolon
ENCODING 59
SWIDTH 375 0
DWIDTH 14 0
BBX 11 37 1 -6
BITMAP
00134AB99300
7DFFFFFFFF40
4FFFFFFFFF60
0FFFFFFFFF60
09FFFFFFFF30
08FFFFFFFF40
07FFFFFFFF50
09FFFFFFFF50
09FFFFFFFF50
06FFFFFFFF50
07FFFEDEFE30
05C820001000
000000000000
000000000000
000000000000
000000000000
000000000000
000000000000
026300013010
0EFFECCFFE40
0FFFFFFFFF40
0CFFFFFFFF40
09FFFFFFFF40
09FFFFFFFF60
0BFFFFFFFF50
0DFFFFFFFF20
0EFFFFFFFF40
2FFFFFFFFF30
2FFFFFFFFF30
044247BFFF40
0000009FFF10
000000DFFE00
000001FFFC00
000003FFFA00
000004FFF800
000003FFF600
000000457300
ENDCHAR
STARTCHAR less
ENCODING 60
SWIDTH 459 0
DWIDTH 17 0
BBX 15 21 1 2
BITMAP
0000010000000000
00005FFFFFEEED50
00005FFFFFFFFA00
00009FFFFFFFC100
0001EFFFFFFA0000
0009FFFFFFF30000
004FFFFFFF700000
05FFFFFFFD000000
4FFFFFFFE3000000
CFFFFFFF60000000
CFFFFFFE00000000
3FFFFFFFA0000000
0AFFFFFFF3000000
07FFFFFFF6000000
005FFFFFFE100000
0008FFFFFFC10000
0000BFFFFFFB0000
00001DFFFFFFB100
000002DFFFFFFC20
0000002CFEFFFF60
0000000020368200
ENDCHAR
STARTCHAR equal
ENCODING 61
SWIDTH 485 0
DWIDTH 17 0
BBX 13 12 2 10
BITMAP
8CDDDAABCAACC0
AFFFFFFFFFFFF0
BFFFFFFFFFFFD0
BFFFFFFFFFFFD0
24688757444970
00000000000000
00000000000000
898778BBB99BA0
CFFFFFFFFFFFE0
BFFFFFFFFFFFE0
BEFFFFFFFFEFD0
124A9847554840
ENDCHAR
STARTCHAR greater
ENCODING 62
SWIDTH 432 0
DWIDTH 16 0
BBX 14 21 1 2
BITMAP
11122123000000
CFFFFFFFD10000
3FFFFFFFF10000
08FFFFFFF30000
00BFFFFFFA0000
000DFFFFFF6000
0003FFFFFFE200
00009FFFFFFD10
00001DFFFFFFB0
000002EFFFFFF5
000001CFFFFFF4
00000AFFFFFFB0
00000BFFFFFFA0
00004FFFFFFD40
0002EFFFFFC100
002DFFFFFF4000
03DFFFFFFB0000
4EFFFFFFF30000
9FFFFFFF600000
7EFFFDF9000000
00211000000000
ENDCHAR
STARTCHAR question
ENCODING 63
SWIDTH 577 0
DWIDTH 21 0
BBX 18 33 1 -4
BITMAP
000000111100000000
00003CFFFFDA400000
0007FFFFFFFFF50000
00BDFFFFFFFFFFA100
04EFFFFFFFFFFFFB00
1DFFFFFFFFFFFFFF40
2FFFFFFFFFFFFFFF90
1FFFFFFFFFFFFFFFE0
2FFFFFFFFFFFFFFFF1
1FFFFFFFFFFFFFFFF1
0EFFFFFFFFFFFFFFF0
0BFFFFFD6DFFFFFFE0
08FFFFF503FFFFFFC0
03FEDFE402EFFFFFA0
0020010106FFFFFF60
000000000BFFFFFD00
000000004FFFFFF200
000000008FFFFFC000
00000000DFFFFF5000
00000000FFFFF90000
00000001FFFFD10000
00000005FFFF300000
00000008FE89000000
000000013211000000
000000000000000000
000000002420000000
000009EFFFFE000000
000006FFFFFF000000
000001FFFFFE000000
000000DFFFFE100000
000000DFFFFF200000
000000CFFFFF000000
000000ACA7A8000000
ENDCHAR
STARTCHAR at
ENCODING 64
SWIDTH 930 0
DWIDTH 33 0
BBX 32 39 1 -8
BITMAP
000000000017BDDBB973000000000000
0000000004DFFFFFFFFF910000000000
000000008FFFFFFFFFFFFD3000000000
0000000AFFFFFFFFFFFFFFE400000000
000000AFFFFFEB97779EFFFF60000000
000008FFFE83000000018FFFF5000000
00004FFFA1000111320005FFFF400000
0001DFF70029EFFEEFEB207FFFE20000
0007FF9003EFFFFFFFFF810AFFFC0000
001EFD001DFFFFFFFFFFFB03FFFF7000
008FF6007FFFFFFFFFFFFF00AFFFF200
00EFE000BFFFFFFFFFFFFF104FFFF900
05FFA000DFFFFFFFFFFFFF100EFFFF10
0AFF6000DFFFFFFFFFFFFC000AFFFF70
0EFF3000BFFFFFFFFFFFF90008FFFFC0
4FFF10007FFFFFFFFFFFF70007FFFFF1
7FFE00003FFFFFE6BFFFF50006FFFFF3
AFFD00000DFFFF406FFFF30005FFFFF5
DFFD00000AFFFD002FFFF20003FFFFF6
7FFC00000DFFD9000FFFF10000FFFFF6
4FFD0000077501345FFFF00000DFFFF5
5FFF00000179CFFFFFFFE00000AFFFF3
5FFF200008FFFFEEFFFFF400007FFFF1
5FFF500009FFFA001DFFFB00005FFFD0
4FFF800009FFF9001FFFFF40003FFF90
2FFFC00008FFF9007FFFFFD1002FFF50
0EFFF20009FFFF97EFFFFFFD624FFF10
0BFFF7000AFFFFFFFFFFDDFFFFFFFA00
06FFFD0008FFFFFFFFFF8BFFFFFFF300
01EFFF6002EFEFFFFEFA07FFFFFB5000
007FFFD0001755B3A370007CB8300000
001EFFF8000000000000000000000000
0005FFFF400000000000000000000000
0000AFFFE30000000000000000000000
00001BFFFE7100000014500000000000
000001BFFFFFDCCCDEFFE10000000000
00000008FFFFFFFFFFFFF80000000000
000000003CFFFFFFFFFFE90000000000
000000000038CDDDCA84100000000000
ENDCHAR
STARTCHAR A
ENCODING 65
SWIDTH 494 0
DWIDTH 18 0
BBX 17 34 0 -8
BITMAP
18ACDEEFFEEDCA8630
04DFFFFFFFFFFFFD30
0019FFFFFFFFFFE200
0003FFFFFFFFFF6000
0003FFFFFFFFFF1000
0002FFFFFFFFFE0000
0000FFFFFFFFFC0000
0000FFFFFFFFFA0000
0003FFFFFFFFF90000
0004FFFFFFFFF80000
0002FFFFFFFFF70000
0001FFFFFFFFF50000
0000EFFFDFFFF50000
0002FFFF8EFFF30000
0001FFFF4DFFF40000
0003FFFF1CFFF50000
0003FFFD0BFFF40000
0005FFFC0AFFF60000
0002FFF708FFF30000
0002FFFDDDFFF50000
0005FFFFFFFFF50000
0008FFFFFFFFF30000
0006FFFFFFFFF10000
0003FFFFFFFFD00000
0001FFFD4FFF900000
0000EFFB08FF700000
0000EFE30AFF700000
0000EED009EF400000
0000C7A0076E200000
0000B140010E000000
00006010002C000000
000000000165000000
000000000510000000
000000000400000000
ENDCHAR
STARTCHAR B
ENCODING 66
SWIDTH 517 0
DWIDTH 19 0
BBX 18 29 0 -2
BITMAP
000003579AA9851000
17ADFFFFFFFFFFF910
08FFFFFFFFFFFFFFB0
00BFFFFFFFFFFFFFF3
002FFFFFFFFFFFFFF5
0009FFFFFFFFFFFFF5
0004FFFFFFFFFFFFF4
0003EFFFFFFFFFFFF2
0006FFFFFFFFFFFFF0
0003FFFFFFFFFFFFD0
0001FFFFFFFFFFFFA0
0000EFFFFBAEFFFF80
0000DFFFF504FFFF50
0000CFFFF704FFFF20
0000CFFFF604FFFE00
0000CFFFFB45FFFC00
0000DFFFFFFFFFF700
0000DFFFFFFFFFC100
0000CFFFFFFFFF7000
00008FFFFFFFFFF200
00007FFFF55CFFF400
00007FFFE108FFF300
00002FFFF208FFF200
00001FFFF209FFF100
00002FFFFB7DFFF000
00002FFFFFFFFFD000
00002FEEFFFFFF7000
00000D12EFBFFD1000
000000004402610000
ENDCHAR
STARTCHAR C
ENCODING 67
SWIDTH 504 0
DWIDTH 18 0
BBX 17 32 1 -5
BITMAP
0000049AAAA7000000
0001BFFFFFFFC40000
003CFFFFFFFFFC6000
05FFFFFFFFFFFFF200
1EFFFFFFFFFFFFFB10
6FFFFFFFFFFFFFFF40
BFFFFFFFFFFFFFFF30
DFFFFFFFFFFFFFFF40
FFFFFFFFFFFFFFFF40
EFFFFFFFFFFFFFFF30
DFFFFFFFFFFFFFFF30
BFFFFFFFEFFFFFFF20
9FFFFFFB3AFFFFFF10
6FFFFFF302FFFFFE00
4EFFFFF300BFFFFD00
1EFFFFF400AEDCDA00
0FFFFFF30010000100
0CFFFFF10000000000
09FFFFE00000000000
06FFFFF00021000000
04FFFFF100EFDA6000
01EFFFF203FFFFD000
01FFFFF707FFFF7000
008FFFFC4EFFFF5000
002FFFFFFFFFFF2000
001FFFFFFFFFF70000
000AFFFFFFFF810000
00003AE7CDFD100000
0000029089A3000000
000000909670000000
000000605560000000
000000000010000000
ENDCHAR
STARTCHAR D
ENCODING 68
SWIDTH 522 0
DWIDTH 19 0
BBX 18 33 1 -6
BITMAP
000000001244400000
24579BCEFFFFFB0000
5FFFFFFFFFFFFF9000
6FFFFFFFFFFFFFFA10
1FFFFFFFFFFFFFFFA0
0AFFFFFFFFFFFFFFB0
04FFFFFFFFFFFFFFF1
00FFFFFFFFFFFFFFF2
00CFFFFFFFFFFFFFF2
009FFFFFFFFFFFFFF1
008FFFFFFFFFFFFFE0
007FFFFFFFFFFFFFC0
006FFFFFF44DFFFFA0
004FFFFFA005FFFF70
003FFFFF7002FFFF40
001FFFFF6001FFFF10
000EFFFF6001FFFC00
000DFFFF5001EFF900
000BFFFF7002FFF600
0009FFFF6006FFF300
0007FFFF600AFFF100
0004FFFF800CFFF000
0002FFFFE48FFFE000
0000DFFFFCFFFFD000
0001FFFFFFFFFFB000
0001FFFFFFFFFF4000
0000EE409FFFF90000
0000E7008FFD710000
0000C4007DC0000000
000093006AA0000000
000061005820000000
000000004700000000
000000000100000000
ENDCHAR
STARTCHAR E
ENCODING 69
SWIDTH 570 0
DWIDTH 21 0
BBX 19 30 1 -3
BITMAP
00134567776542000000
9EFFFFFFFFFFFFFDB820
6FFFFFFFFFFFFFFFFB00
09FFFFFFFFFFFFFFF200
01FFFFFFFFFFFFFFE000
00AFFFFFFFFFFFFFC000
00AFFFFFFFFFFFFF8000
009FFFFFFFFFFFFF3000
009FFFFFFFFFFFFD0000
008FFFFFFFFFFFF90000
007FFFFFFFFFFFF50000
006FFFFFEDFFFFF10000
005FFFFF80159DF00000
003FFFFF800000000000
002FFFFF800000000000
000FFFFFEEEEA2000000
000DFFFFFFFFF3000000
000DFFFFFFFFF0000000
000BFFFFFFFFF0000000
0009FFFFFEEEE0000000
0007FFFF500030000000
0005FFFF400000000000
0004FFFF899963000000
0002FFFFFFFFFC000000
0001FFFFFFFFF8000000
0000FCAFFFFFF4000000
0000E10BFFB8F4000000
0000D00BCE10B2000000
0000400A650090000000
00000000000010000000
ENDCHAR
STARTCHAR F
ENCODING 70
SWIDTH 559 0
DWIDTH 20 0
BBX 19 30 0 -3
BITMAP
00012244440132000000
2ADFFEFFFFEDFFFDB840
06FFFFFFFFFFFFFFFF40
006FFFFFFFFFFFFFFA00
0009FFFFFFFFFFFFF500
0001EFFFFFFFFFFFF200
0000BFFFFFFFFFFFE000
0000AFFFFFFFFFFFC000
0000AFFFFFFFFFFFA000
0000AFFFFFFFFFFF8000
0000AFFFFFFFFFFF7000
00009FFFFFFFFFFF6000
00004FFFFFCECFFF5000
00001FFFFF60004A8000
00000EFFFFB111100000
00000EFFFFFFFFF80000
00000EFFFFFFFFF70000
00000EFFFFFFFFF70000
00000DFFFFFFFFF50000
00000BFFFFEBBCF70000
000006FFFFB000230000
000007FFFF9000000000
000008FFFFB000000000
00000BFFFFC000000000
00000EFFFFC000000000
00000EFFFFD000000000
00000EFFFFE000000000
00000C4BFAB000000000
00000700B07000000000
00000300701000000000
ENDCHAR
STARTCHAR G
ENCODING 71
SWIDTH 499 0
DWIDTH 18 0
BBX 17 31 1 -4
BITMAP
000002546300000000
0002AFFFFFE8100000
038FFFFFFFFFE60000
1EFFFFFFFFFFFF9000
5FFFFFFFFFFFFFF200
6FFFFFFFFFFFFFFA00
BFFFFFFFFFFFFFFF10
BFFFFFFFFFFFFFFF30
AFFFFFFFFFFFFFFF30
9FFFFFFFFFFFFFFF20
7FFFFFFFFFFFFFFE00
6FFFFFFFFFFFFFFB00
3FFFFFA06FFFFFF900
1FFFFF700CFFFFF600
0EFFFF7008FFFFF500
0BFFFF4004EFFFF700
09FFFF300013566400
07FFFF308645651000
06FFFF509FFFFFF400
05FFFF808FFFFFF500
04FFFFA07FFFFFF500
02FFFFD067AFFFF500
00EFFFF200AFFFF400
00AFFFF817EFFFF300
006FFFFFFFFFFFF000
001FFFFFFFFFFFB000
0009FFFEFFFFFF5000
0001CEC7EFFFF80000
000016557D6E300000
00000A412408000000
000005300000000000
ENDCHAR
STARTCHAR H
ENCODING 72
SWIDTH 726 0
DWIDTH 26 0
BBX 26 35 0 -8
BITMAP
00000001246700474653120000
000246AEFFFA006FFFFFFFDA61
3AFFFFFFFFF3004FFFFFFFFF90
00AFFFFFFFC0001FFFFFFFFE10
001FFFFFFFE00007FFFFFFF700
000DFFFFFFD0000BFFFFFFF100
000CFFFFFFD0002FFFFFFFA000
0009FFFFFFC0004FFFFFFF5000
0006FFFFFFC0004FFFFFFE0000
0002FFFFFFB0004FFFFFFB0000
0000EFFFFFB0004FFFFFFA0000
0000CFFFFFA0004FFFFFF70000
00009FFFFFA0004FFFFFF20000
00006FFFFF90004FFFFFB00000
00004FFFFF92128FFFFF900000
00001FFFFFEFEFFFFFFF700000
00000EFFFFFFFFFFFFFF000000
00000CFFFFFFFFFFFFFF000000
00000AFFFFFFFFFFFFFF000000
000008FFFFF855EFFFFD000000
000007FFFFC000FFFFFC000000
000005FFFFD002FFFFF7000000
000004FFFFE003FFFFF4000000
000003FFFFE003FFFFF3000000
000002FFFFE004FFFFF1000000
000001FFFFE006FFFFD0000000
000001FFFFE009EFFFB0000000
000003FA573001FFFFA0000000
000003500000018C6890000000
00000000000000030620000000
00000000000001000000000000
00000000000006000000000000
00000000000008000000000000
00000000000009000000000000
00000000000002000000000000
ENDCHAR
STARTCHAR I
ENCODING 73
SWIDTH 401 0
DWIDTH 14 0
BBX 14 29 0 -2
BITMAP
05999979989862
3DFFFFFFFFFFF3
0AFFFFFFFFFF70
01AFFFFFFFFF40
000BFFFFFFFB00
0006FFFFFFF600
0000CFFFFFFD00
0000BFFFFFFA00
0000DFFFFFF900
0000FFFFFFF700
0001FFFFFFF500
0000FFFFFFF300
0000FFFFFFF000
0000EFFFFFA000
0000DFFFFFB000
0000BFFFFFC000
0000AFFFFFC000
00008FFFFFC000
00006FFFFF7000
00004FFFFF4000
00002FFFFF7000
00000FFFFF7000
00000DFFFF6000
00000BFFFF5000
000009FFFF4000
000007FFFF3000
000005A1EF5000
00000390B57000
00000030A20000
ENDCHAR
STARTCHAR J
ENCODING 74
SWIDTH 455 0
DWIDTH 16 0
BBX 17 29 -1 -2
BITMAP
000000244444320000
0000005FFFFFFFEA20
0000002FFFFFFFF800
0000000AFFFFFFF200
00000004FFFFFFF000
00000001FFFFFFC000
00000000CFFFFF7000
00000000CFFFFC0000
00000001FFFFFC0000
00000003FFFFF90000
00000004FFFFF80000
00000005FFFFF80000
00000006FFFFF80000
00000006FFFFF30000
00000006FFFFF00000
00000003FFFFE00000
00000002FFFFC00000
00002105FFFF900000
1478E106FFFF700000
AFFFF205FFFF600000
BFFFF206FFFF400000
6FFFF208FFFF100000
3FFFF60DFFFE000000
5FFFFEAFFFFC000000
1EFFFFFFFFF4000000
08FFFFFFFFE0000000
006CF95FFAB0000000
0000371F8160000000
000012051000000000
ENDCHAR
STARTCHAR K
ENCODING 75
SWIDTH 580 0
DWIDTH 21 0
BBX 21 29 0 -2
BITMAP
0036784216002661000000
5FFFFFFEDD009FFFDA8610
05EFFFFFFD00AFFFFFF500
005FFFFFFD00CFFFFE4000
001EFFFFFE01EFFFE40000
0007FFFFFF04FFFE300000
0001FFFFFF16FFF5000000
0000BFFFFF2BFFF2000000
00007FFFFF6FFFE0000000
00004FFFFFEFFFA0000000
00001FFFFFFFFF60000000
00000FFFFFFFFF40000000
00002FFFFFFFFF80000000
00001FFFFFFFFFB0000000
00000CFFFFFFFFA0000000
000009FFFFFFFF90000000
000006FFFFFFFFA0000000
000006FFFFFFFFC0000000
000002FFFFFFFFD0000000
000002FFFFFFFFC0000000
000000FFFFFFFFF1000000
000000EFFF9EFFF5000000
000000DFFB06FFF8000000
000000CFFA02FFFB000000
0000009FFD00CFFE000000
0000008FFF107FFF300000
0000008FEF108FFF300000
0000002B08306D4A300000
0000000203300113100000
ENDCHAR
STARTCHAR L
ENCODING 76
SWIDTH 416 0
DWIDTH 15 0
BBX 17 30 0 -3
BITMAP
377777767277500000
3CFFFFFFFFFD200000
02EFFFFFFFC1000000
008FFFFFFF70000000
009FFFFFFC00000000
006FFFFFF800000000
003FFFFFFF10000000
000FFFFFFE00000000
000FFFFFFB00000000
000FFFFFFA00000000
000FFFFFFA00000000
000DFFFFF700000000
000CFFFFF800000000
0005FFFFFA00000000
0005FFFFFB00000000
0005FFFFFB00000000
0005FFFFFB00000000
0003FFFFFB00000000
0000CFFFFB00000000
0000BFFFF900000000
0000DFFFFB00000000
0000AFFFFF10000010
00008FFFFFEEB8BD10
00006FFFFFFFFFFA00
00004FFFFFFFFFFA00
00001FFFFFFFFFF600
00000BFFFEAFFFF400
000004C59A5DDFF300
0000003069241C8000
000000201200171000
ENDCHAR
STARTCHAR M
ENCODING 77
SWIDTH 740 0
DWIDTH 27 0
BBX 26 30 0 -2
BITMAP
00000000002200330030000000
0002468ACEF900AF9DFB630000
1CFFFFFFFFF7007FFFFFFFEC94
06FFFFFFFFFA008FFFFFFFFF91
00BFFFFFFFFE00AFFFFFFFF400
002EFFFFFFFF50EFFFFFFFF100
000AFFFFFFFF93FFFFFFFFF200
000AFFFFFFFFD7FFFFFFFFD000
000AFFFFFFFFFCFFFFFFFF9000
0007FFFFFFFFFFFFFFFFFF8000
0002FFFFFFFFFFFFFFFFFF5000
0000EFFFFFFFFFFFFFFFFF4000
0000DFFFFFFFFFFFFFFFFF4000
0000BFFFFFFFFFFFFFFFFF4000
0000EFFFFFFFFFFFFFFFFF4000
00009FFFFFFFFFFFFFFFFF4000
00007FFFFEEFFFFFBFFFFF4000
00005FFFFE9FFFFEAFFFFF4000
00001FFFFF4FFFFB9FFFFF3000
00000DFFFF2DFFF97FFFFF2000
00000AFFFF49FFF76FFFFF1000
000008FFFF78FFF55FFFFE0000
000006FFFF98FFF45FFFFA0000
000004FFFF94FFE25FFFF60000
000002FFFF90EFA07FFFF60000
000001FFFF90AF909FFFF40000
000000FCEEA06F60DDCFF20000
000000E682503B037109F00000
000000AB320000000006900000
00000013000000000002000000
ENDCHAR
STARTCHAR N
ENCODING 78
SWIDTH 610 0
DWIDTH 22 0
BBX 20 33 1 -6
BITMAP
00001233900875200000
4DEFFFFFF109FFFFDB75
CFFFFFFFF205FFFFFFF7
39FFFFFFF502FFFFFF80
01EFFFFFFA00FFFFFC00
00DFFFFFFF10EFFFF700
00CFFFFFFF90FFFFF700
00BFFFFFFFD0FFFFF600
00AFFFFFFFF3FFFFF400
008FFFFFFFF9FFFFF200
007FFFFFFFFEFFFFF000
005FFFFFFFFFFFFFD000
004FFFFFFFFFFFFFB000
002FFFFFFFFFFFFF9000
000FFFFFFFFFFFFF7000
000DFFFFFFFFFFFF4000
000AFFFFFFFFFFFF3000
0007FFFFFFFFFFFF1000
0005FFFFAFFFFFFF0000
0000FFFF6FFFFFFE0000
0000EFFF6CFFFFFE0000
0000DFFF54FFFFFD0000
0000CFFF52FFFFFC0000
0000BFFF71CFFFFC0000
0000AFFF707FFFF90000
00009FFF803FFFF50000
00007FFF901FFFF60000
00006FFFA00BFCF50000
00005DB5A009F8C10000
00004800900587800000
00003800700400000000
00002A00900720000000
00000400600200000000
ENDCHAR
STARTCHAR O
ENCODING 79
SWIDTH 504 0
DWIDTH 18 0
BBX 17 31 1 -4
BITMAP
000001556330000000
0001AFFFFFF9510000
004EFFFFFFFFFD2000
03FFFFFFFFFFFFA300
1EFFFFFFFFFFFFFC00
8FFFFFFFFFFFFFFD00
DFFFFFFFFFFFFFFE00
FFFFFFFFFFFFFFFF10
CFFFFFFFFFFFFFFF40
BFFFFFFFFFFFFFFE00
AFFFFFFFFFFFFFFF00
8FFFFFFDDFFFFFFE10
6FFFFFF41FFFFFFF30
3FFFFFA009FFFFFF30
1FFFFF8007FFFFFF20
0DFFFF6006FFFFFF10
0BFFFF5004FFFFFF00
0AFFFF6003FFFFFD00
09FFFF8003FFFFF700
07FFFF9003FFFFF100
03FFFFA009FFFFE000
00EFFFE009FFFFD000
00BFFFF40CFFFF7000
00BFFFFC7FFFFF5000
00BFFFFFFFFFFE1000
002EFFFFFFFFF70000
0005DFFFFFFFF00000
00001BF52FF8D00000
000001E00EA0800000
000000600D50200000
000000000100000000
ENDCHAR
STARTCHAR P
ENCODING 80
SWIDTH 545 0
DWIDTH 20 0
BBX 19 29 0 -2
BITMAP
0000234557A485430000
2BDFFFFFFFFFFFFFA100
06FFFFFFFFFFFFFFF900
004FFFFFFFFFFFFFFF20
0008FFFFFFFFFFFFFF70
0003FFFFFFFFFFFFFFB0
0000FFFFFFFFFFFFFFC0
0000EFFFFFFFFFFFFF60
0000EFFFFFFFFFFFFF20
0000CFFFFFFFFFFFFF00
0000BFFFFFFFFFFFFE00
00009FFFFFC99EFFFD00
00006FFFFFC008FFFC00
00003FFFFFB006FFFC00
00001FFFFFC006FFFB00
00000DFFFFC006FFF900
00000AFFFFC006FFF700
000008FFFFF9ACFFF400
000006FFFFFFFFFFF100
000005FFFFFFFFFF9000
000004FFFFFFFFFB1000
000003FFFFE333300000
000000DFFFD000000000
000000FFFFE000000000
000000EFFFF000000000
000000BFFFF000000000
0000008FFFE000000000
0000004D8EF100000000
00000006076200000000
ENDCHAR
STARTCHAR Q
ENCODING 81
SWIDTH 520 0
DWIDTH 19 0
BBX 19 32 0 -5
BITMAP
00000000466410000000
0000017DFFFFE6000000
00006EFFFFFFFF800000
004DFFFFFFFFFFFD2000
01EFFFFFFFFFFFFFC000
00DFFFFFFFFFFFFFF400
05FFFFFFFFFFFFFFF800
1DFFFFFFFFFFFFFFFA00
1DFFFFFFFFFFFFFFFB00
0FFFFFFFFFFFFFFFFC00
2FFFFFFFFFFFFFFFFE00
0FFFFFFFFA1BFFFFFC00
0CFFFFFFF306FFFFFA00
08FFFFFFF105FFFFFA00
04FFFFFFE003FFFFF900
01EFFFFFD001FFFFF900
00AFFFFFB000FFFFF800
005FFFFFA000EFFFF700
007FFFFFB000FFFFF600
005FFFFFF101FFFFF400
000EFFFFF407FFFFF200
0009FFFFFA09FFFFF100
0002EFFFFF2EFFFFB000
00009FFFFFEFFFFF4000
00001DFFFFFFFFFF1000
000002DFFFFFFFFF9000
0000002EFFFFFFFFFB40
00000004EFFFFFFFFE20
0000000027753FFFE300
00000000000006EF5000
000000000000006D0000
00000000000000270000
ENDCHAR
STARTCHAR R
ENCODING 82
SWIDTH 599 0
DWIDTH 22 0
BBX 21 30 0 -3
BITMAP
0000002789986353000000
136ADCEFFFFFFFFF810000
1DFFFFFFFFFFFFFFFE7000
01CFFFFFFFFFFFFFFFF800
003EFFFFFFFFFFFFFFFF70
0005FFFFFFFFFFFFFFFFA0
0000EFFFFFFFFFFFFFFFB0
00007FFFFFFFFFFFFFFFB0
00005FFFFFFFFFFFFFFFB0
00004FFFFFFFFFFFFFFFA0
00004FFFFFFFFFFFFFFF90
00003FFFFFE53BFFFFFF80
00002FFFFFF000BFFFFF60
00001FFFFFE0008FFFFF50
00000AFFFFF000BFFFFF30
00000AFFFFF303FFFFFD00
000004FFFFFFDEFFFFF700
000004FFFFFFFFFFFFF200
000001DFFFFFFFFFFFF000
000000BFFFFFFFFFFB2000
0000009FFFFDAFFFF90000
0000008FFFF31FFFFF2000
0000009FFFF20BFFFF5000
0000006FFFF50BFFFF7000
0000003FFFF509FFFF6000
0000002FFFF607FFFF3000
0000002FFFF706FFFF9000
0000000CBD37029DFFC000
00000002290400396AA000
0000000003000000001000
ENDCHAR
STARTCHAR S
ENCODING 83
SWIDTH 504 0
DWIDTH 18 0
BBX 18 31 0 -4
BITMAP
000000003786200000
0000039EFFFFF91000
0002AFFFFFFFFFE400
001DFFFFFFFFFFFE40
008FFFFFFFFFFFFFE4
00CFFFFFFFFFFFFFF5
05FFFFFFFFFFFFFFF3
0BFFFFFFFFFFFFFFF3
0DFFFFFFFFFFFFFFF2
0FFFFFFFFFFFFFFFF1
1FFFFFFFFFFFFFFFF1
2FFFFFFFEDFFFFFFF0
1FFFFFFF41BFFFFFF0
0EFFFFFF108FFFFFE0
0BFFFFFF80134365B2
06FFFFFFFDC7100000
01DFFFFFFFFFE60000
003EFFFFFFFFFF9000
0002CFFFFFFFFFF600
0000059EFFFFFFFD00
0000000046DFFFFF10
00279988009FFFFF00
02EFFFFF406FFFFC00
00AFFFFF83EFFFF900
005FFFFFFFFFFFE100
000BFFFFFFFFFF6000
0004FFFFFFFFFE1000
00006EECADCAA80000
000003260360720000
000000010040000000
000000000010000000
ENDCHAR
STARTCHAR T
ENCODING 84
SWIDTH 622 0
DWIDTH 22 0
BBX 21 31 1 -4
BITMAP
0000134555555410000000
68CEFFFFFFFFFFFDA74300
4EFFFFFFFFFFFFFFFFFF10
09FFFFFFFFFFFFFFFFF900
04FFFFFFFFFFFFFFFFD100
00EFFFFFFFFFFFFFFF6000
00AFFFFFFFFFFFFFFFA000
007FFFFFFFFFFFFFFFA000
005FFFFFFFFFFFFFFF8000
004FFFFFFFFFFFFFFF5000
003FFFFFFFFFFFFFFF3000
002FFFFFFFFFFFFFFF1000
002FFFEFFFFFFDAEFE0000
00287406FFFFFA014A0000
00000001FFFFF800000000
00000000EFFFFB00000000
00000001FFFFFB00000000
00000000EFFFFB00000000
00000002FFFFF600000000
00000002FFFFF800000000
00000001FFFFF700000000
00000000FFFFF300000000
00000000EFFFF400000000
00000000CFFFF400000000
000000009FFFF600000000
000000009FFFF600000000
00000000AFFFF600000000
00000000BFFFF600000000
00000000CFFFE400000000
00000000CFDA6200000000
00000000B1142000000000
ENDCHAR
STARTCHAR U
ENCODING 85
SWIDTH 637 0
DWIDTH 23 0
BBX 23 30 0 -3
BITMAP
000257999930042111000000
4BFFFFFFFF0008FFFEB84000
00CFFFFFFF1009FFFFFFFB10
003FFFFFFF100BFFFFFFA000
001FFFFFFF100EFFFFFF3000
001FFFFFFC000CFFFFFF2000
000DFFFFFE000CFFFFFD0000
000BFFFFFF400DFFFFF90000
0008FFFFFF500DFFFFF60000
0006FFFFFF500EFFFFF20000
0004FFFFFF500EFFFFD00000
0002FFFFFF400FFFFFA00000
0000FFFFFF200FFFFF600000
0000DFFFFE001FFFFF400000
0000CFFFFB003FFFFF200000
0000AFFFFA004FFFFF100000
0000DFFFFC004FFFFF000000
0000DFFFFF006FFFFF000000
0000AFFFFF007FFFFC000000
00009FFFFF408FFFFB000000
00007FFFFF50AFFFF9000000
00002FFFFF60CFFFF6000000
00000FFFFFDAFFFFF3000000
00000CFFFFFFFFFFE1000000
000009FFFFFFFFFFA0000000
000004EFFF4CFFFF30000000
0000003FCE06664100000000
0000000A7105074000000000
0000000320010B2000000000
000000000000020000000000
ENDCHAR
STARTCHAR V
ENCODING 86
SWIDTH 570 0
DWIDTH 21 0
BBX 22 30 -1 -3
BITMAP
00124568A90005A7655553
16EFFFFFF70009FFFFFFD1
002DFFFFF8000DFFFFFF30
0002FFFFFA001FFFFFF900
0000EFFFFD003FFFFFF200
00008FFFFB005FFFFFB000
00005FFFFC008FFFFF6000
00004FFFFD00AFFFFF1000
00003FFFFE00DFFFFC0000
00002FFFFF10FFFFF80000
00001FFFFF33FFFFF40000
00000FFFFF45FFFFE00000
00000FFFFF18FFFFB00000
00000EFFFF1AFFFF800000
00000DFFFF2DFFFF600000
00000BFFFF4FFFFF300000
000008FFFF7FFFFF100000
000005FFFF6FFFFD000000
000004FFFFBFFFF9000000
000003FFFFFFFFF4000000
000001FFFFFFFFF0000000
000000BFFFFFFFD0000000
0000009FFFFFFFA0000000
0000005FFFFFFF70000000
0000002FFFFFFF30000000
0000001FFFFFFC00000000
0000000EFFFFF800000000
00000009FFFFF600000000
00000005EFF9F400000000
000000001458A000000000
ENDCHAR
STARTCHAR W
ENCODING 87
SWIDTH 777 0
DWIDTH 28 0
BBX 29 29 0 -1
BITMAP
000000000000033300000000000000
0000000112004FFD000A5731000000
000037CFDB007FFF100AFFFFB61000
15AEFFFFFD00AFFF300CFFFFFFE910
6BFFFFFFFC01EFFF702FFFFFFD4100
006EFFFFFF12FFFFA09FFFFFD20000
0003FFFFFF25FFFFD08FFFFF600000
00009FFFFF58FFFFF1EFFFFA000000
00001DFFFF7AFFFFF8FFFFE1000000
000009FFFF9CFFFFFEFFFF80000000
000008FFFFCEFFFFFFFFFF20000000
000007FFFFFFFFFFFFFFFB00000000
000004EFFFFFFFFFFFFFF600000000
0000008FFFFFFFFFFFFFF200000000
0000001EFFFFFFFFFFFFC000000000
00000008FFFFFFFFFFFFE100000000
00000004FFFFFFFFFFFFD000000000
00000001FFFFFFFFFFFF9000000000
00000000CFFFFEFFFFFF6000000000
000000009FFFFDCFFFFF2000000000
000000004FFFFBAFFFFE0000000000
000000002FFFF99FFFFD0000000000
000000000EFFF77FFFF90000000000
000000000AFFF54FFFE00000000000
0000000005FFF23FFFA00000000000
0000000001FFF01FFF600000000000
0000000000BDF12FFF400000000000
000000000033A357AF200000000000
000000000000320002000000000000
ENDCHAR
STARTCHAR X
ENCODING 88
SWIDTH 587 0
DWIDTH 21 0
BBX 22 30 0 -3
BITMAP
0000044541015310000000
358BDFFFFB10AFFEB85100
35EFFFFFFF20AFFFFFFFC2
002CFFFFFF21EFFFFFE820
0000BFFFFF45FFFFFB2000
00001FFFFFABFFFFB00000
00000AFFFFFFFFFE100000
000001EFFFFFFFF9000000
0000009FFFFFFFF3000000
0000002FFFFFFFF0000000
0000000DFFFFFFC0000000
0000000BFFFFFFA0000000
00000009FFFFFF80000000
0000000AFFFFFF50000000
00000009FFFFFF10000000
00000006FFFFFB00000000
00000003FFFFFA00000000
00000000BFFFFA00000000
00000001EFFFF800000000
00000004FFFFF900000000
00000007FFFFFC00000000
00000009FFFFFF00000000
0000000AFFEFFF20000000
0000000DFFAFFF80000000
0000002FFF2DFFD0000000
0000005FFF0AFFF2000000
000000AFFE09FFF5000000
000002FFFB07C8F8000000
000001B520000007000000
0000001000000001000000
ENDCHAR
STARTCHAR Y
ENCODING 89
SWIDTH 688 0
DWIDTH 25 0
BBX 26 29 0 -2
BITMAP
00014468882000058200000000
39DFFFFFFF900009FFCA651000
02AFFFFFFFF2000DFFFFFFD851
0003DFFFFFFB001EFFFFFFFC72
000008FFFFFF306FFFFFFF6000
000000AFFFFFB0DFFFFFF70000
0000003EFFFFF8FFFFFF700000
00000002DFFFFFFFFFFA000000
000000006FFFFFFFFFC1000000
000000001EFFFFFFFF50000000
0000000008FFFFFFFF30000000
0000000002FFFFFFFF10000000
0000000000DFFFFFFE00000000
00000000008FFFFFFC00000000
00000000001EFFFFFB00000000
000000000009FFFFF900000000
000000000005FFFFF800000000
000000000001FFFFF700000000
000000000000DFFFF600000000
000000000000BFFFF500000000
0000000000009FFFF400000000
0000000000007FFFF400000000
0000000000006FFFF300000000
0000000000005FFFF300000000
0000000000004FFFF200000000
0000000000002FFFF000000000
0000000000001FFFD000000000
0000000000000FFA7000000000
00000000000004100000000000
ENDCHAR
STARTCHAR Z
ENCODING 90
SWIDTH 695 0
DWIDTH 25 0
BBX 24 28 1 -1
BITMAP
000036899799987530000000
27AEFFFFFFFFFFFFFCC84000
9FFFFFFFFFFFFFFFFFFFFEB6
4FFFFFFFFFFFFFFFFFFFFFB1
0CFFFFFFFFFFFFFFFFFFFF20
04FFFFFFFFFFFFFFFFFFFA00
00BFFFFFFFFFFFFFFFFFF200
004FFFFFFFFFFFFFFFFFA000
000EFFFFFFFFFFFFFFFF3000
000AFFFFFFFFFFFFFFFB0000
0007FFFFFFFFFFFFFFF40000
0005FFFFFFFFFFFFFFB00000
0004FFF943BFFFFFFD200000
0004FA1002FFFFFFB2000000
000040000BFFFFFA00000000
000000005FFFFFB100000000
00000000AFFFFE3000000000
00000000DFFFF70000000000
00000003FFFFC10000000000
00000006FFFF400000000000
0000000EFFFB000000000000
0000003FFFF2000000000000
000000DFFFFFFEC810000000
000006FFFFFFFFFF40000000
00000CFFFFFFFFFA00000000
00000EFFFFFFFFF600000000
00000BFC8FFFFFE100000000
0000006205249E5000000000
ENDCHAR
STARTCHAR bracketleft
ENCODING 91
SWIDTH 410 0
DWIDTH 15 0
BBX 13 33 2 -2
BITMAP
6EEEDCCBBB6000
7FFFFFFFFFF700
7FFFFFFFFFF800
7FFFFFFFFFF800
7FFFFFFFFFF800
7FFFFFFFFFF800
7FFFFFFFFFF800
6FFFFD76536400
7FFFFD00000000
BFFFFB00000000
AFFFFB00000000
AFFFFB00000000
AFFFFB00000000
BFFFFC00000000
CFFFFC00000000
DFFFFC00000000
AFFFFC00000000
CFFFFD00000000
FFFFFD00000000
FFFFFD00000000
EFFFFD00000000
EFFFFD00000000
DFFFFD00000000
BFFFFD00000000
AFFFFD00000000
7FFFFD00000000
5FFFFE00000000
2FFFFFEEFEFF50
0FFFFFFFFFFB00
0DFFFFFFFFF500
0AFFFD3EEFC000
07B4250A870000
00000000100000
ENDCHAR
STARTCHAR backslash
ENCODING 92
SWIDTH 292 0
DWIDTH 11 0
BBX 11 33 0 -4
BITMAP
001000000000
BEC000000000
7FF400000000
4FF900000000
3FFE00000000
0DFF50000000
07FF90000000
04FF90000000
04FFA0000000
01EFF1000000
00BFF3000000
006FF8000000
001FFE100000
000CFFA00000
0007FFE00000
0002FFF30000
0000DFF70000
00008FFA0000
00002FFE0000
00001FFF2000
00000CFF6000
000005FF9000
000003FF7000
000000BF8000
0000007FD000
0000003FF300
0000000EF900
00000009FE00
00000003FF50
00000001FF90
00000000DFC0
000000009780
000000002000
ENDCHAR
STARTCHAR bracketright
ENCODING 93
SWIDTH 407 0
DWIDTH 15 0
BBX 13 32 0 -1
BITMAP
01CDDEFFFDBC00
0DFFFFFFFFFE00
0EFFFFFFFFFE00
0EFFFFFFFFFE00
0EFFFFFFFFFE00
0EFFFFFFFFFE00
1EFFFFFFFFFE00
0443568FFFFD00
0000004FFFFF10
0000002FFFFF20
0000001FFFFF30
0000001FFFFF30
0000000FFFFF30
0000000EFFFF40
0000000DFFFF50
0000000CFFFF60
0000000CFFFF30
0000000CFFFF60
0000000CFFFF90
0000000CFFFF90
0000000CFFFF80
0000000CFFFF80
0000000CFFFF60
0000000DFFFF50
0000000DFFFF40
0000000EFFFF40
0000000EFFFF40
8FEFFEEFFFFF50
4FFFFFFFFFFF50
3FFFFFFFFFFF50
2EEFFFFFFFFF60
0126666514CE40
ENDCHAR
STARTCHAR asciicircum
ENCODING 94
SWIDTH 523 0
DWIDTH 19 0
BBX 17 14 1 25
BITMAP
000003210243000000
00004FFFFFFC000000
0000AFFFFFFF500000
0002FFFFFFFFD00000
0009FFFFFFFFF60000
001EFFFFFFFFFD0000
007FFFFE8FFFFF6000
00DFFFF60CFFFFD000
05FFFFC003FFFFF600
0CFFFF50008FFFFD00
3FFFFC00001DFFFF60
7FFFF3000004FFFC10
05EF500000008FB100
002500000000061000
ENDCHAR
STARTCHAR underscore
ENCODING 95
SWIDTH 452 0
DWIDTH 16 0
BBX 14 6 1 -1
BITMAP
29999756764894
4FFFFFFFFFFFF5
4FFFFFFFFFFFF5
4FFFFFFFFFFFF5
4FFFFFFFFFFFF5
3BCCCCCEA99DD3
ENDCHAR
STARTCHAR grave
ENCODING 96
SWIDTH 444 0
DWIDTH 16 0
BBX 13 10 1 27
BITMAP
00002000000000
0001E900000000
0009FFB1000000
000AFFFD200000
005FFFFFE40000
09FFFFFFFF6000
17BFFFFFFFFB20
00015AEFFFFFA0
000000037BFF80
00000000001520
ENDCHAR
STARTCHAR a
ENCODING 97
SWIDTH 479 0
DWIDTH 17 0
BBX 18 31 0 -4
BITMAP
013578ABCCC8ACDDC5
4EFFFFFFFFFFFFFF40
04EFFFFFFFFFFFF700
004FFFFFFFFFFFF100
0005FFFFFFFFFFB000
0005FFFFFFFFFF9000
0004FFFFFFFFFF8000
0002FFFFFFFFFF8000
0000EFFFFFFFFF8000
0001EFFFFFFFFF8000
0005FFFFFFFFFF7000
0004FFFFFFFFFF5000
0002FFFFFFFFFF3000
0000EFFFFEFFFE2000
0000DFFFFBFFFF3000
0001FFFFB8FFFF6000
0004FFFF87FFFF8000
0005FFFF54FFFF5000
0007FFFF33FFFF9000
0008FFFF03FFFFA000
0008FFFF01FFFF7000
0005FFFD99FFFF6000
0004FFFFFFFFFF5000
000BFFFFFFFFFF3000
0009FFFFEFFFFF1000
0005FFFF45FFFF0000
0006FFFF10CFFE0000
0007FFF900AFFE0000
0006FFF400AEFD0000
0002FFC10002450000
000012100000000000
ENDCHAR
STARTCHAR b
ENCODING 98
SWIDTH 610 0
DWIDTH 22 0
BBX 22 30 0 -3
BITMAP
0000000013345555530000
00277BDFFFFFFFFFFFC100
1BFFFFFFFFFFFFFFFFFB00
02EFFFFFFFFFFFFFFFFF40
006FFFFFFFFFFFFFFFFF90
000CFFFFFFFFFFFFFFFFC0
0004FFFFFFFFFFFFFFFFE0
00007FFFFFFFFFFFFFFFF0
00005FFFFFFFFFFFFFFFF1
00007FFFFFFFFFFFFFFFF1
00005FFFFFFFFFFFFFFFE0
00002FFFFFFFFFFFFFFFA0
00000EFFFFF512DFFFFF50
00000BFFFFE300AFFFFE10
000009FFFFF500AFFFFA00
000008FFFFF500DFFFF400
000008FFFFFFC7DFFFD000
000007FFFFFFFFFFFF5000
000006FFFFFFFFFFE70000
000005FFFFFFFFFFF90000
000002FFFFFDEFFFFF6000
000000BFFFF302FFFFC000
000000EFFFF200EFFFC000
0000006FFFF300EFFF9000
0000006FFFF301FFFF6000
0000006FFFFDA9FFFF4000
0000002FFFFFFFFFFE1000
0000004FFEFFFFFFF70000
0000001C10A68EFFD10000
0000000000000158400000
ENDCHAR
STARTCHAR c
ENCODING 99
SWIDTH 534 0
DWIDTH 19 0
BBX 19 30 0 -3
BITMAP
000000268CCB95000000
000019FFFFFFFFC20000
0001CFFFFFFFFFFD3000
005DFFFFFFFFFFFFF400
01EFFFFFFFFFFFFFFB00
07FFFFFFFFFFFFFFFF80
0CFFFFFFFFFFFFFFFF30
0EFFFFFFFFFFFFFFFF30
1FFFFFFFFFFFFFFFFF50
0FFFFFFFFFFFFFFFFF50
0DFFFFFFFFFFFFFFFF40
0AFFFFFFFFFFFFFFFF30
07FFFFFFFA2EFFFFFF10
03FFFFFFE005FFFFFF00
00EFFFFFA000EFFFFD00
009FFFFFE000EFFFFB00
009FFFFFE00024767700
008FFFFFA00000000000
005FFFFFA00000000000
002FFFFFB00000000000
000EFFFFD001DD830000
0009FFFFF107FFFF4000
0007FFFFF40BFFFE0000
0004FFFFF82FFFFD0000
0000CFFFFECFFFFB0000
00005FFFFFFFFFF50000
00001EFFFFFFFF800000
0000078BBDCFF7000000
000000057267B0000000
00000000000100000000
ENDCHAR
STARTCHAR d
ENCODING 100
SWIDTH 573 0
DWIDTH 21 0
BBX 21 32 0 -5
BITMAP
0000001468874100000000
059BCEFFFFFFFFDA100000
13FFFFFFFFFFFFFFC10000
02FFFFFFFFFFFFFFFC1000
00DFFFFFFFFFFFFFFFC100
007FFFFFFFFFFFFFFFF800
002FFFFFFFFFFFFFFFFD00
000CFFFFFFFFFFFFFFFF10
0007FFFFFFFFFFFFFFFF30
0003FFFFFFFFFFFFFFFF30
0000EFFFFFFFFFFFFFFF20
0000AFFFFFFFFFFFFFFF00
00006FFFFFFFFFFFFFFC00
00003FFFFFE619FFFFF900
00000FFFFFD002FFFFF500
00000CFFFFB000EFFFF100
00000AFFFFB000AFFFC000
000007FFFFC000AFFF7000
000005FFFF8000AFFF2000
000003FFFFB000EFFD0000
000001FFFFC000FFF90000
000000EFFFA004FFF60000
000000DFFF9008FFF30000
000000CFFFD009FFF10000
000000AFFFF5BFFFE00000
000000AFFFFEFFFF900000
0000009FFFFFFFFF600000
0000009FFFFFFFFF200000
0000007F824FFFFA000000
0000005D000DEEA1000000
0000004700023100000000
0000000100000000000000
ENDCHAR
STARTCHAR e
ENCODING 101
SWIDTH 632 0
DWIDTH 23 0
BBX 22 30 0 -3
BITMAP
0000002456677654310000
0059CFFFFFFFFFFFFFDB84
1DFFFFFFFFFFFFFFFFFFF3
04FFFFFFFFFFFFFFFFFF80
008FFFFFFFFFFFFFFFFE10
001EFFFFFFFFFFFFFFF800
0008FFFFFFFFFFFFFFF200
0008FFFFFFFFFFFFFFE000
0005FFFFFFFFFFFFFFA000
0003FFFFFFFFFFFFFF9000
0001FFFFFFFFFFFFFF8000
0000DFFFFFFFFFFFFF6000
0000AFFFFFE68ABFFF3000
00008FFFFFF100014A0000
00005FFFFFF10000000000
00003FFFFFF11111000000
00000FFFFFFFFFFF400000
00000AFFFFFFFFFF400000
00000AFFFFFFFFFF400000
000009FFFFFFFFFF300000
000007FFFFFDCCDF100000
000005FFFFF00006000000
000003FFFFF00000000000
000001FFFFF5A876500000
000000DFFFFDFFFFC00000
000000AFFFFFFFFF900000
0000007FFFFFFFFF700000
0000003F30BFFCBE600000
0000001800242007500000
0000000000000002200000
ENDCHAR
STARTCHAR f
ENCODING 102
SWIDTH 559 0
DWIDTH 20 0
BBX 19 31 0 -4
BITMAP
00023255550132100000
2BEFFFFFFFEEFFFEC950
06FFFFFFFFFFFFFFFF30
006FFFFFFFFFFFFFFA00
0008FFFFFFFFFFFFF500
0002FFFFFFFFFFFFF100
0000BFFFFFFFFFFFE000
0000AFFFFFFFFFFFB000
0000AFFFFFFFFFFFA000
0000AFFFFFFFFFFF8000
0000AFFFFFFFFFFF7000
00008FFFFFFFFFFF6000
00004FFFFFBDBFFF5000
00001FFFFF60004A8000
00000FFFFF6111100000
00000FFFFFFFFFE00000
00000FFFFFFFFFD00000
00000FFFFFFFFFD00000
00000DFFFFFFFFC00000
00000CFFFFEBABE50000
000007FFFFA000120000
000009FFFF9000000000
00000AFFFFA000000000
00000CFFFFA000000000
00000FFFFFA000000000
00000FFFFFB000000000
00000FFFFFC000000000
00000E48FAB000000000
00000800D04000000000
00000200A07000000000
00000000102000000000
ENDCHAR
STARTCHAR g
ENCODING 103
SWIDTH 546 0
DWIDTH 20 0
BBX 19 31 1 -4
BITMAP
00000265333200000000
0007EFFEEFFFD7000000
005FFFFFFFFFFFD20000
1BFFFFFFFFFFFFFE2000
7FFFFFFFFFFFFFFFB000
8FFFFFFFFFFFFFFFF400
CFFFFFFFFFFFFFFFF900
EFFFFFFFFFFFFFFFFD00
DFFFFFFFFFFFFFFFFF00
BFFFFFFFFFFFFFFFFF10
9FFFFFFFFFFFFFFFFE00
7FFFFFFFFFFFFFFFFB00
4FFFFFFA3BFFFFFFF700
2FFFFFF700DFFFFFF400
0EFFFFF3007FFFFFF100
0AFFFFF3004FFFFFE000
0AFFFFE100178BDFE000
05FFFFF2032000012000
00EFFFE208FEB7410000
00BFFFF807FFFFFFC000
007FFFFB06FFFFFFB000
005FFFFD05FFFFFF9000
003FFFFE1476FFFF7000
002FFFFF6005FFFF7000
000DFFFFE69EFFFF6000
0009FFFFFFFFFFFF5000
0004FFFFFFFFFFFF4000
00009FFFFFFFFFFF1000
00001CFCEEFFBFD40000
0000008291A407100000
00000000100000000000
ENDCHAR
STARTCHAR h
ENCODING 104
SWIDTH 730 0
DWIDTH 26 0
BBX 26 30 0 -3
BITMAP
0000000489BC103CB9B9676100
25679BEFFFF8001FFFFFFFFFD3
04DFFFFFFFE1000EFFFFFFFF90
004FFFFFFFF10009FFFFFFFE10
000CFFFFFFF10002FFFFFFF800
000AFFFFFFF00009FFFFFFF200
0009FFFFFFF0000DFFFFFFC000
0007FFFFFFF0000FFFFFFF6000
0005FFFFFFE0000EFFFFFF2000
0003FFFFFFE0000EFFFFFF0000
0000EFFFFFD0000DFFFFFE0000
0000BFFFFFD0000DFFFFFA0000
00008FFFFFD0000DFFFFF50000
00005FFFFFC0000FFFFFE10000
00002FFFFFD6669FFFFFB00000
00000EFFFFFFFFFFFFFF900000
00000CFFFFFFFFFFFFFF400000
00000AFFFFFFFFFFFFFF400000
000009FFFFFFFEFFFFFF400000
000008FFFFF411BFFFFF200000
000007FFFFE000DFFFFF000000
000006FFFFF101FFFFF9000000
000004FFFFF200FFFFF8000000
000003FFFFF200FFFFF6000000
000001FFFFF201FFFFF4000000
000000EFFFF206FFFFF2000000
000000DFFFD104CFFFF0000000
000003E9121000DFDEE0000000
000000200000001D23C0000000
00000000000000000220000000
ENDCHAR
STARTCHAR i
ENCODING 105
SWIDTH 412 0
DWIDTH 15 0
BBX 14 29 0 -2
BITMAP
00257996895210
3DFFFFFFFFFFF9
05FFFFFFFFFFD0
009FFFFFFFFFA0
0008FFFFFFFF20
0001EFFFFFFB00
00008FFFFFFC00
00008FFFFFFA00
0000AFFFFFF600
0000BFFFFFF300
0000BFFFFFF000
0000CFFFFFD000
0000CFFFFFB000
0000BFFFFF9000
00009FFFFF8000
00007FFFFF9000
00005FFFFFB000
00002FFFFFC000
00000EFFFF6000
00000CFFFF6000
000009FFFF2000
000008FFFF3000
000008FFFF2000
000007FFFF1000
000006FFFF0000
000005FFFE0000
000003E7ED0000
00000040BD1000
00000000011000
ENDCHAR
STARTCHAR j
ENCODING 106
SWIDTH 458 0
DWIDTH 17 0
BBX 17 29 -1 -2
BITMAP
000005599864100000
000006FFFFFFFC9510
000000DFFFFFFFFC40
0000006FFFFFFFF500
0000002FFFFFFFF700
0000000EFFFFFFF200
0000000AFFFFFFD000
00000005FFFFFF6000
00000005FFFFFF5000
00000005FFFFFF6000
00000005FFFFFF5000
00000005FFFFFF4000
00000005FFFFFF4000
00000005FFFFFF3000
00000005FFFFFF2000
00000001DFFFFF1000
00000000EFFFFC0000
00000300FFFFFA0000
1468B600FFFFF90000
AFFFF700FFFFFA0000
8FFFFB00CFFFF80000
2FFFFF00EFFFF60000
0BFFFF53FFFFF30000
0CFFFFEEFFFFF10000
05FFFFFFFFFFA00000
00BFFFFFFFFF400000
0019DEFFFFFF300000
00000155CD5C100000
000000000103100000
ENDCHAR
STARTCHAR k
ENCODING 107
SWIDTH 636 0
DWIDTH 23 0
BBX 23 29 0 -2
BITMAP
000001233083033788751000
147BEFFFDCF207FFFFFFFA20
3CFFFFFFFFE009FFFFFF7000
007EFFFFFFC00DFFFFF60000
000DFFFFFFC03FFFFF700000
0009FFFFFFC07FFFF8000000
0002FFFFFFE09FFF90000000
0000BFFFFFF0AFFF80000000
00004FFFFFF1CFFF70000000
00000DFFFFF3DFFF50000000
000009FFFFF4EFFF10000000
000008FFFFF6FFF600000000
000008FFFFF9FFF100000000
000007FFFFFCFFB000000000
000005FFFFFFFF6000000000
000004FFFFFFFF5000000000
000003FFFFFFFF5000000000
000000DFFFFFFFB000000000
000000AFFFFFFFF200000000
0000007FFFFFFFF800000000
0000007FFFFEFFFC00000000
0000005FFFF7DFFF20000000
0000001FFFE08FFF80000000
0000001FFFC01EFFE0000000
0000001FFFC008FFF4000000
0000000DFFD002FFF8000000
0000000CFFE004FFFE100000
00000006B3B201BC8B200000
000000000000001300000000
ENDCHAR
STARTCHAR l
ENCODING 108
SWIDTH 438 0
DWIDTH 16 0
BBX 17 30 0 -3
BITMAP
00015777779BDD9000
27BFFFFFFFFFE70000
02DFFFFFFFFF200000
004FFFFFFFF9000000
000BFFFFFFF2000000
000DFFFFFFC0000000
0009FFFFFFF2000000
0005FFFFFFF0000000
0006FFFFFFC0000000
0003FFFFFFA0000000
0002FFFFFFB0000000
0002FFFFFFB0000000
0000AFFFFFC0000000
00005FFFFFB0000000
00000FFFFFA0000000
00000FFFFF90000000
00000FFFFF80000000
00000EFFFF70000000
00000DFFFF70000000
00000BFFFF70000000
00000AFFFF80000000
000008FFFFB3000000
000006FFFFFFECCDA0
000005FFFFFFFFFF40
000003FFFFFFFFFF10
000001FFFFFFFFFC00
000000FFFF79FFF900
000000D92526AFF600
000000B500001CB200
000000420000032000
ENDCHAR
STARTCHAR m
ENCODING 109
SWIDTH 770 0
DWIDTH 28 0
BBX 27 31 0 -3
BITMAP
0000000000000002200000000000
000000000369600CC7BCB8520000
0000259CFFFF5008FFFFFFFFD950
149DFFFFFFFF500AFFFFFFFFF820
0AFFFFFFFFFF802FFFFFFFFF8000
009FFFFFFFFFA05FFFFFFFFA0000
000CFFFFFFFFE09FFFFFFFF80000
000AFFFFFFFFF2CFFFFFFFF40000
0009FFFFFFFFF5FFFFFFFFC00000
000BFFFFFFFFFDFFFFFFFFB00000
000DFFFFFFFFFFFFFFFFFF800000
0003FFFFFFFFFFFFFFFFFF600000
0002FFFFFFFFFFFFFFFFFF300000
0000FFFFFFFFFFFFFFFFFF100000
0002EFFFFFFFFFFFFFFFFE000000
0001DFFFFFFFFFFFFFFFFC000000
0001AFFFFFFFFFFFFFFFF9000000
00009FFFFFDFFFFDEFFFF7000000
00007FFFFF9FFFF8FFFFF4000000
00005FFFFF6FFFF6FFFFF1000000
00003FFFFF3FFFD4FFFFD0000000
00001FFFFF1CFFB6FFFFA0000000
00000DFFFF1DFF78FFFF60000000
00000CFFFF5BFF4AFFFE10000000
00000CFFFF47FD0CFFFA00000000
00000BFFFF15FA0DFFF600000000
000008FFFF04F60FFFF400000000
000004E44E12E31D4DE200000000
000002E000012004057000000000
000003E000000000002000000000
0000015000000000000000000000
ENDCHAR
STARTCHAR n
ENCODING 110
SWIDTH 664 0
DWIDTH 24 0
BBX 24 31 0 -4
BITMAP
13456789A891037422222332
1EFFFFFFFFF201FFFFFFFFE2
07FFFFFFFFF400DFFFFFFF70
00DFFFFFFFF900AFFFFFFD00
006FFFFFFFFD006FFFFFF700
001FFFFFFFFF607FFFFFE100
000EFFFFFFFF908FFFFFA000
000DFFFFFFFFD0AFFFFF6000
000DFFFFFFFFF2CFFFFF3000
000CFFFFFFFFF6EFFFFF1000
000CFFFFFFFFFDFFFFFE0000
000AFFFFFFFFFFFFFFFC0000
0008FFFFFFFFFFFFFFFA0000
0007FFFFFFFFFFFFFFF80000
0005FFFFFFFFFFFFFFF60000
0003FFFFFFFFFFFFFFF40000
0001FFFFFFFFFFFFFFF10000
0000DFFFFEFFFFFFFFE00000
00008FFFF9EFFFFFFFA00000
00007FFFF8BFFFFFFF800000
00006FFFF87FFFFFFF600000
00005FFFF42FFFFFFF300000
00003FFFF50EFFFFFD000000
00002FFFF70AFFFFFB000000
00000FFFF408FFFFF9000000
00000DFFF403FFFFE2000000
00000CFFF402FFFFD0000000
00000AFFF401FFFDB0000000
000008AA1400DEF670000000
000000010000436940000000
000000000000003000000000
ENDCHAR
STARTCHAR o
ENCODING 111
SWIDTH 545 0
DWIDTH 20 0
BBX 18 30 1 -3
BITMAP
000002587747300000
0002BFFFFFFFFA1000
004EFFFFFFFFFFD400
03FFFFFFFFFFFFFF10
1DFFFFFFFFFFFFFFB2
8FFFFFFFFFFFFFFFFA
CFFFFFFFFFFFFFFFF9
EFFFFFFFFFFFFFFFF9
DFFFFFFFFFFFFFFFFB
BFFFFFFFFFFFFFFFFE
8FFFFFFFFFFFFFFFFC
7FFFFFFFDEFFFFFFFB
5FFFFFFC14FFFFFFFD
3FFFFFF400EFFFFFFB
1FFFFFF100CFFFFFF8
0EFFFFE000CFFFFFF5
0CFFFFE0008FFFFFF3
0AFFFFE0007FFFFFE0
07FFFFF0009FFFFFA0
04FFFFE000BFFFFF50
01FFFFF201DFFFFF10
00CFFFF702FFFFFB00
007FFFFB04FFFFF600
004FFFFF7CFFFFF300
002FFFFFFFFFFFD100
000BFFFFFFFFFF7000
000377FFEFFFFD0000
0000008819FFD70000
0000001006E4560000
000000000030340000
ENDCHAR
STARTCHAR p
ENCODING 112
SWIDTH 557 0
DWIDTH 20 0
BBX 19 29 1 -2
BITMAP
00124566354365100000
BDFFFFFFFFFFFFF91000
7FFFFFFFFFFFFFFFB000
06FFFFFFFFFFFFFFF700
008FFFFFFFFFFFFFFD00
003FFFFFFFFFFFFFFF10
001FFFFFFFFFFFFFFF30
000FFFFFFFFFFFFFFE20
000EFFFFFFFFFFFFFC00
000EFFFFFFFFFFFFFB00
000DFFFFFFFFFFFFFA00
000CFFFFFC8EFFFFF800
000AFFFFFB00AFFFF600
0008FFFFF8006FFFF400
0006FFFFF6005FFFF100
0004FFFFF8007FFFE000
0002FFFFF700AFFFA000
0000FFFFFB8CCFFF7000
0000DFFFFFFFFFFF3000
00009FFFFFFFFFFC0000
00009FFFFFEFFFF50000
00006FFFFD257A600000
00006FFFFE0000000000
00004FFFFE0000000000
00004FFFFB0000000000
00003FFFFD0000000000
00002FFFFD0000000000
00000EFEFE0000000000
00000641530000000000
ENDCHAR
STARTCHAR q
ENCODING 113
SWIDTH 562 0
DWIDTH 20 0
BBX 20 32 0 -5
BITMAP
000000016AA975100000
0000029FFFFFFFE70000
00029FFFFFFFFFFE7100
007FFFFFFFFFFFFFFB00
01EFFFFFFFFFFFFFFF60
00EFFFFFFFFFFFFFFFC0
06FFFFFFFFFFFFFFFFF1
1DFFFFFFFFFFFFFFFFF2
0DFFFFFFFFFFFFFFFFF3
1FFFFFFFFFFFFFFFFFF4
1FFFFFFFFFDDFFFFFFF6
0EFFFFFFFD00AFFFFFF3
0AFFFFFFF8001FFFFFF2
07FFFFFFF7005EFFFFF1
03FFFFFFF5001EFFFFF1
00DFFFFFF40009FFFFF0
008FFFFFF20008FFFFF0
005FFFFFF10007FFFFE0
008FFFFFF40009FFFFC0
002EFFFFF8000AFFFFA0
000EFFFFFC02EFFFFF90
0007FFFFFF33FFFFFF60
0000DFFFFFAAFFFFFF10
00006FFFFFFFFFFFF900
000009FFFFFFFFFFF900
0000009FFFFFFFFFFF50
00000008FFFFFFFFFFFB
000000019FFFFEEFFFF4
000000000133208FFF50
0000000000000006F900
0000000000000000C300
00000000000000006000
ENDCHAR
STARTCHAR r
ENCODING 114
SWIDTH 616 0
DWIDTH 22 0
BBX 22 30 0 -3
BITMAP
0000011587875341000000
1568BFEFFFFFFFFEA50000
0CFFFFFFFFFFFFFFFFD700
02EFFFFFFFFFFFFFFFFFB0
003EFFFFFFFFFFFFFFFFF5
0005FFFFFFFFFFFFFFFFF8
0000BFFFFFFFFFFFFFFFF7
00007FFFFFFFFFFFFFFFF5
00005FFFFFFFFFFFFFFFF3
00005FFFFFFFFFFFFFFFF0
00003FFFFFFFFFFFFFFFC0
00001FFFFFFC7AFFFFFF90
00000EFFFFF400AFFFFF60
00000DFFFFF4005FFFFF30
00000BFFFFF3008FFFFF00
00000DFFFFF500CFFFFD00
00000AFFFFFFBBFFFFFC00
000008FFFFFFFFFFFFF700
000005FFFFFFFFFFFFE000
000001FFFFFFFFFFFF9000
000004FFFFFFFFFFF50000
000001FFFFF47FFFF50000
000002FFFFF22FFFF70000
000002FFFFE22FFFF80000
000000FFFFF41FFFF80000
000000FFFFF30DFFF70000
000000FFFFF11FFFF80000
000000EFFCC00EFFF90000
000000C55020039CFB0000
00000020000000007A0000
ENDCHAR
STARTCHAR s
ENCODING 115
SWIDTH 481 0
DWIDTH 17 0
BBX 16 29 1 -2
BITMAP
0000027687400000
00019FFFFFFE5000
002DFFFFFFFFF800
01DFFFFFFFFFFF80
09FFFFFFFFFFFFF6
2FFFFFFFFFFFFFFA
8FFFFFFFFFFFFFF5
CFFFFFFFFFFFFFF4
EFFFFFFFFFFFFFF3
FFFFFFFFFFFFFFF1
FFFFFFFFFFFFFFF0
FFFFFFFEFFFFFFE0
FFFFFFD18FFFFFD0
DFFFFFC02EFFFFC0
9FFFFFE106A9CEA0
5FFFFFFB75100460
1FFFFFFFFFE40000
09FFFFFFFFFF3000
00AFFFFFFFFFB000
0006CEFFFFFFF200
0000028AEFFFF600
000000205FFFF800
03BFFFC01FFFF800
08FFFFE03FFFF400
02FFFFFBCFFFD000
009FFFFFFFFF5000
001FFFFFFFFD0000
000AFFFFFFF60000
0001CE8725420000
ENDCHAR
STARTCHAR t
ENCODING 116
SWIDTH 683 0
DWIDTH 25 0
BBX 24 32 0 -5
BITMAP
000000479999999998530000
015BCFFFFFFFFFFFFFFFEB82
1DFFFFFFFFFFFFFFFFFFFFE1
03FFFFFFFFFFFFFFFFFFFF70
008FFFFFFFFFFFFFFFFFFD00
002FFFFFFFFFFFFFFFFFF500
000BFFFFFFFFFFFFFFFFF300
0007FFFFFFFFFFFFFFFFF300
0002FFFFFFFFFFFFFFFFF200
0000FFFFFFFFFFFFFFFFF100
0000CFFFFFFFFFFFFFFFE000
0000AFFFFFFFFFFFFFFFD000
00009FFFEBFFFFFF6DFFB000
00009B8405FFFFFF20137000
0000300001FFFFFF10000000
0000000000EFFFFF30000000
0000000000EFFFFF40000000
0000000000CFFFFF40000000
0000000000CFFFFF30000000
0000000000BFFFFF30000000
00000000009FFFFF30000000
00000000008FFFFF10000000
00000000007FFFFF00000000
00000000004FFFFF20000000
00000000001FFFFF10000000
00000000001FFFFE00000000
00000000003FFFFD00000000
00000000001FFFFD00000000
00000000000FFFFD00000000
00000000000FFFFD00000000
00000000000114B900000000
000000000000002500000000
ENDCHAR
STARTCHAR u
ENCODING 117
SWIDTH 708 0
DWIDTH 26 0
BBX 26 28 0 -1
BITMAP
00000146777400011000000000
279BEFFFFFF7000BFEC7861000
01DFFFFFFFF6000AFFFFFFFA41
003FFFFFFFF4000CFFFFFFFFD4
000EFFFFFFF7002FFFFFFFFD20
000CFFFFFFF4001DFFFFFFF300
0008FFFFFFF6000DFFFFFFF100
0004FFFFFFFA000BFFFFFFA000
0001FFFFFFFB000CFFFFFF4000
0000DFFFFFFC000DFFFFFD0000
0000AFFFFFFD000DFFFFF90000
00007FFFFFFD000EFFFFF50000
00005FFFFFFD000FFFFFF30000
00002FFFFFFA000FFFFFF00000
00000FFFFFF7002FFFFFD00000
00000EFFFFF7006FFFFFC00000
00000DFFFFF7006FFFFFC00000
00000DFFFFF9005FFFFFB00000
00000DFFFFFC006FFFFF900000
000006FFFFFF008FFFFF500000
000004FFFFFF10CFFFFF100000
000000AFFFFF20DFFFFD000000
0000007FFFFFB9FFFFFD000000
0000004FFFFFFFFFFFF8000000
0000001FFFFFFFFFFFF3000000
0000000BEFFD4BFFFFC0000000
000000000AAB029A8940000000
00000000000200030000000000
ENDCHAR
STARTCHAR v
ENCODING 118
SWIDTH 644 0
DWIDTH 23 0
BBX 23 30 0 -3
BITMAP
000134556820006765320000
16EFFFFFFD0000DFFFFFFE70
006FFFFFFF2001FFFFFFF400
000CFFFFFF2006FFFFFF8000
0006FFFFFF300BFFFFFE1000
0002EFFFFF700EFFFFF90000
00009FFFFFB00CFFFFF40000
00006FFFFFC00EFFFFE00000
00003FFFFFC00EFFFFB00000
00000EFFFFD00FFFFF800000
00000CFFFFF12FFFFF600000
000009FFFFF41FFFFF300000
000006FFFFF62FFFFE000000
000003FFFFF74FFFFB000000
000000EFFFF75FFFF9000000
000000BFFFF86FFFF5000000
0000007FFFF97FFFF2000000
0000003FFFF99FFFE0000000
0000000DFFFCCFFFA0000000
00000007FFFFFFFF90000000
00000003FFFFFFFF60000000
00000000EFFFFFFF30000000
00000000AFFFFFFD00000000
000000005FFFFFF700000000
000000001EFFFFF500000000
0000000007FFFFF400000000
0000000000EFFFE100000000
0000000000EFFE9000000000
0000000000DCF31000000000
000000000041100000000000
ENDCHAR
STARTCHAR w
ENCODING 119
SWIDTH 704 0
DWIDTH 25 0
BBX 26 28 0 -1
BITMAP
00000010100388300401000000
0148ACDEA008FF6008CDA84000
3EFFFFFFE00AFF9007FFFFFEA3
03DFFFFFF01DFFE109FFFFFA10
000AFFFFF40EFFF40DFFFFF100
0001FFFFF43FFFF80EFFFF9000
0001CFFFF66FFFFB2FFFFF5000
00003FFFFB7FFFFE6FFFFC0000
00002FFFFE8FFFFFDFFFF50000
00000EFFFFBFFFFFFFFFE00000
00000BFFFFEFFFFFFFFF900000
000007FFFFFFFFFFFFFF400000
000000DFFFFFFFFFFFFF100000
0000006FFFFFFFFFFFFD000000
0000000EFFFFFFFFFFFC000000
0000000CFFFFFFFFFFFD000000
00000008FFFFFFFFFFF6000000
00000005FFFFFFFFFFF6000000
00000001FFFFFCFFFFF7000000
00000000CFFFF7EFFFF7000000
000000008FFFF4DFFFF7000000
000000004FFFF3BFFFF4000000
000000000EFFF2AFFFC0000000
000000000AFFF08FFFA0000000
0000000006FFC04FFF90000000
0000000002EFD05FFF90000000
000000000035005AAD70000000
00000000000000110100000000
ENDCHAR
STARTCHAR x
ENCODING 120
SWIDTH 599 0
DWIDTH 22 0
BBX 22 29 0 -2
BITMAP
0000057772007642000000
57ADFFFFFE307FFFEB8410
03BFFFFFFF309FFFFFFFE4
0008FFFFFF50EFFFFFE710
00007FFFFF74FFFFFB1000
00000DFFFFDAFFFFB00000
000006FFFFFFFFFF200000
000000CFFFFFFFFA100000
0000006FFFFFFFF5000000
0000000EFFFFFFF2000000
0000000AFFFFFFE0000000
00000009FFFFFFC0000000
00000007FFFFFFA0000000
00000009FFFFFF70000000
00000006FFFFFF30000000
00000003FFFFFC00000000
00000001CFFFFD00000000
000000008FFFFC00000000
00000000EFFFF900000000
00000003FFFFFB00000000
00000004FFFFFE00000000
00000007FFFFFF20000000
00000008FFDFFF40000000
0000000BFFADFFB0000000
0000000FFF39FFF1000000
0000003FFF27FFF5000000
0000008FFF26FFF8000000
000000FFE934B5CB000000
0000009410000006000000
ENDCHAR
STARTCHAR y
ENCODING 121
SWIDTH 604 0
DWIDTH 22 0
BBX 22 30 0 -3
BITMAP
0000426730000550000000
17CEFFFFE2000BFD964000
01BFFFFFFA003FFFFFFD71
0008FFFFFF203FFFFFF900
00004DFFFF70BFFFFF8000
000003FFFFB3FFFFFB0000
000001FFFFE9FFFFE10000
0000008FFFFFFFFF500000
00000009FFFFFFF9000000
00000008FFFFFFF5000000
00000005FFFFFFF3000000
00000001FFFFFFF1000000
00000000DFFFFFF0000000
000000009FFFFFD0000000
000000006FFFFFC0000000
000000002FFFFFB0000000
000000000EFFFFA0000000
000000000BFFFF80000000
0000000008FFFF70000000
0000000007FFFF50000000
0000000007FFFF50000000
0000000008FFFF60000000
0000000008FFFF50000000
0000000009FFFF40000000
0000000009FFFF20000000
0000000009FFFC00000000
0000000008FFFA00000000
0000000006FFFB00000000
0000000003D61500000000
0000000000200000000000
ENDCHAR
STARTCHAR z
ENCODING 122
SWIDTH 622 0
DWIDTH 22 0
BBX 20 30 1 -3
BITMAP
00026999799999632000
58DFFFFFFFFFFFFFFE96
9FFFFFFFFFFFFFFFFFFE
2FFFFFFFFFFFFFFFFFFA
0AFFFFFFFFFFFFFFFFF3
02FFFFFFFFFFFFFFFFA0
009FFFFFFFFFFFFFFF30
002FFFFFFFFFFFFFFD00
000CFFFFFFFFFFFFFA00
0009FFFFFFFFFFFFF900
0006FFFFFFFFFFFFF600
0004FFFFFFFFFFFFD000
0001FFFB76EFFFFD4000
0000DC200BFFFFE40000
000051000EFFFF700000
000000007FFFFB100000
00000000CFFFF4000000
00000000CFFFA0000000
00000005FFFF50000000
00000007FFFC00000000
0000000AFFF700000000
0000003FFFE300000000
0000005FFFB999720000
000000BFFFFFFFF90000
000003FFFFFFFFF40000
000005FFFFFFFFF20000
000004FFEFFFFFF30000
000000B918AACEE10000
00000031000002A00000
00000000000000200000
ENDCHAR
STARTCHAR braceleft
ENCODING 123
SWIDTH 372 0
DWIDTH 13 0
BBX 12 36 1 -5
BITMAP
000000000179
000000028EFB
0000019FFFFA
00000BFFFFF9
00008FFFFFF7
0003FFFFFFF5
000CFFFFFFF3
003FFFFFFFF1
00CFFFFFFFE0
06FFFFFFFFC0
0AFFFFFFFFA0
0CFFFFFFFFA0
0FFFFFFFEA60
2FFFFFFD1000
4FFFFFF60000
6FFFFFF10000
7FFFFFE00000
8FFFFFD00000
9FFFFFC00000
9FFFFFB00000
9FFFFFA00000
8FFFFF900000
8FFFFFA00000
6FFFFFD00000
3FFFFFE00000
0EFFFFF40000
09FFFFFB0000
03FFFFFF2000
00BFFFFFF300
005FFFFFFE10
000DFFFFFF30
0004FFFFFF70
00009FFFFF90
00001BFFFF80
0000003BFE40
000000001000
ENDCHAR
STARTCHAR bar
ENCODING 124
SWIDTH 208 0
DWIDTH 8 0
BBX 4 33 2 -4
BITMAP
29D1
8FF1
AFF3
BFF5
CFF4
EFF1
EFE2
9FF6
6FF4
8FF1
9FD0
AFC0
BFD0
BFD0
BFE0
BFF0
BFF0
BFF0
BFF1
BFF3
BFE1
BFE0
BFE1
7FC0
5FC0
6FC0
8FD0
AFD0
BFB0
CFB0
BFD0
ADE0
4370
ENDCHAR
STARTCHAR braceright
ENCODING 125
SWIDTH 338 0
DWIDTH 12 0
BBX 11 35 0 -5
BITMAP
0BC853000000
0EFFFF900000
1FFFFFFA0000
0BFFFFFF9000
0AFFFFFFF800
09FFFFFFFE00
08FFFFFFFF40
07FFFFFFFF60
06FFFFFFFF60
05FFFFFFFF60
05FFFFFFFF60
04FFFFFFFF60
026AFFFFFF50
00007FFFFF50
00001FFFFF40
00000DFFFF30
00000BFFFF30
00000AFFFF20
000009FFFF10
000009FFFF00
000009FFFE00
00000AFFFD00
00000DFFFB00
00000FFFF900
00001FFFF700
00004FFFF400
00008FFFF100
0000DFFFC000
0000DFFF7000
0238FFFE1000
0AFFFFF50000
1FFFFF800000
3FFFFC000000
2FFFE2000000
18A630000000
ENDCHAR
STARTCHAR asciitilde
ENCODING 126
SWIDTH 535 0
DWIDTH 19 0
BBX 17 9 1 20
BITMAP
000000000002000000
00182000003CD70000
03DFE20005FFFFB000
5FFFFD35EFFFFFFA00
7FFFFFFFFFFFFFFF70
0AFFFFFFFFFFFFFFB0
01DFFFFFFFFFFFFD20
003EFFFFC413CFB100
00017BB50000060000
ENDCHAR
STARTCHAR exclamdown
ENCODING 161
SWIDTH 347 0
DWIDTH 13 0
BBX 11 44 1 1
BITMAP
035430000000
07FFFDBADB00
06FFFFFFFF00
05FFFFFFFF10
05FFFFFFFF20
05FFFFFFFF40
06FFFFFFFF40
07FFFFFFFE00
0DFFFFFFFD00
3FFFFFFFFF00
AFFFFFFFFF10
035689BDB810
000000000000
000000000000
000000000000
000102870000
000CFEF50000
000FFFFA0000
000FFFFD0000
001FFFFF0000
001FFFFF0000
000FFFFF0000
000FFFFD0000
001FFFFC1000
002FFFFF1000
003FFFFF4000
006FFFFF8000
008FFFFF5000
00CFFFFF2000
01FFFFFF5000
05FFFFFF9000
0AFFFFFFB000
0EFFFFFFD000
0DFFFFFFE000
0BFFFFFFF100
09FFFFFFF300
03FFFFFFF600
0AFFFFFFF500
6FFFFFFFF800
9FFFFFFFFE20
BFFFFFFFFF70
FFFFFFFFFF50
47DFEFFE9500
000540000000
ENDCHAR
STARTCHAR cent
ENCODING 162
SWIDTH 552 0
DWIDTH 20 0
BBX 18 52 1 -14
BITMAP
000000001400000000
000000007D00000000
00000000AD00000000
00000000CD00000000
00000000DD00000000
00000000ED00000000
00000000ED00000000
00000000ED00000000
00000000EE00000000
00000000ED00000000
00000000ED00000000
00000046EFB9610000
00007DFFFFFFFE4000
000BFFFFFFFFFFE300
03DFFFFFFFFFFFFF50
0DFFFFFFFFFFFFFFC1
5FFFFFFFFFFFFFFFF9
AFFFFFFFFFFFFFFFF5
DFFFFFFFFFFFFFFFF4
EFFFFFFFFFFFFFFFF7
DFFFFFFFFFFFFFFFF7
AFFFFFFFFFFFFFFFF6
7FFFFFFFFFFFFFFFF4
3FFFFFFFB3DFFFFFF3
0EFFFFFE003FFFFFF1
0BFFFFFE000CFFFFF0
07FFFFFF100CFFFFD0
07FFFFFF2002134680
06FFFFFC0000000000
03FFFFFC0000000000
00FFFFFE0000000000
00CFFFFF100DD93000
007FFFFF303FFFF600
005FFFFF608FFFF200
003FFFFFA0EFFFF000
000AFFFFFCFFFFE000
0004FFFFFFFFFF8000
0001FFFFFFFFFB1000
000079BBEEEF900000
000000398D5D100000
000000008C01000000
000000008B00000000
000000009B00000000
000000009B00000000
00000000AC00000000
00000000BD00000000
00000000BD00000000
00000000BE00000000
00000000BE00000000
00000000AE00000000
000000009A00000000
000000002200000000
ENDCHAR
STARTCHAR sterling
ENCODING 163
SWIDTH 589 0
DWIDTH 21 0
BBX 19 30 1 -3
BITMAP
00000135434200000000
0003DFFFDFFFE9200000
001DFFFFFFFFFFE60000
05FFFFFFFFFFFFFF8000
1FFFFFFFFFFFFFFFF600
1FFFFFFFFFFFFFFFFE10
5FFFFFFFFFFFFFFFFF60
6FFFFFFFFFFFFFFFFFB0
5FFFFFFFFFFFFFFFFFD0
4FFFFFFFFFFFFFFFFFF0
2FFFFFFFFFFFFFFFFFD0
0FFFFFFFFFFFFFFFFF80
0DFFFFFF46FFFFFFFF30
0BFFFFFE006FFFFFFD00
08FFFFFA001EFFFFF800
04FFFFFA000CFFFFF500
03FFFFF700058ADFF500
5EFFFFFECC2000013200
6FFFFFFFFF3000000000
49CFFFFFCD1000000000
000AFFFF700000000000
000BFFFFC33100035000
000EFFFFFFFFDBEF6000
002FFFFFFFFFFFFE2000
004FFFFFFFFFFFFD0000
006FFFFFFFFFFFF60000
006FFFFF5FFFFFF10000
003C52BB0FADFFC00000
000000B70811AC300000
00000021010173000000
ENDCHAR
STARTCHAR yen
ENCODING 165
SWIDTH 692 0
DWIDTH 25 0
BBX 27 29 -1 2
BITMAP
698899ACCC500001CA6420000000
08FFFFFFFFC00005FFFFFEEDCA10
003BFFFFFFF40007FFFFFFFF8200
00005EFFFFFE000CFFFFFFF60000
000002EFFFFF605FFFFFFFA00000
0000008FFFFFC0DFFFFFFC100000
0000000AFFFFFBFFFFFFD1000000
00000000AFFFFFFFFFFE20000000
000000002FFFFFFFFFF500000000
000000000CFFFFFFFFF100000000
0000000007FFFFFFFFE000000000
0001211115FFFFFFFFFBBA984000
000BFFFFFFFFFFFFFFFFFFFF5000
000BFFFFFFFFFFFFFFECBFFE0000
00035666666EFFFFFF5012200000
000000000009FFFFFF2000000000
000244332227FFFFFF3334442000
0007FFFFFFFFFFFFFFFFFFFF8000
000AFFFFFFFFFFFFFFFFFFFF9000
000144566789FFFFFD5555562000
000000000003FFFFFB0000000000
000000000002FFFFFB0000000000
000000000001FFFFFA0000000000
000000000000DFFFFB0000000000
000000000000AFFFFB0000000000
0000000000007FFFFB0000000000
0000000000003FFFFC0000000000
0000000000000EC86A0000000000
0000000000000500000000000000
ENDCHAR
STARTCHAR brokenbar
ENCODING 166
SWIDTH 201 0
DWIDTH 7 0
BBX 5 33 1 -4
BITMAP
0B9400
0CFC00
0EFE00
1FFF00
0FFF10
0CFF30
1CFF30
2FFD00
0FF900
0CFC00
09FD00
08FE00
011100
000000
000000
000000
000000
000000
000000
000000
0AEE00
0AFF00
0BFF00
08FB00
08F900
09FA00
09FC00
09FE00
07FF00
07FF10
09FF00
0ADE00
063700
ENDCHAR
STARTCHAR section
ENCODING 167
SWIDTH 477 0
DWIDTH 17 0
BBX 17 34 0 -7
BITMAP
00000018CDD9500000
000005EFFFFFFD5000
00006FFFFFFFFFF600
0003FFFFFFFFFFFE20
000BFFFFFFFFFFFF50
001FFFFFFFFFFFFE00
003FFFFFFFFFFFFB00
003FFFFFFFFFFFF700
002FFFFFFFFFFFF300
000FFFFFFEFFFFE000
000DFFFF91DFFFB000
000BFFFF707FFF7000
0009FFFFC017452000
0008FFFFFEC7200000
0006FFFFFFFFFA0000
003EFFFFFFFFFE0000
01DFFFFDFFFFFF2000
09FFFFF147FFFF9000
0EFFFFE000CFFF9000
1FFFFFD000AFFF5000
0FFFFFD003FFFD1000
0FFFFFF407FFF60000
09FFFFFEBBFFF10000
03FFFFFFFFFFA00000
00CFFFFFFFFF400000
0019DDFFFFFF200000
000004A9EFFFB00000
000024508FFFC00000
01DFFFD06FFF800000
00BFFFF6CFFF300000
003FFFFFFFFB000000
000DFFFFFFF6000000
0004FFFFFFD0000000
00005D431310000000
ENDCHAR
STARTCHAR dieresis
ENCODING 168
SWIDTH 633 0
DWIDTH 23 0
BBX 19 10 2 28
BITMAP
01320000000225998300
6EFFEEF6007FFFFFFE00
7FFFFFF7006FFFFFFE00
8FFFFFF7006FFFFFFD00
8FFFFFF7006FFFFFFB00
8FFFFFF8006FFFFFFF10
8FFFFFF7006FFFFFFF00
8FFFFFF6006FFFFFFE00
6FFFFFF5005DFEBADA00
00013210000000000000
ENDCHAR
STARTCHAR copyright
ENCODING 169
SWIDTH 783 0
DWIDTH 28 0
BBX 26 31 1 -3
BITMAP
000000000269AA961000000000
00000003BFFFFFFFFA20000000
000001AFFFECDEEEFFF8000000
00002DFFB300000016CFC10000
0002EFF70017BCC92006FD1000
001DFF5003EFFFFFE2004EB000
009FF8003EFFFFFFFC2005F700
02FFD001EFFFFFFFFF9000AE10
0AFF5007FFFFFFFFFFF2003F80
1FFD000AFFFFFFFFFFF1000CE0
4FF7000CFFFFFFFFFFF20007F4
7FF2000DFFFFFFFFFFF20004F8
9FE0000DFFFFFFFFFFF20002FA
AFB0000CFFFFFCFFFFF10001FC
AF90000AFFFF80BFFFF00002FD
9FC10007FFFF405FFFD00003FC
9FF00006FFFF503CCDA00004FB
8FF00005FFFF300000000005FA
7FF10002FFFF200000000007F8
5FF30000EFFF20010000000AF4
1FF60000BFFF407FD920000EF1
0CFA00009FFF60AFFE10006FB0
07FF10007FFFA3FFFD0000DF50
01EF80000EFFFEFFF90008FD00
007FF3000DFFFFFFF2004FF500
000CFD2005BFEEFF4005EFC000
0002EFE300090668007FFE2000
00003EFFA30000016DFFE40000
000003CFFFDB9ABEFFFD300000
00000008EFFFFFFFFF91000000
00000000158AAAA96100000000
ENDCHAR
STARTCHAR guillemotleft
ENCODING 171
SWIDTH 759 0
DWIDTH 27 0
BBX 26 20 1 2
BITMAP
000003ECCBBCC4004EDDDCCBA0
000008FFFFFF8000AFFFFFFE40
00002EFFFFF80004FFFFFFF400
0000CFFFFFE1001EFFFFFF8000
0008FFFFFF7000AFFFFFFD1000
005FFFFFFE1005FFFFFFF40000
03EFFFFFF7000DFFFFFFB00000
0CFFFFFFC0005FFFFFFF300000
6FFFFFFF3000BFFFFFF8000000
BFFFFFF70000EFFFFFC0000000
8FFFFFF30000BFFFFFE3000000
1EFFFFFD10003FFFFFFD000000
05FFFFFF900005EFFFFF300000
007FFFFFC00001DFFFFF800000
0009FFFFF900003EFFFFE30000
0000BFFFFF900006FFFFFE3000
00001DFFFFF700009FFFFFE200
000003FFFFFF60000CFFFFFC10
0000005FFFFFF50002EFFFFFA0
00000004556774000033267962
ENDCHAR
STARTCHAR uni00AD
ENCODING 173
SWIDTH 446 0
DWIDTH 16 0
BBX 14 5 1 10
BITMAP
0CDDDA8AAA9CD1
0FFFFFFFFFFFF1
1FFFFFFFFFFFE0
1FEFFFFFFFEFE0
01178865553970
ENDCHAR
STARTCHAR registered
ENCODING 174
SWIDTH 780 0
DWIDTH 28 0
BBX 26 31 1 -3
BITMAP
00000000003566410000000000
00000004AEFFFFFFC500000000
000002BFFFD853359ED3000000
00004EFFD6000000019F700000
0003FFFA125665220005F80000
001DFFFDCFFFFFFF71005F6000
00AFFBEFFFFFFFFFFC1008F300
02FFD16FFFFFFFFFFFC001EC00
09FF500CFFFFFFFFFFF0007F60
0EFD0006FFFFFFFFFFF1001FC0
4FF70003FFFFFFFFFFF0000CF3
8FF30003FFFFFFFFFFF0000AF7
BFE00002FFFFB8EFFFE00008FA
DFD00001FFFF604FFFC00009FC
BFC00000EFFF603FFFB0000BFD
3F600000AFFF907FFF70000CFE
3F6000007FFFFDFFFF20000BFA
3F8000005FFFFFFFFE000008F6
1FB000001FFFFFFFF5000005F2
0EF200000BFFD8FFF4000004F1
0AF8000004FFF82DFE200005E0
05FF200001FFFC0BFFB00008B0
00DFC00000DFFD09FFD0001E60
006FFA0000CFFE08FFE1009E10
000CFFA0008A9602CDF406F700
0002EFFC2001510042619FC000
00004EFFE8200000017EFD1000
000003DFFFFC9778CFFFD20000
00000019FFFFFFFFFFF9100000
000000003AEFFFFFFA30000000
00000000000356641000000000
ENDCHAR
STARTCHAR macron
ENCODING 175
SWIDTH 446 0
DWIDTH 16 0
BBX 14 5 1 10
BITMAP
0CDDDA9AAA9CD1
0FFFFFFFFFFFF1
1FFFFFFFFFFFE0
2FEFFFFFFFEFE0
01178865553970
ENDCHAR
STARTCHAR acute
ENCODING 180
SWIDTH 439 0
DWIDTH 16 0
BBX 12 10 2 27
BITMAP
000000012000
0000001CC000
000002DFF600
00004EFFF600
0006FFFFFE40
008FFFFFFFE8
3CFFFFFFFEA5
DFFFFFD94000
BFFA72000000
351000000000
ENDCHAR
STARTCHAR mu
ENCODING 181
SWIDTH 679 0
DWIDTH 24 0
BBX 26 28 -1 -1
BITMAP
00000146777600001000000000
169BDFFFFFFC0007FFD8772000
00AFFFFFFFFA0005FFFFFFFC62
001CFFFFFFF80007FFFFFFFFF7
0009FFFFFFFB000CFFFFFFFF50
0008FFFFFFF90009FFFFFFF800
0004FFFFFFFB0008FFFFFFF600
0000EFFFFFFF0006FFFFFFE100
0000BFFFFFFF2007FFFFFF9000
00009FFFFFFF3008FFFFFF3000
00006FFFFFFF3008FFFFFE0000
00003FFFFFFF3009FFFFFA0000
00001FFFFFFF200AFFFFF80000
00000DFFFFFE100AFFFFF50000
00000BFFFFFC000CFFFFF30000
00000AFFFFFC002FFFFFF20000
000009FFFFFC002FFFFFF20000
000009FFFFFE001FFFFFF10000
000007FFFFFF102FFFFFE00000
000002FFFFFF105FFFFF900000
000001EFFFFF10BFFFFF500000
0000006FFFFF10DFFFFF200000
0000003FFFFFB9FFFFFF200000
0000000FFFFFFFFFFFFC000000
0000000CFFFFFFFFFFF7000000
00000008EFFD4BFFFFE1000000
000000000A7903989860000000
00000000000100062000000000
ENDCHAR
STARTCHAR paragraph
ENCODING 182
SWIDTH 591 0
DWIDTH 21 0
BBX 21 29 1 -2
BITMAP
0000135354398753100000
007DFFFFFFFFFFFFFDBA30
1CFFFFFFFFFFFFFFFFFB00
8FFFFFFFFFFFFFFFFF9000
DFFFFFFFFFFFFFFFFB0000
FFFFFFFFFFFD9ADFF70000
EFFFFFFFFFFC00BFF50000
CFFFFFFFFFFC00CFF40000
9FFFFFFFFFFC00EFF40000
7FFFFFFFFFFB00EFF20000
5FFFFFFFFFFB00FFF00000
1FFFFFFFFFFA01FFF10000
0CFFFFFFFFF901FFF00000
06FFFFFFFFF901FFE00000
01EFFFFFFFF801FFD00000
007FFFFFFFF801FFB00000
000AFFFFCEF801FF800000
0000463009F701FF500000
000000000CF701FF200000
000000000CF700FD000000
000000000BF700FB000000
0000000009F600F8000000
0000000009F600FA000000
000000000AF500FA000000
000000000BF500F9000000
000000000CF500F8000000
000000000BF400F7000000
000000000CF401F7000000
00000000035201B5000000
ENDCHAR
STARTCHAR periodcentered
ENCODING 183
SWIDTH 388 0
DWIDTH 14 0
BBX 11 12 1 8
BITMAP
000002343100
37CCDFFFFF90
0CFFFFFFFFA0
09FFFFFFFF90
07FFFFFFFF80
06FFFFFFFF90
04FFFFFFFFC0
03FFFFFFFFB0
02FFFFFFFFA0
01FFFFFFFF90
01FFFFFFFF90
00CA96324520
ENDCHAR
STARTCHAR cedilla
ENCODING 184
SWIDTH 270 0
DWIDTH 10 0
BBX 8 12 1 -12
BITMAP
00EFD000
04FFA000
08FF3000
0DFB0000
2FFA6450
3FFFFFF3
29ABEFF3
0000BFF2
0000BFF1
1689EFF1
3FFFFFF0
2BBBDED0
ENDCHAR
STARTCHAR guillemotright
ENCODING 187
SWIDTH 767 0
DWIDTH 28 0
BBX 26 21 1 2
BITMAP
12222123000000000000000000
CFFFFFFFC0007CCA6770000000
3FFFFFFFE0002EFFFFF6000000
08FFFFFFF10004FFFFFF400000
00BFFFFFF800008FFFFFE30000
000EFFFFFF40000BFFFFFD0000
0004FFFFFFC00000CFFFFF9000
0000AFFFFFF900004FFFFFF400
00002DFFFFFF60000FFFFFFD30
000003FFFFFFF10009FFFFFFD0
000001DFFFFFD000008FFFFFF5
00000BFFFFFF500000BFFFFFF8
00000DFFFFFF400008FFFFFFF4
00007FFFFFFB10003FFFFFFFC0
0005FFFFFF900000BFFFFFFF30
004FFFFFFE100004FFFFFFF700
04EFFFFFF800000CFFFFFFA000
4EFFFFFFE100007FFFFFFD1000
8FFFFFFF500003FFFFFFF30000
7FFFFDF700002EFFFFFF800000
001100000000389AAAAA200000
ENDCHAR
STARTCHAR Agrave
ENCODING 192
SWIDTH 494 0
DWIDTH 18 0
BBX 19 46 -2 -8
BITMAP
00002000000000000000
0006E400000000000000
001FFF60000000000000
002FFFF8000000000000
01BFFFFFA10000000000
4CFFFFFFFC2000000000
39DFFFFFFFE700000000
00037BFFFFFF30000000
000000158DFF10000000
00000000003500000000
00000000000000000000
00000000000000000000
0018ACDEEFFEEDCA8630
0004DFFFFFFFFFFFFD30
000019FFFFFFFFFFE200
000003FFFFFFFFFF6000
000003FFFFFFFFFF1000
000002FFFFFFFFFE0000
000000FFFFFFFFFC0000
000000FFFFFFFFFA0000
000003FFFFFFFFF90000
000004FFFFFFFFF80000
000002FFFFFFFFF70000
000001FFFFFFFFF50000
000000EFFFDFFFF50000
000002FFFF8EFFF30000
000001FFFF4DFFF40000
000003FFFF1CFFF50000
000003FFFD0BFFF40000
000005FFFC0AFFF60000
000002FFF708FFF30000
000002FFFDDDFFF50000
000005FFFFFFFFF50000
000008FFFFFFFFF30000
000006FFFFFFFFF10000
000003FFFFFFFFD00000
000001FFFD4FFF900000
000000EFFB08FF700000
000000EFE30AFF700000
000000EED009EF400000
000000C7A0076E200000
000000B140010E000000
0000006010002C000000
00000000000165000000
00000000000510000000
00000000000400000000
ENDCHAR
STARTCHAR Aacute
ENCODING 193
SWIDTH 494 0
DWIDTH 18 0
BBX 22 46 0 -8
BITMAP
0000000000000000020000
00000000000000009E2000
000000000000001BFFA000
00000000000002CFFFA000
0000000000003DFFFFF700
000000000004EFFFFFFFA0
0000000001AFFFFFFFFB71
0000000008FFFFFEA51000
0000000006FFC840000000
0000000001620000000000
0000000000000000000000
0000000000000000000000
18ACDEEFFEEDCA86300000
04DFFFFFFFFFFFFD300000
0019FFFFFFFFFFE2000000
0003FFFFFFFFFF60000000
0003FFFFFFFFFF10000000
0002FFFFFFFFFE00000000
0000FFFFFFFFFC00000000
0000FFFFFFFFFA00000000
0003FFFFFFFFF900000000
0004FFFFFFFFF800000000
0002FFFFFFFFF700000000
0001FFFFFFFFF500000000
0000EFFFDFFFF500000000
0002FFFF8EFFF300000000
0001FFFF4DFFF400000000
0003FFFF1CFFF500000000
0003FFFD0BFFF400000000
0005FFFC0AFFF600000000
0002FFF708FFF300000000
0002FFFDDDFFF500000000
0005FFFFFFFFF500000000
0008FFFFFFFFF300000000
0006FFFFFFFFF100000000
0003FFFFFFFFD000000000
0001FFFD4FFF9000000000
0000EFFB08FF7000000000
0000EFE30AFF7000000000
0000EED009EF4000000000
0000C7A0076E2000000000
0000B140010E0000000000
00006010002C0000000000
0000000001650000000000
0000000005100000000000
0000000004000000000000
ENDCHAR
STARTCHAR Acircumflex
ENCODING 194
SWIDTH 494 0
DWIDTH 18 0
BBX 17 49 0 -8
BITMAP
000006754588000000
00002FFFFFFF400000
00008FFFFFFFB00000
0001EFFFFFFFF40000
0006FFFFFFFFFC0000
000DFFFFFFFFFF5000
004FFFFD3DFFFFC000
00BFFFE303EFFFF500
03FFFF50004FFFFD00
09FFF6000007FFFF60
1FFF800000009FFFA0
2CFA000000000AFB10
006000000000006000
000000000000000000
000000000000000000
18ACDEEFFEEDCA8630
04DFFFFFFFFFFFFD30
0019FFFFFFFFFFE200
0003FFFFFFFFFF6000
0003FFFFFFFFFF1000
0002FFFFFFFFFE0000
0000FFFFFFFFFC0000
0000FFFFFFFFFA0000
0003FFFFFFFFF90000
0004FFFFFFFFF80000
0002FFFFFFFFF70000
0001FFFFFFFFF50000
0000EFFFDFFFF50000
0002FFFF8EFFF30000
0001FFFF4DFFF40000
0003FFFF1CFFF50000
0003FFFD0BFFF40000
0005FFFC0AFFF60000
0002FFF708FFF30000
0002FFFDDDFFF50000
0005FFFFFFFFF50000
0008FFFFFFFFF30000
0006FFFFFFFFF10000
0003FFFFFFFFD00000
0001FFFD4FFF900000
0000EFFB08FF700000
0000EFE30AFF700000
0000EED009EF400000
0000C7A0076E200000
0000B140010E000000
00006010002C000000
000000000165000000
000000000510000000
000000000400000000
ENDCHAR
STARTCHAR Atilde
ENCODING 195
SWIDTH 494 0
DWIDTH 18 0
BBX 18 46 0 -8
BITMAP
000000000002100000
000770000039FA2000
02BFF70005CFFFE300
3EFFFF64CFFFFFFE20
2FFFFFFFFFFFFFFFB2
05FFFFFFFFFFFFFFE1
009FFFFFFFEFFFFF40
000BFFFFC6019FD300
000059B50000041000
000000000000000000
000000000000000000
000000000000000000
18ACDEEFFEEDCA8630
04DFFFFFFFFFFFFD30
0019FFFFFFFFFFE200
0003FFFFFFFFFF6000
0003FFFFFFFFFF1000
0002FFFFFFFFFE0000
0000FFFFFFFFFC0000
0000FFFFFFFFFA0000
0003FFFFFFFFF90000
0004FFFFFFFFF80000
0002FFFFFFFFF70000
0001FFFFFFFFF50000
0000EFFFDFFFF50000
0002FFFF8EFFF30000
0001FFFF4DFFF40000
0003FFFF1CFFF50000
0003FFFD0BFFF40000
0005FFFC0AFFF60000
0002FFF708FFF30000
0002FFFDDDFFF50000
0005FFFFFFFFF50000
0008FFFFFFFFF30000
0006FFFFFFFFF10000
0003FFFFFFFFD00000
0001FFFD4FFF900000
0000EFFB08FF700000
0000EFE30AFF700000
0000EED009EF400000
0000C7A0076E200000
0000B140010E000000
00006010002C000000
000000000165000000
000000000510000000
000000000400000000
ENDCHAR
STARTCHAR Adieresis
ENCODING 196
SWIDTH 494 0
DWIDTH 18 0
BBX 18 46 0 -8
BITMAP
023101000002279972
9FFFDEE300AFFFFFFB
AFFFFFF400AFFFFFFB
BFFFFFF4009FFFFFFA
BFFFFFF4009FFFFFF8
CFFFFFF4009FFFFFFC
BFFFFFF4009FFFFFFC
BFFFFFF3009FFFFFFB
9FFFFFF2007EFDBBD8
000232100000000000
000000000000000000
000000000000000000
18ACDEEFFEEDCA8630
04DFFFFFFFFFFFFD30
0019FFFFFFFFFFE200
0003FFFFFFFFFF6000
0003FFFFFFFFFF1000
0002FFFFFFFFFE0000
0000FFFFFFFFFC0000
0000FFFFFFFFFA0000
0003FFFFFFFFF90000
0004FFFFFFFFF80000
0002FFFFFFFFF70000
0001FFFFFFFFF50000
0000EFFFDFFFF50000
0002FFFF8EFFF30000
0001FFFF4DFFF40000
0003FFFF1CFFF50000
0003FFFD0BFFF40000
0005FFFC0AFFF60000
0002FFF708FFF30000
0002FFFDDDFFF50000
0005FFFFFFFFF50000
0008FFFFFFFFF30000
0006FFFFFFFFF10000
0003FFFFFFFFD00000
0001FFFD4FFF900000
0000EFFB08FF700000
0000EFE30AFF700000
0000EED009EF400000
0000C7A0076E200000
0000B140010E000000
00006010002C000000
000000000165000000
000000000510000000
000000000400000000
ENDCHAR
STARTCHAR Aring
ENCODING 197
SWIDTH 494 0
DWIDTH 18 0
BBX 17 46 0 -8
BITMAP
000000279872000000
000006FFFFFE400000
00004FFFFFFFE40000
0000AFFB78EFFC0000
0000AFF1002EFB0000
00007FF1000CFD0000
00004FF2000DF50000
00000FFD76CFC00000
00000DFFFFFF400000
0000067DFFF9000000
000000016930000000
000000000000000000
18ACDEEFFEEDCA8630
04DFFFFFFFFFFFFD30
0019FFFFFFFFFFE200
0003FFFFFFFFFF6000
0003FFFFFFFFFF1000
0002FFFFFFFFFE0000
0000FFFFFFFFFC0000
0000FFFFFFFFFA0000
0003FFFFFFFFF90000
0004FFFFFFFFF80000
0002FFFFFFFFF70000
0001FFFFFFFFF50000
0000EFFFDFFFF50000
0002FFFF8EFFF30000
0001FFFF4DFFF40000
0003FFFF1CFFF50000
0003FFFD0BFFF40000
0005FFFC0AFFF60000
0002FFF708FFF30000
0002FFFDDDFFF50000
0005FFFFFFFFF50000
0008FFFFFFFFF30000
0006FFFFFFFFF10000
0003FFFFFFFFD00000
0001FFFD4FFF900000
0000EFFB08FF700000
0000EFE30AFF700000
0000EED009EF400000
0000C7A0076E200000
0000B140010E000000
00006010002C000000
000000000165000000
000000000510000000
000000000400000000
ENDCHAR
STARTCHAR AE
ENCODING 198
SWIDTH 733 0
DWIDTH 26 0
BBX 26 35 0 -8
BITMAP
00000001234567777654200000
179BCEFFFFFFFFFFFFFFFFDA82
04DFFFFFFFFFFFFFFFFFFFFFC0
0017FFFFFFFFFFFFFFFFFFFF50
0003FFFFFFFFFFFFFFFFFFFD00
0005FFFFFFFFFFFFFFFFFFF700
0004FFFFFFFFFFFFFFFFFFF200
0003FFFFFFFFFFFFFFFFFFB000
0003FFFFFFFFFFFFFFFFFF7000
0002FFFFFFFFFFFFFFFFFF4000
0001FFFFFFFFFFFFFFFFFF2000
0000FFFFFFFFFFFDEFFFFF1000
0000EFFFFFFFFFF6026ADE0000
0000EFFFEFFFFFF60000000000
0003FFFF8EFFFFF70000000000
0001FFFF3DFFFFFEEEE9200000
0003FFFF1CFFFFFFFFFF200000
0004FFFD0BFFFFFFFFFF100000
0005FFFC0AFFFFFFFFFE000000
0003FFF709FFFFFFEEEC000000
0002FFFDDDFFFFF40003000000
0004FFFFFFFFFFF30000000000
0008FFFFFFFFFFF89985200000
0007FFFFFFFFFFFEFFFFB00000
0004FFFFFFFFFFFFFFFF700000
0001FFFC5FFFDAFFFFFF300000
0000EFF80BFF30CFFB8F300000
0000DFD30AFF20CBE10C100000
0000CED009EF00C7500B000000
00008780048C00C50009000000
00009240012A00C40028000000
00006010006700C20046000000
00000000027200400000000000
00000000050000000000000000
00000000040000000000000000
ENDCHAR
STARTCHAR Ccedilla
ENCODING 199
SWIDTH 504 0
DWIDTH 18 0
BBX 17 43 1 -16
BITMAP
0000049AAAA7000000
0001BFFFFFFFC40000
003CFFFFFFFFFC6000
05FFFFFFFFFFFFF200
1EFFFFFFFFFFFFFB10
6FFFFFFFFFFFFFFF40
BFFFFFFFFFFFFFFF30
DFFFFFFFFFFFFFFF40
FFFFFFFFFFFFFFFF40
EFFFFFFFFFFFFFFF30
DFFFFFFFFFFFFFFF30
BFFFFFFFEFFFFFFF20
9FFFFFFB3AFFFFFF10
6FFFFFF302FFFFFE00
4EFFFFF300BFFFFD00
1EFFFFF400AEDCDA00
0FFFFFF30010000100
0CFFFFF10000000000
09FFFFE00000000000
06FFFFF00021000000
04FFFFF100EFDA6000
01EFFFF203FFFFD000
01FFFFF707FFFF7000
008FFFFC4EFFFF5000
002FFFFFFFFFFF2000
001FFFFFFFFFF70000
000AFFFFFFFF810000
00003AE7CDFD100000
0000029089A3000000
000000909670000000
000000605560000000
00000000008FF50000
0000000000CFF20000
0000000001FFA00000
0000000006FF300000
000000000AFE745200
000000000BFFFFFA00
0000000007ABDFFA00
0000000000004FF900
0000000000004FF800
000000000479BFF700
000000000BFFFFF700
0000000008CBCEE600
ENDCHAR
STARTCHAR Egrave
ENCODING 200
SWIDTH 570 0
DWIDTH 21 0
BBX 20 41 0 -3
BITMAP
00020000000000000000
001D9000000000000000
008FFB10000000000000
00AFFFD2000000000000
05FFFFFE400000000000
9FFFFFFFF60000000000
7BFFFFFFFFC200000000
00159EFFFFFA00000000
00000037BFF800000000
00000000015200000000
00000000000000000000
00013456777654200000
09EFFFFFFFFFFFFFDB82
06FFFFFFFFFFFFFFFFB0
009FFFFFFFFFFFFFFF20
001FFFFFFFFFFFFFFE00
000AFFFFFFFFFFFFFC00
000AFFFFFFFFFFFFF800
0009FFFFFFFFFFFFF300
0009FFFFFFFFFFFFD000
0008FFFFFFFFFFFF9000
0007FFFFFFFFFFFF5000
0006FFFFFEDFFFFF1000
0005FFFFF80159DF0000
0003FFFFF80000000000
0002FFFFF80000000000
0000FFFFFEEEEA200000
0000DFFFFFFFFF300000
0000DFFFFFFFFF000000
0000BFFFFFFFFF000000
00009FFFFFEEEE000000
00007FFFF50003000000
00005FFFF40000000000
00004FFFF89996300000
00002FFFFFFFFFC00000
00001FFFFFFFFF800000
00000FCAFFFFFF400000
00000E10BFFB8F400000
00000D00BCE10B200000
00000400A65009000000
00000000000001000000
ENDCHAR
STARTCHAR Eacute
ENCODING 201
SWIDTH 570 0
DWIDTH 21 0
BBX 22 41 1 -3
BITMAP
0000000000000000021000
00000000000000003E8000
0000000000000005FFF200
000000000000007FFFF200
00000000000009FFFFFC20
000000000001BFFFFFFFC5
00000000005EFFFFFFFD93
0000000002FFFFFFC73000
0000000001EFE961000000
0000000000540000000000
0000000000000000000000
0013456777654200000000
9EFFFFFFFFFFFFFDB82000
6FFFFFFFFFFFFFFFFB0000
09FFFFFFFFFFFFFFF20000
01FFFFFFFFFFFFFFE00000
00AFFFFFFFFFFFFFC00000
00AFFFFFFFFFFFFF800000
009FFFFFFFFFFFFF300000
009FFFFFFFFFFFFD000000
008FFFFFFFFFFFF9000000
007FFFFFFFFFFFF5000000
006FFFFFEDFFFFF1000000
005FFFFF80159DF0000000
003FFFFF80000000000000
002FFFFF80000000000000
000FFFFFEEEEA200000000
000DFFFFFFFFF300000000
000DFFFFFFFFF000000000
000BFFFFFFFFF000000000
0009FFFFFEEEE000000000
0007FFFF50003000000000
0005FFFF40000000000000
0004FFFF89996300000000
0002FFFFFFFFFC00000000
0001FFFFFFFFF800000000
0000FCAFFFFFF400000000
0000E10BFFB8F400000000
0000D00BCE10B200000000
0000400A65009000000000
0000000000001000000000
ENDCHAR
STARTCHAR Ecircumflex
ENCODING 202
SWIDTH 570 0
DWIDTH 21 0
BBX 19 44 1 -3
BITMAP
00000276457930000000
00000AFFFFFFA0000000
00002FFFFFFFF3000000
00008FFFFFFFFB000000
0001EFFFFFFFFF300000
0006FFFFFFFFFFB00000
000DFFFF67FFFFF40000
004FFFF900AFFFFC0000
00BFFFB0001CFFFF4000
03FFFC100002DFFFC000
09FFD10000003EFFF200
08FE3000000004FE4000
00330000000000430000
00000000000000000000
00134567776542000000
9EFFFFFFFFFFFFFDB820
6FFFFFFFFFFFFFFFFB00
09FFFFFFFFFFFFFFF200
01FFFFFFFFFFFFFFE000
00AFFFFFFFFFFFFFC000
00AFFFFFFFFFFFFF8000
009FFFFFFFFFFFFF3000
009FFFFFFFFFFFFD0000
008FFFFFFFFFFFF90000
007FFFFFFFFFFFF50000
006FFFFFEDFFFFF10000
005FFFFF80159DF00000
003FFFFF800000000000
002FFFFF800000000000
000FFFFFEEEEA2000000
000DFFFFFFFFF3000000
000DFFFFFFFFF0000000
000BFFFFFFFFF0000000
0009FFFFFEEEE0000000
0007FFFF500030000000
0005FFFF400000000000
0004FFFF899963000000
0002FFFFFFFFFC000000
0001FFFFFFFFF8000000
0000FCAFFFFFF4000000
0000E10BFFB8F4000000
0000D00BCE10B2000000
0000400A650090000000
00000000000010000000
ENDCHAR
STARTCHAR Edieresis
ENCODING 203
SWIDTH 570 0
DWIDTH 21 0
BBX 19 41 1 -3
BITMAP
013300100001249A8500
3EFFEDF9004EFFFFFF30
3FFFFFFB002FFFFFFF30
4FFFFFFB002FFFFFFF20
4FFFFFFB002FFFFFFE00
5FFFFFFC002FFFFFFF50
4FFFFFFB002FFFFFFF40
4FFFFFFA002FFFFFFF30
3EFFFFF9002CFECADC10
00013221000000000000
00000000000000000000
00134567776542000000
9EFFFFFFFFFFFFFDB820
6FFFFFFFFFFFFFFFFB00
09FFFFFFFFFFFFFFF200
01FFFFFFFFFFFFFFE000
00AFFFFFFFFFFFFFC000
00AFFFFFFFFFFFFF8000
009FFFFFFFFFFFFF3000
009FFFFFFFFFFFFD0000
008FFFFFFFFFFFF90000
007FFFFFFFFFFFF50000
006FFFFFEDFFFFF10000
005FFFFF80159DF00000
003FFFFF800000000000
002FFFFF800000000000
000FFFFFEEEEA2000000
000DFFFFFFFFF3000000
000DFFFFFFFFF0000000
000BFFFFFFFFF0000000
0009FFFFFEEEE0000000
0007FFFF500030000000
0005FFFF400000000000
0004FFFF899963000000
0002FFFFFFFFFC000000
0001FFFFFFFFF8000000
0000FCAFFFFFF4000000
0000E10BFFB8F4000000
0000D00BCE10B2000000
0000400A650090000000
00000000000010000000
ENDCHAR
STARTCHAR Igrave
ENCODING 204
SWIDTH 401 0
DWIDTH 14 0
BBX 18 41 -4 -2
BITMAP
000020000000000000
0004F6000000000000
000CFF800000000000
000DFFFA1000000000
009FFFFFC200000000
1BFFFFFFFE30000000
28CFFFFFFFF9000000
00026BEFFFFF600000
000000048CFF400000
000000000026000000
000000000000000000
000000000000000000
000005999979989862
00003DFFFFFFFFFFF3
00000AFFFFFFFFFF70
000001AFFFFFFFFF40
0000000BFFFFFFFB00
00000006FFFFFFF600
00000000CFFFFFFD00
00000000BFFFFFFA00
00000000DFFFFFF900
00000000FFFFFFF700
00000001FFFFFFF500
00000000FFFFFFF300
00000000FFFFFFF000
00000000EFFFFFA000
00000000DFFFFFB000
00000000BFFFFFC000
00000000AFFFFFC000
000000008FFFFFC000
000000006FFFFF7000
000000004FFFFF4000
000000002FFFFF7000
000000000FFFFF7000
000000000DFFFF6000
000000000BFFFF5000
0000000009FFFF4000
0000000007FFFF3000
0000000005A1EF5000
000000000390B57000
000000000030A20000
ENDCHAR
STARTCHAR Iacute
ENCODING 205
SWIDTH 401 0
DWIDTH 14 0
BBX 20 41 0 -2
BITMAP
00000000000000030000
000000000000006F4000
00000000000008FFD000
000000000001AFFFD000
00000000001CFFFFF910
0000000003DFFFFFFFC2
000000008FFFFFFFFC82
00000006FFFFFEB62000
00000004FFD851000000
00000000630000000000
00000000000000000000
00000000000000000000
05999979989862000000
3DFFFFFFFFFFF3000000
0AFFFFFFFFFF70000000
01AFFFFFFFFF40000000
000BFFFFFFFB00000000
0006FFFFFFF600000000
0000CFFFFFFD00000000
0000BFFFFFFA00000000
0000DFFFFFF900000000
0000FFFFFFF700000000
0001FFFFFFF500000000
0000FFFFFFF300000000
0000FFFFFFF000000000
0000EFFFFFA000000000
0000DFFFFFB000000000
0000BFFFFFC000000000
0000AFFFFFC000000000
00008FFFFFC000000000
00006FFFFF7000000000
00004FFFFF4000000000
00002FFFFF7000000000
00000FFFFF7000000000
00000DFFFF6000000000
00000BFFFF5000000000
000009FFFF4000000000
000007FFFF3000000000
000005A1EF5000000000
00000390B57000000000
00000030A20000000000
ENDCHAR
STARTCHAR Icircumflex
ENCODING 206
SWIDTH 401 0
DWIDTH 14 0
BBX 17 44 -2 -2
BITMAP
000004764589000000
00000DFFFFFF600000
00005FFFFFFFD10000
0000CFFFFFFFF70000
0004FFFFFFFFFE1000
000AFFFFFFFFFF7000
002FFFFE3BFFFFE100
008FFFF501DFFFF800
01EFFF70002EFFFE10
07FFF9000004FFFF80
0DFFA00000006FFFD0
1BFC1000000008FD20
005100000000006100
000000000000000000
000000000000000000
000599997998986200
003DFFFFFFFFFFF300
000AFFFFFFFFFF7000
0001AFFFFFFFFF4000
00000BFFFFFFFB0000
000006FFFFFFF60000
000000CFFFFFFD0000
000000BFFFFFFA0000
000000DFFFFFF90000
000000FFFFFFF70000
000001FFFFFFF50000
000000FFFFFFF30000
000000FFFFFFF00000
000000EFFFFFA00000
000000DFFFFFB00000
000000BFFFFFC00000
000000AFFFFFC00000
0000008FFFFFC00000
0000006FFFFF700000
0000004FFFFF400000
0000002FFFFF700000
0000000FFFFF700000
0000000DFFFF600000
0000000BFFFF500000
00000009FFFF400000
00000007FFFF300000
00000005A1EF500000
0000000390B5700000
0000000030A2000000
ENDCHAR
STARTCHAR Idieresis
ENCODING 207
SWIDTH 401 0
DWIDTH 14 0
BBX 19 40 -2 -2
BITMAP
01320000000226998300
6EFFEEE6007FFFFFFE00
8FFFFFF7007FFFFFFD00
8FFFFFF7007FFFFFFD00
8FFFFFF7006FFFFFFA00
9FFFFFF7006FFFFFFE10
9FFFFFF7006FFFFFFF00
8FFFFFF6006FFFFFFE00
6FFFFFF5005DFEBADA00
00013210000000000000
00000000000000000000
00059999799898620000
003DFFFFFFFFFFF30000
000AFFFFFFFFFF700000
0001AFFFFFFFFF400000
00000BFFFFFFFB000000
000006FFFFFFF6000000
000000CFFFFFFD000000
000000BFFFFFFA000000
000000DFFFFFF9000000
000000FFFFFFF7000000
000001FFFFFFF5000000
000000FFFFFFF3000000
000000FFFFFFF0000000
000000EFFFFFA0000000
000000DFFFFFB0000000
000000BFFFFFC0000000
000000AFFFFFC0000000
0000008FFFFFC0000000
0000006FFFFF70000000
0000004FFFFF40000000
0000002FFFFF70000000
0000000FFFFF70000000
0000000DFFFF60000000
0000000BFFFF50000000
00000009FFFF40000000
00000007FFFF30000000
00000005A1EF50000000
0000000390B570000000
0000000030A200000000
ENDCHAR
STARTCHAR Eth
ENCODING 208
SWIDTH 530 0
DWIDTH 19 0
BBX 19 33 1 -6
BITMAP
00000000246788300000
00257ACFFFFFFFF20000
00DFFFFFFFFFFFFD1000
02EFFFFFFFFFFFFFD300
00CFFFFFFFFFFFFFFE10
004FFFFFFFFFFFFFFE20
000DFFFFFFFFFFFFFF70
0008FFFFFFFFFFFFFF90
0004FFFFFFFFFFFFFFA0
0002FFFFFFFFFFFFFFA0
0001FFFFFFFFFFFFFF90
0000FFFFFFFFFFFFFF80
0000DFFFFFA27FFFFF50
0000CFFFFF200DFFFF20
0000AFFFFD000BFFFD00
3544AFFFFD552BFFF900
9FFFFFFFFFFE0AFFF600
59ABDFFFFFB90AFFF200
00006FFFFD000BFFD000
00003FFFFC000FFF9000
00000FFFFC004FFF6000
00000CFFFE105FFF3000
000009FFFF77CFFF2000
000006FFFFDFFFFF2000
00000AFFFFFFFFFE0000
000009FFFFFFFFF70000
000008FA21FFFFC00000
000008E000DFEA300000
000006B000DA60000000
0000049000D650000000
0000024000C120000000
0000000000A000000000
00000000001000000000
ENDCHAR
STARTCHAR Ntilde
ENCODING 209
SWIDTH 610 0
DWIDTH 22 0
BBX 20 44 1 -6
BITMAP
00000000000030000000
0002A2000004ED700000
005EFE20017FFFFB0000
07FFFFC47FFFFFFFA000
08FFFFFFFFFFFFFFF600
00BFFFFFFFFFFFFFF800
001DFFFFFFFEFFFFC100
0003EFFFFA303CFA1000
000016B9300001500000
00000000000000000000
00000000000000000000
00001233900875200000
4DEFFFFFF109FFFFDB75
CFFFFFFFF205FFFFFFF7
39FFFFFFF502FFFFFF80
01EFFFFFFA00FFFFFC00
00DFFFFFFF10EFFFF700
00CFFFFFFF90FFFFF700
00BFFFFFFFD0FFFFF600
00AFFFFFFFF3FFFFF400
008FFFFFFFF9FFFFF200
007FFFFFFFFEFFFFF000
005FFFFFFFFFFFFFD000
004FFFFFFFFFFFFFB000
002FFFFFFFFFFFFF9000
000FFFFFFFFFFFFF7000
000DFFFFFFFFFFFF4000
000AFFFFFFFFFFFF3000
0007FFFFFFFFFFFF1000
0005FFFFAFFFFFFF0000
0000FFFF6FFFFFFE0000
0000EFFF6CFFFFFE0000
0000DFFF54FFFFFD0000
0000CFFF52FFFFFC0000
0000BFFF71CFFFFC0000
0000AFFF707FFFF90000
00009FFF803FFFF50000
00007FFF901FFFF60000
00006FFFA00BFCF50000
00005DB5A009F8C10000
00004800900587800000
00003800700400000000
00002A00900720000000
00000400600200000000
ENDCHAR
STARTCHAR Ograve
ENCODING 210
SWIDTH 504 0
DWIDTH 18 0
BBX 20 42 -2 -4
BITMAP
00012000000000000000
0008D300000000000000
002FFE50000000000000
003FFFF7000000000000
02CFFFFF900000000000
5CFFFFFFFB1000000000
49EFFFFFFFE600000000
00037CFFFFFF20000000
000000169EFE10000000
00000000003500000000
00000000000000000000
00000000155633000000
0000001AFFFFFF951000
000004EFFFFFFFFFD200
00003FFFFFFFFFFFFA30
0001EFFFFFFFFFFFFFC0
0008FFFFFFFFFFFFFFD0
000DFFFFFFFFFFFFFFE0
000FFFFFFFFFFFFFFFF1
000CFFFFFFFFFFFFFFF4
000BFFFFFFFFFFFFFFE0
000AFFFFFFFFFFFFFFF0
0008FFFFFFDDFFFFFFE1
0006FFFFFF41FFFFFFF3
0003FFFFFA009FFFFFF3
0001FFFFF8007FFFFFF2
0000DFFFF6006FFFFFF1
0000BFFFF5004FFFFFF0
0000AFFFF6003FFFFFD0
00009FFFF8003FFFFF70
00007FFFF9003FFFFF10
00003FFFFA009FFFFE00
00000EFFFE009FFFFD00
00000BFFFF40CFFFF700
00000BFFFFC7FFFFF500
00000BFFFFFFFFFFE100
000002EFFFFFFFFF7000
0000005DFFFFFFFF0000
00000001BF52FF8D0000
000000001E00EA080000
000000000600D5020000
00000000000010000000
ENDCHAR
STARTCHAR Oacute
ENCODING 211
SWIDTH 504 0
DWIDTH 18 0
BBX 20 42 1 -4
BITMAP
00000000000000002000
000000000000000AE100
00000000000001CFF900
0000000000002DFFF900
000000000004EFFFFF60
00000000005FFFFFFFF9
000000001BFFFFFFFFB6
00000000AFFFFFE95100
000000008FFB73000000
00000000261000000000
00000000000000000000
00000155633000000000
0001AFFFFFF951000000
004EFFFFFFFFFD200000
03FFFFFFFFFFFFA30000
1EFFFFFFFFFFFFFC0000
8FFFFFFFFFFFFFFD0000
DFFFFFFFFFFFFFFE0000
FFFFFFFFFFFFFFFF1000
CFFFFFFFFFFFFFFF4000
BFFFFFFFFFFFFFFE0000
AFFFFFFFFFFFFFFF0000
8FFFFFFDDFFFFFFE1000
6FFFFFF41FFFFFFF3000
3FFFFFA009FFFFFF3000
1FFFFF8007FFFFFF2000
0DFFFF6006FFFFFF1000
0BFFFF5004FFFFFF0000
0AFFFF6003FFFFFD0000
09FFFF8003FFFFF70000
07FFFF9003FFFFF10000
03FFFFA009FFFFE00000
00EFFFE009FFFFD00000
00BFFFF40CFFFF700000
00BFFFFC7FFFFF500000
00BFFFFFFFFFFE100000
002EFFFFFFFFF7000000
0005DFFFFFFFF0000000
00001BF52FF8D0000000
000001E00EA080000000
000000600D5020000000
00000000010000000000
ENDCHAR
STARTCHAR Ocircumflex
ENCODING 212
SWIDTH 504 0
DWIDTH 18 0
BBX 18 45 0 -4
BITMAP
000006654687000000
00003FFFFFFF200000
00009FFFFFFFA00000
0001FFFFFFFFF30000
0008FFFFFFFFFB0000
000EFFFFFFFFFF3000
006FFFFD3EFFFFB000
00CFFFE204FFFFF400
04FFFF40006FFFFB00
0BFFF5000008FFFF40
2FFF60000000AFFF90
3DF9000000000BFA00
016000000000016000
000000000000000000
000000155633000000
00001AFFFFFF951000
0004EFFFFFFFFFD200
003FFFFFFFFFFFFA30
01EFFFFFFFFFFFFFC0
08FFFFFFFFFFFFFFD0
0DFFFFFFFFFFFFFFE0
0FFFFFFFFFFFFFFFF1
0CFFFFFFFFFFFFFFF4
0BFFFFFFFFFFFFFFE0
0AFFFFFFFFFFFFFFF0
08FFFFFFDDFFFFFFE1
06FFFFFF41FFFFFFF3
03FFFFFA009FFFFFF3
01FFFFF8007FFFFFF2
00DFFFF6006FFFFFF1
00BFFFF5004FFFFFF0
00AFFFF6003FFFFFD0
009FFFF8003FFFFF70
007FFFF9003FFFFF10
003FFFFA009FFFFE00
000EFFFE009FFFFD00
000BFFFF40CFFFF700
000BFFFFC7FFFFF500
000BFFFFFFFFFFE100
0002EFFFFFFFFF7000
00005DFFFFFFFF0000
000001BF52FF8D0000
0000001E00EA080000
0000000600D5020000
000000000010000000
ENDCHAR
STARTCHAR Otilde
ENCODING 213
SWIDTH 504 0
DWIDTH 18 0
BBX 19 42 -1 -4
BITMAP
00000000000120000000
000491000026FC400000
009FFB0003BFFFF70000
1CFFFF93AFFFFFFF5000
0DFFFFFFFFFFFFFFD300
02EFFFFFFFFFFFFFF300
005FFFFFFFEEFFFF8000
0007FFFFE8106EE60000
000038B7100003200000
00000000000000000000
00000000000000000000
00000001556330000000
000001AFFFFFF9510000
00004EFFFFFFFFFD2000
0003FFFFFFFFFFFFA300
001EFFFFFFFFFFFFFC00
008FFFFFFFFFFFFFFD00
00DFFFFFFFFFFFFFFE00
00FFFFFFFFFFFFFFFF10
00CFFFFFFFFFFFFFFF40
00BFFFFFFFFFFFFFFE00
00AFFFFFFFFFFFFFFF00
008FFFFFFDDFFFFFFE10
006FFFFFF41FFFFFFF30
003FFFFFA009FFFFFF30
001FFFFF8007FFFFFF20
000DFFFF6006FFFFFF10
000BFFFF5004FFFFFF00
000AFFFF6003FFFFFD00
0009FFFF8003FFFFF700
0007FFFF9003FFFFF100
0003FFFFA009FFFFE000
0000EFFFE009FFFFD000
0000BFFFF40CFFFF7000
0000BFFFFC7FFFFF5000
0000BFFFFFFFFFFE1000
00002EFFFFFFFFF70000
000005DFFFFFFFF00000
0000001BF52FF8D00000
00000001E00EA0800000
00000000600D50200000
00000000000100000000
ENDCHAR
STARTCHAR Odieresis
ENCODING 214
SWIDTH 504 0
DWIDTH 18 0
BBX 18 42 0 -4
BITMAP
023101000002279972
AFFFDFE200BFFFFFFA
CFFFFFF300BFFFFFF9
CFFFFFF300BFFFFFF9
CFFFFFF300AFFFFFF6
DFFFFFF300AFFFFFFB
DFFFFFF300AFFFFFFB
CFFFFFF200AFFFFFFA
AFFFFFF1008EFDBBD7
000222100000000000
000000000000000000
000000155633000000
00001AFFFFFF951000
0004EFFFFFFFFFD200
003FFFFFFFFFFFFA30
01EFFFFFFFFFFFFFC0
08FFFFFFFFFFFFFFD0
0DFFFFFFFFFFFFFFE0
0FFFFFFFFFFFFFFFF1
0CFFFFFFFFFFFFFFF4
0BFFFFFFFFFFFFFFE0
0AFFFFFFFFFFFFFFF0
08FFFFFFDDFFFFFFE1
06FFFFFF41FFFFFFF3
03FFFFFA009FFFFFF3
01FFFFF8007FFFFFF2
00DFFFF6006FFFFFF1
00BFFFF5004FFFFFF0
00AFFFF6003FFFFFD0
009FFFF8003FFFFF70
007FFFF9003FFFFF10
003FFFFA009FFFFE00
000EFFFE009FFFFD00
000BFFFF40CFFFF700
000BFFFFC7FFFFF500
000BFFFFFFFFFFE100
0002EFFFFFFFFF7000
00005DFFFFFFFF0000
000001BF52FF8D0000
0000001E00EA080000
0000000600D5020000
000000000010000000
ENDCHAR
STARTCHAR multiply
ENCODING 215
SWIDTH 359 0
DWIDTH 13 0
BBX 13 15 0 6
BITMAP
00002000040000
000AD2008F4000
009FF904FFE300
1BFFFF6EFFFD10
6FFFFFFFFFFF70
06FFFFFFFFFB00
005FFFFFFF8000
0009FFFFFF2000
006FFFFFFFD100
07FFFFFFFFFB00
3FFFFFFFFFFF70
08FFFFAEFFFF40
00BFFB03EFF500
001DC1005F5000
00011000020000
ENDCHAR
STARTCHAR Oslash
ENCODING 216
SWIDTH 658 0
DWIDTH 24 0
BBX 25 31 -1 -4
BITMAP
00000000146544000000000000
00000019EFFFFFD84000000000
000003DFFFFFFFFFFB00000010
00003EFFFFFFFFFFFF810009A0
0001DFFFFFFFFFFFFFF700BD10
0007FFFFFFFFFFFFFFF91BD200
000CFFFFFFFFFFFFFFFABD2000
000EFFFFFFFFFFFFFFFFE10000
000BFFFFFFFFFFFFFFFF400000
000AFFFFFFFFFFFFFFF9000000
0009FFFFFFFFFFFFFFFA000000
0007FFFFFFFCFFFFFFFB000000
0005FFFFFF60BFFFFFFD000000
0003FFFFFC003FFFFFFD000000
0000FFFFF9006FFFFFFC000000
0000CFFFF605FFFFFFFC000000
0000AFFFF64FACFFFFFA000000
00009FFFFAEB0CFFFFF8000000
00008FFFFFB00CFFFFF3000000
00006FFFFC100CFFFFC0000000
00002FFFFC003EFFFFA0000000
00000DFFFF103FFFFF90000000
00000CFFFF607FFFFF20000000
0000BFFFFFE6EFFFFF10000000
001BBAFFFFFFFFFFFB00000000
00BC12EFFFFFFFFFF300000000
09C1004DFFFFFFFFB000000000
6C100001AF81CFDA8000000000
510000001F208F345000000000
0000000007007C020000000000
00000000000010000000000000
ENDCHAR
STARTCHAR Ugrave
ENCODING 217
SWIDTH 637 0
DWIDTH 23 0
BBX 23 41 0 -3
BITMAP
000011000000000000000000
0000AC200000000000000000
0004FFD30000000000000000
0005FFFE5000000000000000
002DFFFFF700000000000000
07DFFFFFFF91000000000000
05AEFFFFFFFD400000000000
000048DFFFFFE00000000000
0000000269EFC00000000000
000000000004400000000000
000000000000000000000000
000257999930042111000000
4BFFFFFFFF0008FFFEB84000
00CFFFFFFF1009FFFFFFFB10
003FFFFFFF100BFFFFFFA000
001FFFFFFF100EFFFFFF3000
001FFFFFFC000CFFFFFF2000
000DFFFFFE000CFFFFFD0000
000BFFFFFF400DFFFFF90000
0008FFFFFF500DFFFFF60000
0006FFFFFF500EFFFFF20000
0004FFFFFF500EFFFFD00000
0002FFFFFF400FFFFFA00000
0000FFFFFF200FFFFF600000
0000DFFFFE001FFFFF400000
0000CFFFFB003FFFFF200000
0000AFFFFA004FFFFF100000
0000DFFFFC004FFFFF000000
0000DFFFFF006FFFFF000000
0000AFFFFF007FFFFC000000
00009FFFFF408FFFFB000000
00007FFFFF50AFFFF9000000
00002FFFFF60CFFFF6000000
00000FFFFFDAFFFFF3000000
00000CFFFFFFFFFFE1000000
000009FFFFFFFFFFA0000000
000004EFFF4CFFFF30000000
0000003FCE06664100000000
0000000A7105074000000000
0000000320010B2000000000
000000000000020000000000
ENDCHAR
STARTCHAR Uacute
ENCODING 218
SWIDTH 637 0
DWIDTH 23 0
BBX 24 42 0 -3
BITMAP
000000000000000000002000
0000000000000000001CC000
000000000000000002DFF600
00000000000000004EFFF600
0000000000000005FFFFFE40
000000000000007FFFFFFFE8
0000000000003CFFFFFFFEA5
000000000000CFFFFFD94000
000000000000AFFA73000000
000000000000351000000000
000000000000000000000000
000000000000000000000000
000257999930042111000000
4BFFFFFFFF0008FFFEB84000
00CFFFFFFF1009FFFFFFFB10
003FFFFFFF100BFFFFFFA000
001FFFFFFF100EFFFFFF3000
001FFFFFFC000CFFFFFF2000
000DFFFFFE000CFFFFFD0000
000BFFFFFF400DFFFFF90000
0008FFFFFF500DFFFFF60000
0006FFFFFF500EFFFFF20000
0004FFFFFF500EFFFFD00000
0002FFFFFF400FFFFFA00000
0000FFFFFF200FFFFF600000
0000DFFFFE001FFFFF400000
0000CFFFFB003FFFFF200000
0000AFFFFA004FFFFF100000
0000DFFFFC004FFFFF000000
0000DFFFFF006FFFFF000000
0000AFFFFF007FFFFC000000
00009FFFFF408FFFFB000000
00007FFFFF50AFFFF9000000
00002FFFFF60CFFFF6000000
00000FFFFFDAFFFFF3000000
00000CFFFFFFFFFFE1000000
000009FFFFFFFFFFA0000000
000004EFFF4CFFFF30000000
0000003FCE06664100000000
0000000A7105074000000000
0000000320010B2000000000
000000000000020000000000
ENDCHAR
STARTCHAR Ucircumflex
ENCODING 219
SWIDTH 637 0
DWIDTH 23 0
BBX 23 45 0 -3
BITMAP
000000007654696000000000
00000005FFFFFFE100000000
0000000CFFFFFFF700000000
0000003FFFFFFFFE10000000
000000AFFFFFFFFF80000000
000002FFFFFFFFFFE1000000
000008FFFFB4FFFFF8000000
00001EFFFC106FFFFF200000
00007FFFE20008FFFF900000
0000DFFE300000AFFFF20000
0005FFF40000001CFFF60000
0004EF6000000001DF800000
000025000000000025000000
000000000000000000000000
000000000000000000000000
000257999930042111000000
4BFFFFFFFF0008FFFEB84000
00CFFFFFFF1009FFFFFFFB10
003FFFFFFF100BFFFFFFA000
001FFFFFFF100EFFFFFF3000
001FFFFFFC000CFFFFFF2000
000DFFFFFE000CFFFFFD0000
000BFFFFFF400DFFFFF90000
0008FFFFFF500DFFFFF60000
0006FFFFFF500EFFFFF20000
0004FFFFFF500EFFFFD00000
0002FFFFFF400FFFFFA00000
0000FFFFFF200FFFFF600000
0000DFFFFE001FFFFF400000
0000CFFFFB003FFFFF200000
0000AFFFFA004FFFFF100000
0000DFFFFC004FFFFF000000
0000DFFFFF006FFFFF000000
0000AFFFFF007FFFFC000000
00009FFFFF408FFFFB000000
00007FFFFF50AFFFF9000000
00002FFFFF60CFFFF6000000
00000FFFFFDAFFFFF3000000
00000CFFFFFFFFFFE1000000
000009FFFFFFFFFFA0000000
000004EFFF4CFFFF30000000
0000003FCE06664100000000
0000000A7105074000000000
0000000320010B2000000000
000000000000020000000000
ENDCHAR
STARTCHAR Udieresis
ENCODING 220
SWIDTH 637 0
DWIDTH 23 0
BBX 23 41 0 -3
BITMAP
00002310100001238A961000
000CFFFDFD000DFFFFFF7000
000EFFFFFF000DFFFFFF7000
000FFFFFFF000DFFFFFF6000
000FFFFFFF000DFFFFFF4000
000FFFFFFF100DFFFFFF9000
000FFFFFFF000DFFFFFF8000
000FFFFFFE000DFFFFFF7000
000CFFFFFD000AFFDBCC5000
000000222100000000000000
000000000000000000000000
000257999930042111000000
4BFFFFFFFF0008FFFEB84000
00CFFFFFFF1009FFFFFFFB10
003FFFFFFF100BFFFFFFA000
001FFFFFFF100EFFFFFF3000
001FFFFFFC000CFFFFFF2000
000DFFFFFE000CFFFFFD0000
000BFFFFFF400DFFFFF90000
0008FFFFFF500DFFFFF60000
0006FFFFFF500EFFFFF20000
0004FFFFFF500EFFFFD00000
0002FFFFFF400FFFFFA00000
0000FFFFFF200FFFFF600000
0000DFFFFE001FFFFF400000
0000CFFFFB003FFFFF200000
0000AFFFFA004FFFFF100000
0000DFFFFC004FFFFF000000
0000DFFFFF006FFFFF000000
0000AFFFFF007FFFFC000000
00009FFFFF408FFFFB000000
00007FFFFF50AFFFF9000000
00002FFFFF60CFFFF6000000
00000FFFFFDAFFFFF3000000
00000CFFFFFFFFFFE1000000
000009FFFFFFFFFFA0000000
000004EFFF4CFFFF30000000
0000003FCE06664100000000
0000000A7105074000000000
0000000320010B2000000000
000000000000020000000000
ENDCHAR
STARTCHAR Yacute
ENCODING 221
SWIDTH 688 0
DWIDTH 25 0
BBX 26 41 0 -2
BITMAP
00000000000000000000020000
00000000000000000001BD1000
0000000000000000002CFF7000
000000000000000003DFFF8000
00000000000000004EFFFFF500
0000000000000006FFFFFFFF90
00000000000002CFFFFFFFEB60
0000000000000BFFFFFD951000
00000000000009FFB730000000
00000000000002610000000000
00000000000000000000000000
00000000000000000000000000
00014468882000058200000000
39DFFFFFFF900009FFCA651000
02AFFFFFFFF2000DFFFFFFD851
0003DFFFFFFB001EFFFFFFFC72
000008FFFFFF306FFFFFFF6000
000000AFFFFFB0DFFFFFF70000
0000003EFFFFF8FFFFFF700000
00000002DFFFFFFFFFFA000000
000000006FFFFFFFFFC1000000
000000001EFFFFFFFF50000000
0000000008FFFFFFFF30000000
0000000002FFFFFFFF10000000
0000000000DFFFFFFE00000000
00000000008FFFFFFC00000000
00000000001EFFFFFB00000000
000000000009FFFFF900000000
000000000005FFFFF800000000
000000000001FFFFF700000000
000000000000DFFFF600000000
000000000000BFFFF500000000
0000000000009FFFF400000000
0000000000007FFFF400000000
0000000000006FFFF300000000
0000000000005FFFF300000000
0000000000004FFFF200000000
0000000000002FFFF000000000
0000000000001FFFD000000000
0000000000000FFA7000000000
00000000000004100000000000
ENDCHAR
STARTCHAR Thorn
ENCODING 222
SWIDTH 521 0
DWIDTH 19 0
BBX 18 38 0 -5
BITMAP
036A88BAAC90000000
9FFFFFFFFF30000000
2FFFFFFFFF00000000
2FFFFFFFFD00000000
0FFFFFFFFA00000000
0DFFFFFFF700000000
0BFFFFFFFC49544000
08FFFFFFFFFFFFFD20
06FFFFFFFFFFFFFFC0
04FFFFFFFFFFFFFFF3
03FFFFFFFFFFFFFFF7
02FFFFFFFFFFFFFFF9
01FFFFFFFFFFFFFFFA
00FFFFFFFFFFFFFFFA
00EFFFFFFFFFFFFFF9
00DFFFFFFFFFFFFFF8
00BFFFFFFFFFFFFFF7
009FFFFFFA99EFFFF5
007FFFFFF8008FFFF3
004FFFFFF7004FFFF1
001FFFFFF8003FFFE0
000EFFFFF8003FFFB0
000BFFFFF8002FFF80
0008FFFFFD9ABFFF40
0005FFFFFFFFFFFE10
0003FFFFFFFFFFF900
0000FFFFFFFFFFD100
0000BFFFFB23362000
00009FFFF900000000
0000DFFFFA00000000
0000EFFFFB00000000
0000BFFFFC00000000
00007FFFFB00000000
00003FAAFD00000000
00001F21C700000000
00000F209600000000
00000C50C000000000
000003204000000000
ENDCHAR
STARTCHAR germandbls
ENCODING 223
SWIDTH 546 0
DWIDTH 20 0
BBX 18 30 1 -3
BITMAP
000000012232200000
0028CEFFFFFFFFC500
01DFFFFFFFFFFFFF70
0AFFFFFFFFFFFFFFF2
2FFFFFFFFFFFFFFFF7
6FFFFFFFFFFFFFFFF9
8FFFFFFFFFFFFFFFF9
8FFFFFFFFFFFFFFFF8
6FFFFFFFFFFFFFFFF8
BFFFFFFFFFFFFFFFFA
BFFFFFFFFFFFFFFFF6
9FFFFFFFFFFFFFFFE1
7FFFFFFB019FFFFF90
5FFFFFF8004FFFFF30
2FFFFFF8004FFFFD00
0FFFFFF8007FFFF700
0DFFFFF74A9FFFF100
0AFFFFF74FFFFFE000
08FFFFF73FFFFC4000
05FFFFF73FFFFE5000
03FFFFF72FFFFFE100
02FFFFF500BFFFF300
02FFFFF8009FFFF200
01FFFFF7009FFFE000
00EFFFF700AFFFB000
009FFFF648EFFF9000
004FFFF66FFFFF5000
006FFDF67FFFFD0000
003B03C34BFFF50000
000000000047700000
ENDCHAR
STARTCHAR agrave
ENCODING 224
SWIDTH 479 0
DWIDTH 17 0
BBX 20 43 -2 -4
BITMAP
00002000000000000000
0002E800000000000000
000AFFA1000000000000
000BFFFC200000000000
006FFFFFE30000000000
0AFFFFFFFE5000000000
17CFFFFFFFFB10000000
00015AEFFFFF90000000
000000047BFF70000000
00000000001610000000
00000000000000000000
00000000000000000000
00013578ABCCC8ACDDC5
004EFFFFFFFFFFFFFF40
0004EFFFFFFFFFFFF700
00004FFFFFFFFFFFF100
000005FFFFFFFFFFB000
000005FFFFFFFFFF9000
000004FFFFFFFFFF8000
000002FFFFFFFFFF8000
000000EFFFFFFFFF8000
000001EFFFFFFFFF8000
000005FFFFFFFFFF7000
000004FFFFFFFFFF5000
000002FFFFFFFFFF3000
000000EFFFFEFFFE2000
000000DFFFFBFFFF3000
000001FFFFB8FFFF6000
000004FFFF87FFFF8000
000005FFFF54FFFF5000
000007FFFF33FFFF9000
000008FFFF03FFFFA000
000008FFFF01FFFF7000
000005FFFD99FFFF6000
000004FFFFFFFFFF5000
00000BFFFFFFFFFF3000
000009FFFFEFFFFF1000
000005FFFF45FFFF0000
000006FFFF10CFFE0000
000007FFF900AFFE0000
000006FFF400AEFD0000
000002FFC10002450000
00000012100000000000
ENDCHAR
STARTCHAR aacute
ENCODING 225
SWIDTH 479 0
DWIDTH 17 0
BBX 22 43 0 -4
BITMAP
0000000000000000020000
00000000000000004E7000
0000000000000006FFF100
000000000000008FFFF100
0000000000000AFFFFFB20
000000000001BFFFFFFFC4
00000000006EFFFFFFFD93
0000000003FFFFFFC73000
0000000001FFE951000000
0000000000540000000000
0000000000000000000000
0000000000000000000000
013578ABCCC8ACDDC50000
4EFFFFFFFFFFFFFF400000
04EFFFFFFFFFFFF7000000
004FFFFFFFFFFFF1000000
0005FFFFFFFFFFB0000000
0005FFFFFFFFFF90000000
0004FFFFFFFFFF80000000
0002FFFFFFFFFF80000000
0000EFFFFFFFFF80000000
0001EFFFFFFFFF80000000
0005FFFFFFFFFF70000000
0004FFFFFFFFFF50000000
0002FFFFFFFFFF30000000
0000EFFFFEFFFE20000000
0000DFFFFBFFFF30000000
0001FFFFB8FFFF60000000
0004FFFF87FFFF80000000
0005FFFF54FFFF50000000
0007FFFF33FFFF90000000
0008FFFF03FFFFA0000000
0008FFFF01FFFF70000000
0005FFFD99FFFF60000000
0004FFFFFFFFFF50000000
000BFFFFFFFFFF30000000
0009FFFFEFFFFF10000000
0005FFFF45FFFF00000000
0006FFFF10CFFE00000000
0007FFF900AFFE00000000
0006FFF400AEFD00000000
0002FFC100024500000000
0000121000000000000000
ENDCHAR
STARTCHAR acircumflex
ENCODING 226
SWIDTH 479 0
DWIDTH 17 0
BBX 18 46 0 -4
BITMAP
000003764579200000
00000AFFFFFFA00000
00002FFFFFFFF20000
00009FFFFFFFFA0000
0001EFFFFFFFFF3000
0007FFFFFFFFFFA000
000DFFFF68FFFFF300
005FFFF800BFFFFB00
00CFFFA0001DFFFF40
03FFFC100002EFFFB0
0AFFD10000003FFFE1
08FE2000000005FE30
004300000000004200
000000000000000000
000000000000000000
013578ABCCC8ACDDC5
4EFFFFFFFFFFFFFF40
04EFFFFFFFFFFFF700
004FFFFFFFFFFFF100
0005FFFFFFFFFFB000
0005FFFFFFFFFF9000
0004FFFFFFFFFF8000
0002FFFFFFFFFF8000
0000EFFFFFFFFF8000
0001EFFFFFFFFF8000
0005FFFFFFFFFF7000
0004FFFFFFFFFF5000
0002FFFFFFFFFF3000
0000EFFFFEFFFE2000
0000DFFFFBFFFF3000
0001FFFFB8FFFF6000
0004FFFF87FFFF8000
0005FFFF54FFFF5000
0007FFFF33FFFF9000
0008FFFF03FFFFA000
0008FFFF01FFFF7000
0005FFFD99FFFF6000
0004FFFFFFFFFF5000
000BFFFFFFFFFF3000
0009FFFFEFFFFF1000
0005FFFF45FFFF0000
0006FFFF10CFFE0000
0007FFF900AFFE0000
0006FFF400AEFD0000
0002FFC10002450000
000012100000000000
ENDCHAR
STARTCHAR atilde
ENCODING 227
SWIDTH 479 0
DWIDTH 17 0
BBX 18 42 0 -4
BITMAP
000000000002000000
00194000004CE81000
03DFF40016FFFFD100
5FFFFE46EFFFFFFB00
6FFFFFFFFFFFFFFF90
09FFFFFFFFFFFFFFA0
01CFFFFFFFEFFFFD20
002DFFFFB402BFB100
00016AA40000050000
000000000000000000
000000000000000000
013578ABCCC8ACDDC5
4EFFFFFFFFFFFFFF40
04EFFFFFFFFFFFF700
004FFFFFFFFFFFF100
0005FFFFFFFFFFB000
0005FFFFFFFFFF9000
0004FFFFFFFFFF8000
0002FFFFFFFFFF8000
0000EFFFFFFFFF8000
0001EFFFFFFFFF8000
0005FFFFFFFFFF7000
0004FFFFFFFFFF5000
0002FFFFFFFFFF3000
0000EFFFFEFFFE2000
0000DFFFFBFFFF3000
0001FFFFB8FFFF6000
0004FFFF87FFFF8000
0005FFFF54FFFF5000
0007FFFF33FFFF9000
0008FFFF03FFFFA000
0008FFFF01FFFF7000
0005FFFD99FFFF6000
0004FFFFFFFFFF5000
000BFFFFFFFFFF3000
0009FFFFEFFFFF1000
0005FFFF45FFFF0000
0006FFFF10CFFE0000
0007FFF900AFFE0000
0006FFF400AEFD0000
0002FFC10002450000
000012100000000000
ENDCHAR
STARTCHAR adieresis
ENCODING 228
SWIDTH 479 0
DWIDTH 17 0
BBX 19 42 0 -4
BITMAP
01330010000124998400
4EFFEDF8005EFFFFFF20
4FFFFFFA004FFFFFFF10
5FFFFFFA003FFFFFFF10
5FFFFFFA003FFFFFFD00
6FFFFFFA003FFFFFFF30
6FFFFFFA003FFFFFFF30
5FFFFFF9003FFFFFFF20
4EFFFFF8003CFECADC00
00013210000000000000
00000000000000000000
013578ABCCC8ACDDC500
4EFFFFFFFFFFFFFF4000
04EFFFFFFFFFFFF70000
004FFFFFFFFFFFF10000
0005FFFFFFFFFFB00000
0005FFFFFFFFFF900000
0004FFFFFFFFFF800000
0002FFFFFFFFFF800000
0000EFFFFFFFFF800000
0001EFFFFFFFFF800000
0005FFFFFFFFFF700000
0004FFFFFFFFFF500000
0002FFFFFFFFFF300000
0000EFFFFEFFFE200000
0000DFFFFBFFFF300000
0001FFFFB8FFFF600000
0004FFFF87FFFF800000
0005FFFF54FFFF500000
0007FFFF33FFFF900000
0008FFFF03FFFFA00000
0008FFFF01FFFF700000
0005FFFD99FFFF600000
0004FFFFFFFFFF500000
000BFFFFFFFFFF300000
0009FFFFEFFFFF100000
0005FFFF45FFFF000000
0006FFFF10CFFE000000
0007FFF900AFFE000000
0006FFF400AEFD000000
0002FFC1000245000000
00001210000000000000
ENDCHAR
STARTCHAR aring
ENCODING 229
SWIDTH 479 0
DWIDTH 17 0
BBX 18 44 0 -4
BITMAP
000000158874000000
000003DFFFFF800000
00001DFFFFFFF70000
00005FFD87CFFF2000
00006FF6000BFF1000
00003FF50008FF2000
00000EF70009F90000
00000BFE96AFF20000
000009FFFFFF800000
0000038AFFFB100000
000000004860000000
000000000000000000
000000000000000000
013578ABCCC8ACDDC5
4EFFFFFFFFFFFFFF40
04EFFFFFFFFFFFF700
004FFFFFFFFFFFF100
0005FFFFFFFFFFB000
0005FFFFFFFFFF9000
0004FFFFFFFFFF8000
0002FFFFFFFFFF8000
0000EFFFFFFFFF8000
0001EFFFFFFFFF8000
0005FFFFFFFFFF7000
0004FFFFFFFFFF5000
0002FFFFFFFFFF3000
0000EFFFFEFFFE2000
0000DFFFFBFFFF3000
0001FFFFB8FFFF6000
0004FFFF87FFFF8000
0005FFFF54FFFF5000
0007FFFF33FFFF9000
0008FFFF03FFFFA000
0008FFFF01FFFF7000
0005FFFD99FFFF6000
0004FFFFFFFFFF5000
000BFFFFFFFFFF3000
0009FFFFEFFFFF1000
0005FFFF45FFFF0000
0006FFFF10CFFE0000
0007FFF900AFFE0000
0006FFF400AEFD0000
0002FFC10002450000
000012100000000000
ENDCHAR
STARTCHAR ae
ENCODING 230
SWIDTH 755 0
DWIDTH 27 0
BBX 27 31 0 -4
BITMAP
013578ABCCC8ACDCBA8631000000
3EFFFFFFFFFFFFFFFFFFFFDB8610
04EFFFFFFFFFFFFFFFFFFFFFFA00
003EFFFFFFFFFFFFFFFFFFFFE100
0003FFFFFFFFFFFFFFFFFFFF7000
0002FFFFFFFFFFFFFFFFFFFE1000
0001FFFFFFFFFFFFFFFFFFF90000
0000EFFFFFFFFFFFFFFFFFF60000
0000BFFFFFFFFFFFFFFFFFF20000
0000CFFFFFFFFFFFFFFFFFF10000
0002FFFFFFFFFFFFFFFFFFF00000
0002FFFFFFFFFFFFFFFFFFD00000
0000EFFFFFFFFFFD68AEFFA00000
0000BFFFFEFFFFFF000038600000
0000AFFFFBFFFFFF000000000000
0000DFFFE6FFFFFF111100000000
0001FFFFC4FFFFFFFFFFB0000000
0002FFFF91FFFFFFFFFFB0000000
0004FFFF70FFFFFFFFFFB0000000
0005FFFF31EFFFFFFFFF80000000
0005FFFF40DFFFFFDCCE50000000
0003FFFF99EFFFFF000310000000
0002FFFFFFFFFFFF000000000000
0007FFFFFFFFFFFF6A8762000000
0004FFFFEFFFFFFFDFFFF4000000
0000FFFF73FFFFFFFFFFF1000000
0003FFFF40AFFFFFFFFFD0000000
0004FFF9109FFC1BFEBCD0000000
0004FFF6009EF9023000B0000000
0001EED300024400000040000000
0000112000000000000000000000
ENDCHAR
STARTCHAR ccedilla
ENCODING 231
SWIDTH 534 0
DWIDTH 19 0
BBX 19 41 0 -14
BITMAP
000000268CCB95000000
000019FFFFFFFFC20000
0001CFFFFFFFFFFD3000
005DFFFFFFFFFFFFF400
01EFFFFFFFFFFFFFFB00
07FFFFFFFFFFFFFFFF80
0CFFFFFFFFFFFFFFFF30
0EFFFFFFFFFFFFFFFF30
1FFFFFFFFFFFFFFFFF50
0FFFFFFFFFFFFFFFFF50
0DFFFFFFFFFFFFFFFF40
0AFFFFFFFFFFFFFFFF30
07FFFFFFFA2EFFFFFF10
03FFFFFFE005FFFFFF00
00EFFFFFA000EFFFFD00
009FFFFFE000EFFFFB00
009FFFFFE00024767700
008FFFFFA00000000000
005FFFFFA00000000000
002FFFFFB00000000000
000EFFFFD001DD830000
0009FFFFF107FFFF4000
0007FFFFF40BFFFE0000
0004FFFFF82FFFFD0000
0000CFFFFECFFFFB0000
00005FFFFFFFFFF50000
00001EFFFFFFFF800000
0000078BBDCFF7000000
000000057267C0000000
00000000006FF6000000
0000000000BFF2000000
0000000001FFB0000000
0000000005FF40000000
000000000AFE74530000
000000000BFFFFFB0000
00000000069BDFFA0000
0000000000004FF90000
0000000000003FF80000
000000000478BFF80000
000000000BFFFFF80000
0000000007CACEE60000
ENDCHAR
STARTCHAR egrave
ENCODING 232
SWIDTH 632 0
DWIDTH 23 0
BBX 22 41 0 -3
BITMAP
0000200000000000000000
0002E80000000000000000
000AFFA000000000000000
000BFFFC10000000000000
007FFFFFD3000000000000
0AFFFFFFFE500000000000
17CFFFFFFFFA1000000000
00016AEFFFFF8000000000
000000047CFF6000000000
0000000000161000000000
0000000000000000000000
0000002456677654310000
0059CFFFFFFFFFFFFFDB84
1DFFFFFFFFFFFFFFFFFFF3
04FFFFFFFFFFFFFFFFFF80
008FFFFFFFFFFFFFFFFE10
001EFFFFFFFFFFFFFFF800
0008FFFFFFFFFFFFFFF200
0008FFFFFFFFFFFFFFE000
0005FFFFFFFFFFFFFFA000
0003FFFFFFFFFFFFFF9000
0001FFFFFFFFFFFFFF8000
0000DFFFFFFFFFFFFF6000
0000AFFFFFE68ABFFF3000
00008FFFFFF100014A0000
00005FFFFFF10000000000
00003FFFFFF11111000000
00000FFFFFFFFFFF400000
00000AFFFFFFFFFF400000
00000AFFFFFFFFFF400000
000009FFFFFFFFFF300000
000007FFFFFDCCDF100000
000005FFFFF00006000000
000003FFFFF00000000000
000001FFFFF5A876500000
000000DFFFFDFFFFC00000
000000AFFFFFFFFF900000
0000007FFFFFFFFF700000
0000003F30BFFCBE600000
0000001800242007500000
0000000000000002200000
ENDCHAR
STARTCHAR eacute
ENCODING 233
SWIDTH 632 0
DWIDTH 23 0
BBX 24 42 0 -3
BITMAP
000000000000000000020000
0000000000000000005E6000
000000000000000006FFE000
00000000000000009FFFE100
000000000000001AFFFFFB10
00000000000002CFFFFFFFC4
0000000000007EFFFFFFFD83
000000000003FFFFFFB72000
000000000002FFD951000000
000000000000630000000000
000000000000000000000000
000000000000000000000000
000000245667765431000000
0059CFFFFFFFFFFFFFDB8400
1DFFFFFFFFFFFFFFFFFFF300
04FFFFFFFFFFFFFFFFFF8000
008FFFFFFFFFFFFFFFFE1000
001EFFFFFFFFFFFFFFF80000
0008FFFFFFFFFFFFFFF20000
0008FFFFFFFFFFFFFFE00000
0005FFFFFFFFFFFFFFA00000
0003FFFFFFFFFFFFFF900000
0001FFFFFFFFFFFFFF800000
0000DFFFFFFFFFFFFF600000
0000AFFFFFE68ABFFF300000
00008FFFFFF100014A000000
00005FFFFFF1000000000000
00003FFFFFF1111100000000
00000FFFFFFFFFFF40000000
00000AFFFFFFFFFF40000000
00000AFFFFFFFFFF40000000
000009FFFFFFFFFF30000000
000007FFFFFDCCDF10000000
000005FFFFF0000600000000
000003FFFFF0000000000000
000001FFFFF5A87650000000
000000DFFFFDFFFFC0000000
000000AFFFFFFFFF90000000
0000007FFFFFFFFF70000000
0000003F30BFFCBE60000000
000000180024200750000000
000000000000000220000000
ENDCHAR
STARTCHAR ecircumflex
ENCODING 234
SWIDTH 632 0
DWIDTH 23 0
BBX 22 45 0 -3
BITMAP
0000000376457920000000
0000000BFFFFFF90000000
0000003FFFFFFFF2000000
000000AFFFFFFFF9000000
000002FFFFFFFFFF200000
000008FFFFFFFFFFA00000
00001EFFFF59FFFFF20000
00006FFFF700BFFFFA0000
0000DFFF90001DFFFF3000
0004FFFB000003EFFFA000
000BFFC00000004FFFE100
0009FD2000000005FE3000
0000420000000000520000
0000000000000000000000
0000000000000000000000
0000002456677654310000
0059CFFFFFFFFFFFFFDB84
1DFFFFFFFFFFFFFFFFFFF3
04FFFFFFFFFFFFFFFFFF80
008FFFFFFFFFFFFFFFFE10
001EFFFFFFFFFFFFFFF800
0008FFFFFFFFFFFFFFF200
0008FFFFFFFFFFFFFFE000
0005FFFFFFFFFFFFFFA000
0003FFFFFFFFFFFFFF9000
0001FFFFFFFFFFFFFF8000
0000DFFFFFFFFFFFFF6000
0000AFFFFFE68ABFFF3000
00008FFFFFF100014A0000
00005FFFFFF10000000000
00003FFFFFF11111000000
00000FFFFFFFFFFF400000
00000AFFFFFFFFFF400000
00000AFFFFFFFFFF400000
000009FFFFFFFFFF300000
000007FFFFFDCCDF100000
000005FFFFF00006000000
000003FFFFF00000000000
000001FFFFF5A876500000
000000DFFFFDFFFFC00000
000000AFFFFFFFFF900000
0000007FFFFFFFFF700000
0000003F30BFFCBE600000
0000001800242007500000
0000000000000002200000
ENDCHAR
STARTCHAR edieresis
ENCODING 235
SWIDTH 632 0
DWIDTH 23 0
BBX 22 41 0 -3
BITMAP
0001320010000125998400
004EFFEEF8005EFFFFFF10
005FFFFFF9004FFFFFFF10
006FFFFFF9004FFFFFFF00
006FFFFFF9004FFFFFFD00
006FFFFFFA004FFFFFFF30
006FFFFFF9004FFFFFFF20
006FFFFFF8004FFFFFFF10
004EFFFFF7003CFECADC00
0000013210000000000000
0000000000000000000000
0000002456677654310000
0059CFFFFFFFFFFFFFDB84
1DFFFFFFFFFFFFFFFFFFF3
04FFFFFFFFFFFFFFFFFF80
008FFFFFFFFFFFFFFFFE10
001EFFFFFFFFFFFFFFF800
0008FFFFFFFFFFFFFFF200
0008FFFFFFFFFFFFFFE000
0005FFFFFFFFFFFFFFA000
0003FFFFFFFFFFFFFF9000
0001FFFFFFFFFFFFFF8000
0000DFFFFFFFFFFFFF6000
0000AFFFFFE68ABFFF3000
00008FFFFFF100014A0000
00005FFFFFF10000000000
00003FFFFFF11111000000
00000FFFFFFFFFFF400000
00000AFFFFFFFFFF400000
00000AFFFFFFFFFF400000
000009FFFFFFFFFF300000
000007FFFFFDCCDF100000
000005FFFFF00006000000
000003FFFFF00000000000
000001FFFFF5A876500000
000000DFFFFDFFFFC00000
000000AFFFFFFFFF900000
0000007FFFFFFFFF700000
0000003F30BFFCBE600000
0000001800242007500000
0000000000000002200000
ENDCHAR
STARTCHAR igrave
ENCODING 236
SWIDTH 411 0
DWIDTH 15 0
BBX 18 41 -4 -2
BITMAP
000020000000000000
0002E8000000000000
0009FFB10000000000
000AFFFC2000000000
006FFFFFE300000000
0AFFFFFFFF50000000
17CFFFFFFFFB100000
00015AEFFFFF900000
000000037BFF700000
000000000016100000
000000000000000000
000000000000000000
000000257996895210
00003DFFFFFFFFFFF9
000005FFFFFFFFFFD0
0000009FFFFFFFFFA0
00000008FFFFFFFF20
00000001EFFFFFFB00
000000009FFFFFFC00
000000009FFFFFFA00
00000000AFFFFFF600
00000000BFFFFFF300
00000000BFFFFFF000
00000000CFFFFFD000
00000000CFFFFFB000
00000000BFFFFF9000
000000009FFFFF8000
000000007FFFFF9000
000000005FFFFFB000
000000002FFFFFC000
000000000EFFFF6000
000000000CFFFF6000
0000000009FFFF2000
0000000008FFFF2000
0000000008FFFF2000
0000000007FFFF1000
0000000006FFFF0000
0000000005FFFE0000
0000000003E6ED0000
000000000030BD0000
000000000000011000
ENDCHAR
STARTCHAR iacute
ENCODING 237
SWIDTH 411 0
DWIDTH 15 0
BBX 20 41 0 -2
BITMAP
00000000000000020000
000000000000004E7000
00000000000006FFF100
0000000000008FFFF100
00000000000AFFFFFB20
0000000001BFFFFFFFC4
000000006EFFFFFFFD93
00000003FFFFFFC73000
00000001FFE951000000
00000000540000000000
00000000000000000000
00000000000000000000
00257996895210000000
3DFFFFFFFFFFF9000000
05FFFFFFFFFFD0000000
009FFFFFFFFFA0000000
0008FFFFFFFF20000000
0001EFFFFFFB00000000
00009FFFFFFC00000000
00009FFFFFFA00000000
0000AFFFFFF600000000
0000BFFFFFF300000000
0000BFFFFFF000000000
0000CFFFFFD000000000
0000CFFFFFB000000000
0000BFFFFF9000000000
00009FFFFF8000000000
00007FFFFF9000000000
00005FFFFFB000000000
00002FFFFFC000000000
00000EFFFF6000000000
00000CFFFF6000000000
000009FFFF2000000000
000008FFFF2000000000
000008FFFF2000000000
000007FFFF1000000000
000006FFFF0000000000
000005FFFE0000000000
000003E6ED0000000000
00000030BD0000000000
00000000011000000000
ENDCHAR
STARTCHAR icircumflex
ENCODING 238
SWIDTH 411 0
DWIDTH 15 0
BBX 17 44 0 -2
BITMAP
000037645792000000
0000BFFFFFF9000000
0003FFFFFFFF200000
000AFFFFFFFF900000
002FFFFFFFFFF20000
008FFFFFFFFFFA0000
01EFFFF59FFFFF2000
06FFFF700BFFFFA000
0DFFF90001DFFFF300
4FFFB000003EFFFA00
BFFC00000004FFFE10
9FD2000000005FE300
042000000000052000
000000000000000000
000000000000000000
002579968952100000
3DFFFFFFFFFFF90000
05FFFFFFFFFFD00000
009FFFFFFFFFA00000
0008FFFFFFFF200000
0001EFFFFFFB000000
00009FFFFFFC000000
00009FFFFFFA000000
0000AFFFFFF6000000
0000BFFFFFF3000000
0000BFFFFFF0000000
0000CFFFFFD0000000
0000CFFFFFB0000000
0000BFFFFF90000000
00009FFFFF80000000
00007FFFFF90000000
00005FFFFFB0000000
00002FFFFFC0000000
00000EFFFF60000000
00000CFFFF60000000
000009FFFF20000000
000008FFFF20000000
000008FFFF20000000
000007FFFF10000000
000006FFFF00000000
000005FFFE00000000
000003E6ED00000000
00000030BD00000000
000000000110000000
ENDCHAR
STARTCHAR idieresis
ENCODING 239
SWIDTH 411 0
DWIDTH 15 0
BBX 19 40 -2 -2
BITMAP
01330010000124998400
3EFFEDF8004EFFFFFF20
4FFFFFFA003FFFFFFF20
5FFFFFFA003FFFFFFF10
5FFFFFFA003FFFFFFE00
6FFFFFFB003FFFFFFF40
5FFFFFFA003FFFFFFF30
5FFFFFF9003FFFFFFF20
3EFFFFF8003CFECADC00
00013210000000000000
00000000000000000000
00002579968952100000
003DFFFFFFFFFFF90000
0005FFFFFFFFFFD00000
00009FFFFFFFFFA00000
000008FFFFFFFF200000
000001EFFFFFFB000000
0000009FFFFFFC000000
0000009FFFFFFA000000
000000AFFFFFF6000000
000000BFFFFFF3000000
000000BFFFFFF0000000
000000CFFFFFD0000000
000000CFFFFFB0000000
000000BFFFFF90000000
0000009FFFFF80000000
0000007FFFFF90000000
0000005FFFFFB0000000
0000002FFFFFC0000000
0000000EFFFF60000000
0000000CFFFF60000000
00000009FFFF20000000
00000008FFFF20000000
00000008FFFF20000000
00000007FFFF10000000
00000006FFFF00000000
00000005FFFE00000000
00000003E6ED00000000
0000000030BD00000000
00000000000110000000
ENDCHAR
STARTCHAR eth
ENCODING 240
SWIDTH 530 0
DWIDTH 19 0
BBX 19 33 1 -6
BITMAP
00000000246788300000
00257ACFFFFFFFF20000
00DFFFFFFFFFFFFD1000
02EFFFFFFFFFFFFFD300
00CFFFFFFFFFFFFFFE10
004FFFFFFFFFFFFFFE20
000DFFFFFFFFFFFFFF70
0008FFFFFFFFFFFFFF90
0004FFFFFFFFFFFFFFA0
0002FFFFFFFFFFFFFFA0
0001FFFFFFFFFFFFFF90
0000FFFFFFFFFFFFFF80
0000DFFFFFA27FFFFF50
0000CFFFFF200DFFFF20
0000AFFFFD000BFFFD00
3544AFFFFD552BFFF900
9FFFFFFFFFFE0AFFF600
59ABDFFFFFB90AFFF200
00006FFFFD000BFFD000
00003FFFFC000FFF9000
00000FFFFC004FFF6000
00000CFFFE105FFF3000
000009FFFF77CFFF2000
000006FFFFDFFFFF2000
00000AFFFFFFFFFE0000
000009FFFFFFFFF70000
000008FA21FFFFC00000
000008E000DFEA300000
000006B000DA60000000
0000049000D650000000
0000024000C120000000
0000000000A000000000
00000000001000000000
ENDCHAR
STARTCHAR ntilde
ENCODING 241
SWIDTH 664 0
DWIDTH 24 0
BBX 24 42 0 -4
BITMAP
000000000000002000000000
000001A3000004CE81000000
00004DFF30016FFFFC100000
0006FFFFD46EFFFFFFB00000
0006FFFFFFFFFFFFFFF80000
0000AFFFFFFFFFFFFFFA0000
00001CFFFFFFFEFFFFD10000
000002DFFFFB302BFB100000
00000016AA40000050000000
000000000000000000000000
000000000000000000000000
13456789A891037422222332
1EFFFFFFFFF201FFFFFFFFE2
07FFFFFFFFF400DFFFFFFF70
00DFFFFFFFF900AFFFFFFD00
006FFFFFFFFD006FFFFFF700
001FFFFFFFFF607FFFFFE100
000EFFFFFFFF908FFFFFA000
000DFFFFFFFFD0AFFFFF6000
000DFFFFFFFFF2CFFFFF3000
000CFFFFFFFFF6EFFFFF1000
000CFFFFFFFFFDFFFFFE0000
000AFFFFFFFFFFFFFFFC0000
0008FFFFFFFFFFFFFFFA0000
0007FFFFFFFFFFFFFFF80000
0005FFFFFFFFFFFFFFF60000
0003FFFFFFFFFFFFFFF40000
0001FFFFFFFFFFFFFFF10000
0000DFFFFEFFFFFFFFE00000
00008FFFF9EFFFFFFFA00000
00007FFFF8BFFFFFFF800000
00006FFFF87FFFFFFF600000
00005FFFF42FFFFFFF300000
00003FFFF50EFFFFFD000000
00002FFFF70AFFFFFB000000
00000FFFF408FFFFF9000000
00000DFFF403FFFFE2000000
00000CFFF402FFFFD0000000
00000AFFF401FFFDB0000000
000008AA1400DEF670000000
000000010000436940000000
000000000000003000000000
ENDCHAR
STARTCHAR ograve
ENCODING 242
SWIDTH 545 0
DWIDTH 20 0
BBX 20 41 -1 -3
BITMAP
00021000000000000000
000BC200000000000000
004FFD30000000000000
006FFFE5000000000000
03DFFFFF700000000000
7DFFFFFFF91000000000
5AEFFFFFFFD400000000
00048DFFFFFE00000000
000000269EFC00000000
00000000004400000000
00000000000000000000
00000002587747300000
000002BFFFFFFFFA1000
00004EFFFFFFFFFFD400
0003FFFFFFFFFFFFFF10
001DFFFFFFFFFFFFFFB2
008FFFFFFFFFFFFFFFFA
00CFFFFFFFFFFFFFFFF9
00EFFFFFFFFFFFFFFFF9
00DFFFFFFFFFFFFFFFFB
00BFFFFFFFFFFFFFFFFE
008FFFFFFFFFFFFFFFFC
007FFFFFFFDEFFFFFFFB
005FFFFFFC14FFFFFFFD
003FFFFFF400EFFFFFFB
001FFFFFF100CFFFFFF8
000EFFFFE000CFFFFFF5
000CFFFFE0008FFFFFF3
000AFFFFE0007FFFFFE0
0007FFFFF0009FFFFFA0
0004FFFFE000BFFFFF50
0001FFFFF201DFFFFF10
0000CFFFF702FFFFFB00
00007FFFFB04FFFFF600
00004FFFFF7CFFFFF300
00002FFFFFFFFFFFD100
00000BFFFFFFFFFF7000
00000377FFEFFFFD0000
000000008819FFD70000
000000001006E4560000
00000000000030340000
ENDCHAR
STARTCHAR oacute
ENCODING 243
SWIDTH 545 0
DWIDTH 20 0
BBX 21 42 1 -3
BITMAP
0000000000000000120000
0000000000000001CC0000
000000000000002DFF6000
00000000000004EFFF6000
0000000000006FFFFFE400
000000000008FFFFFFFE80
0000000003CFFFFFFFEA50
000000000DFFFFFD940000
000000000BFFA720000000
0000000003510000000000
0000000000000000000000
0000000000000000000000
0000025877473000000000
0002BFFFFFFFFA10000000
004EFFFFFFFFFFD4000000
03FFFFFFFFFFFFFF100000
1DFFFFFFFFFFFFFFB20000
8FFFFFFFFFFFFFFFFA0000
CFFFFFFFFFFFFFFFF90000
EFFFFFFFFFFFFFFFF90000
DFFFFFFFFFFFFFFFFB0000
BFFFFFFFFFFFFFFFFE0000
8FFFFFFFFFFFFFFFFC0000
7FFFFFFFDEFFFFFFFB0000
5FFFFFFC14FFFFFFFD0000
3FFFFFF400EFFFFFFB0000
1FFFFFF100CFFFFFF80000
0EFFFFE000CFFFFFF50000
0CFFFFE0008FFFFFF30000
0AFFFFE0007FFFFFE00000
07FFFFF0009FFFFFA00000
04FFFFE000BFFFFF500000
01FFFFF201DFFFFF100000
00CFFFF702FFFFFB000000
007FFFFB04FFFFF6000000
004FFFFF7CFFFFF3000000
002FFFFFFFFFFFD1000000
000BFFFFFFFFFF70000000
000377FFEFFFFD00000000
0000008819FFD700000000
0000001006E45600000000
0000000000303400000000
ENDCHAR
STARTCHAR ocircumflex
ENCODING 244
SWIDTH 545 0
DWIDTH 20 0
BBX 18 45 1 -3
BITMAP
000007654695000000
00006FFFFFFE100000
0000CFFFFFFF700000
0004FFFFFFFFE10000
000BFFFFFFFFF70000
002FFFFFFFFFFE1000
009FFFFA4FFFFF8000
01EFFFC106FFFFE100
07FFFD20009FFFF800
0DFFE300000BFFFF20
5FFF30000001CFFF60
5EF6000000002DF700
025000000000025000
000000000000000000
000000000000000000
000002587747300000
0002BFFFFFFFFA1000
004EFFFFFFFFFFD400
03FFFFFFFFFFFFFF10
1DFFFFFFFFFFFFFFB2
8FFFFFFFFFFFFFFFFA
CFFFFFFFFFFFFFFFF9
EFFFFFFFFFFFFFFFF9
DFFFFFFFFFFFFFFFFB
BFFFFFFFFFFFFFFFFE
8FFFFFFFFFFFFFFFFC
7FFFFFFFDEFFFFFFFB
5FFFFFFC14FFFFFFFD
3FFFFFF400EFFFFFFB
1FFFFFF100CFFFFFF8
0EFFFFE000CFFFFFF5
0CFFFFE0008FFFFFF3
0AFFFFE0007FFFFFE0
07FFFFF0009FFFFFA0
04FFFFE000BFFFFF50
01FFFFF201DFFFFF10
00CFFFF702FFFFFB00
007FFFFB04FFFFF600
004FFFFF7CFFFFF300
002FFFFFFFFFFFD100
000BFFFFFFFFFF7000
000377FFEFFFFD0000
0000008819FFD70000
0000001006E4560000
000000000030340000
ENDCHAR
STARTCHAR otilde
ENCODING 245
SWIDTH 545 0
DWIDTH 20 0
BBX 19 41 0 -3
BITMAP
00000000000210000000
000670000038FB300000
01BFF80005CFFFF40000
2DFFFF74CFFFFFFE2000
2EFFFFFFFFFFFFFFB200
04FFFFFFFFFFFFFFE100
008FFFFFFFEFFFFF5000
000AFFFFD6018EE40000
000048B6100004100000
00000000000000000000
00000000000000000000
00000025877473000000
00002BFFFFFFFFA10000
0004EFFFFFFFFFFD4000
003FFFFFFFFFFFFFF100
01DFFFFFFFFFFFFFFB20
08FFFFFFFFFFFFFFFFA0
0CFFFFFFFFFFFFFFFF90
0EFFFFFFFFFFFFFFFF90
0DFFFFFFFFFFFFFFFFB0
0BFFFFFFFFFFFFFFFFE0
08FFFFFFFFFFFFFFFFC0
07FFFFFFFDEFFFFFFFB0
05FFFFFFC14FFFFFFFD0
03FFFFFF400EFFFFFFB0
01FFFFFF100CFFFFFF80
00EFFFFE000CFFFFFF50
00CFFFFE0008FFFFFF30
00AFFFFE0007FFFFFE00
007FFFFF0009FFFFFA00
004FFFFE000BFFFFF500
001FFFFF201DFFFFF100
000CFFFF702FFFFFB000
0007FFFFB04FFFFF6000
0004FFFFF7CFFFFF3000
0002FFFFFFFFFFFD1000
0000BFFFFFFFFFF70000
0000377FFEFFFFD00000
00000008819FFD700000
00000001006E45600000
00000000000303400000
ENDCHAR
STARTCHAR odieresis
ENCODING 246
SWIDTH 545 0
DWIDTH 20 0
BBX 19 41 0 -3
BITMAP
002310100001238A9610
0DFFFDFD001DFFFFFF70
0FFFFFFF000EFFFFFF60
0FFFFFFF000EFFFFFF60
0FFFFFFF000DFFFFFF30
1FFFFFFF000DFFFFFF80
1FFFFFFF000DFFFFFF80
0FFFFFFE000DFFFFFF70
0DFFFFFD000AFFDACC50
00002221000000000000
00000000000000000000
00000025877473000000
00002BFFFFFFFFA10000
0004EFFFFFFFFFFD4000
003FFFFFFFFFFFFFF100
01DFFFFFFFFFFFFFFB20
08FFFFFFFFFFFFFFFFA0
0CFFFFFFFFFFFFFFFF90
0EFFFFFFFFFFFFFFFF90
0DFFFFFFFFFFFFFFFFB0
0BFFFFFFFFFFFFFFFFE0
08FFFFFFFFFFFFFFFFC0
07FFFFFFFDEFFFFFFFB0
05FFFFFFC14FFFFFFFD0
03FFFFFF400EFFFFFFB0
01FFFFFF100CFFFFFF80
00EFFFFE000CFFFFFF50
00CFFFFE0008FFFFFF30
00AFFFFE0007FFFFFE00
007FFFFF0009FFFFFA00
004FFFFE000BFFFFF500
001FFFFF201DFFFFF100
000CFFFF702FFFFFB000
0007FFFFB04FFFFF6000
0004FFFFF7CFFFFF3000
0002FFFFFFFFFFFD1000
0000BFFFFFFFFFF70000
0000377FFEFFFFD00000
00000008819FFD700000
00000001006E45600000
00000000000303400000
ENDCHAR
STARTCHAR oslash
ENCODING 248
SWIDTH 676 0
DWIDTH 24 0
BBX 25 30 -1 -3
BITMAP
00000001478757300000000000
0000007EFFFFFFFA1000000620
00000AFFFFFFFFFFD300008D20
0000AFFFFFFFFFFFFE0009E200
0005FFFFFFFFFFFFFFA08E3000
001EFFFFFFFFFFFFFFFDD20000
003FFFFFFFFFFFFFFFFF400000
007FFFFFFFFFFFFFFFF8000000
005FFFFFFFFFFFFFFFF7000000
004FFFFFFFFFFFFFFFFA000000
000FFFFFFFFFFFFFFFF8000000
000DFFFFFFDEFFFFFFF7000000
000CFFFFFE21EFFFFFF9000000
000AFFFFF701DFFFFFF8000000
0008FFFFF30BFFFFFFF6000000
0006FFFFF29FBFFFFFF3000000
0003FFFFF9F55FFFFFF1000000
0001FFFFFF603FFFFFC0000000
0000DFFFF6006FFFFF80000000
0000AFFFF100AFFFFF40000000
00006FFFF300CFFFFF10000000
00003FFFF801FFFFFB00000000
0001BFFFFC03FFFFF700000000
000BACFFFF7CFFFFF400000000
00AB0AFFFFFFFFFFD100000000
08C104FFFFFFFFFF8000000000
1B100085EFEFFFFD1000000000
120000006919FFD80000000000
000000000005F4470000000000
00000000000030350000000000
ENDCHAR
STARTCHAR ugrave
ENCODING 249
SWIDTH 708 0
DWIDTH 26 0
BBX 26 39 0 -1
BITMAP
00000020000000000000000000
000006E4000000000000000000
00001FFF600000000000000000
00002FFFF80000000000000000
0001BFFFFFA100000000000000
004CFFFFFFFC20000000000000
0039DFFFFFFFE7000000000000
0000037BFFFFFF300000000000
00000000158DFF100000000000
00000000000035000000000000
00000000000000000000000000
00000146777400011000000000
279BEFFFFFF7000BFEC7861000
01DFFFFFFFF6000AFFFFFFFA41
003FFFFFFFF4000CFFFFFFFFD4
000EFFFFFFF7002FFFFFFFFD20
000CFFFFFFF4001DFFFFFFF300
0008FFFFFFF6000DFFFFFFF100
0004FFFFFFFA000BFFFFFFA000
0001FFFFFFFB000CFFFFFF4000
0000DFFFFFFC000DFFFFFD0000
0000AFFFFFFD000DFFFFF90000
00007FFFFFFD000EFFFFF50000
00005FFFFFFD000FFFFFF30000
00002FFFFFFA000FFFFFF00000
00000FFFFFF7002FFFFFD00000
00000EFFFFF7006FFFFFC00000
00000DFFFFF7006FFFFFC00000
00000DFFFFF9005FFFFFB00000
00000DFFFFFC006FFFFF900000
000006FFFFFF008FFFFF500000
000004FFFFFF10CFFFFF100000
000000AFFFFF20DFFFFD000000
0000007FFFFFB9FFFFFD000000
0000004FFFFFFFFFFFF8000000
0000001FFFFFFFFFFFF3000000
0000000BEFFD4BFFFFC0000000
000000000AAB029A8940000000
00000000000200030000000000
ENDCHAR
STARTCHAR uacute
ENCODING 250
SWIDTH 708 0
DWIDTH 26 0
BBX 26 40 0 -1
BITMAP
00000000000000000000020000
000000000000000000009E2000
0000000000000000001BFFA000
000000000000000002CFFFA000
00000000000000003DFFFFF700
0000000000000004EFFFFFFFA0
00000000000001AFFFFFFFFB71
00000000000008FFFFFEA51000
00000000000006FFC840000000
00000000000001620000000000
00000000000000000000000000
00000000000000000000000000
00000146777400011000000000
279BEFFFFFF7000BFEC7861000
01DFFFFFFFF6000AFFFFFFFA41
003FFFFFFFF4000CFFFFFFFFD4
000EFFFFFFF7002FFFFFFFFD20
000CFFFFFFF4001DFFFFFFF300
0008FFFFFFF6000DFFFFFFF100
0004FFFFFFFA000BFFFFFFA000
0001FFFFFFFB000CFFFFFF4000
0000DFFFFFFC000DFFFFFD0000
0000AFFFFFFD000DFFFFF90000
00007FFFFFFD000EFFFFF50000
00005FFFFFFD000FFFFFF30000
00002FFFFFFA000FFFFFF00000
00000FFFFFF7002FFFFFD00000
00000EFFFFF7006FFFFFC00000
00000DFFFFF7006FFFFFC00000
00000DFFFFF9005FFFFFB00000
00000DFFFFFC006FFFFF900000
000006FFFFFF008FFFFF500000
000004FFFFFF10CFFFFF100000
000000AFFFFF20DFFFFD000000
0000007FFFFFB9FFFFFD000000
0000004FFFFFFFFFFFF8000000
0000001FFFFFFFFFFFF3000000
0000000BEFFD4BFFFFC0000000
000000000AAB029A8940000000
00000000000200030000000000
ENDCHAR
STARTCHAR ucircumflex
ENCODING 251
SWIDTH 708 0
DWIDTH 26 0
BBX 26 43 0 -1
BITMAP
00000000067545880000000000
000000001FFFFFFF4000000000
000000008FFFFFFFC000000000
00000000EFFFFFFFF400000000
00000006FFFFFFFFFC00000000
0000000DFFFFFFFFFF50000000
0000004FFFFD3DFFFFC0000000
000000BFFFE302EFFFF5000000
000002FFFF50004FFFFD000000
000009FFF7000006FFFF600000
00001FFF800000008FFFA00000
00002CFA000000000AFB100000
00000060000000000060000000
00000000000000000000000000
00000000000000000000000000
00000146777400011000000000
279BEFFFFFF7000BFEC7861000
01DFFFFFFFF6000AFFFFFFFA41
003FFFFFFFF4000CFFFFFFFFD4
000EFFFFFFF7002FFFFFFFFD20
000CFFFFFFF4001DFFFFFFF300
0008FFFFFFF6000DFFFFFFF100
0004FFFFFFFA000BFFFFFFA000
0001FFFFFFFB000CFFFFFF4000
0000DFFFFFFC000DFFFFFD0000
0000AFFFFFFD000DFFFFF90000
00007FFFFFFD000EFFFFF50000
00005FFFFFFD000FFFFFF30000
00002FFFFFFA000FFFFFF00000
00000FFFFFF7002FFFFFD00000
00000EFFFFF7006FFFFFC00000
00000DFFFFF7006FFFFFC00000
00000DFFFFF9005FFFFFB00000
00000DFFFFFC006FFFFF900000
000006FFFFFF008FFFFF500000
000004FFFFFF10CFFFFF100000
000000AFFFFF20DFFFFD000000
0000007FFFFFB9FFFFFD000000
0000004FFFFFFFFFFFF8000000
0000001FFFFFFFFFFFF3000000
0000000BEFFD4BFFFFC0000000
000000000AAB029A8940000000
00000000000200030000000000
ENDCHAR
STARTCHAR udieresis
ENCODING 252
SWIDTH 708 0
DWIDTH 26 0
BBX 26 39 0 -1
BITMAP
00000232010000022799720000
00009FFFDEE4009FFFFFFB0000
0000AFFFFFF4009FFFFFFB0000
0000AFFFFFF5009FFFFFFA0000
0000BFFFFFF4009FFFFFF80000
0000BFFFFFF5009FFFFFFD0000
0000BFFFFFF4009FFFFFFD0000
0000AFFFFFF3009FFFFFFB0000
00008FFFFFF3007EFDBBD80000
00000002321000000000000000
00000000000000000000000000
00000146777400011000000000
279BEFFFFFF7000BFEC7861000
01DFFFFFFFF6000AFFFFFFFA41
003FFFFFFFF4000CFFFFFFFFD4
000EFFFFFFF7002FFFFFFFFD20
000CFFFFFFF4001DFFFFFFF300
0008FFFFFFF6000DFFFFFFF100
0004FFFFFFFA000BFFFFFFA000
0001FFFFFFFB000CFFFFFF4000
0000DFFFFFFC000DFFFFFD0000
0000AFFFFFFD000DFFFFF90000
00007FFFFFFD000EFFFFF50000
00005FFFFFFD000FFFFFF30000
00002FFFFFFA000FFFFFF00000
00000FFFFFF7002FFFFFD00000
00000EFFFFF7006FFFFFC00000
00000DFFFFF7006FFFFFC00000
00000DFFFFF9005FFFFFB00000
00000DFFFFFC006FFFFF900000
000006FFFFFF008FFFFF500000
000004FFFFFF10CFFFFF100000
000000AFFFFF20DFFFFD000000
0000007FFFFFB9FFFFFD000000
0000004FFFFFFFFFFFF8000000
0000001FFFFFFFFFFFF3000000
0000000BEFFD4BFFFFC0000000
000000000AAB029A8940000000
00000000000200030000000000
ENDCHAR
STARTCHAR yacute
ENCODING 253
SWIDTH 604 0
DWIDTH 22 0
BBX 24 42 0 -3
BITMAP
000000000000000000030000
0000000000000000008E2000
00000000000000001AFFA000
0000000000000001CFFFB000
000000000000002DFFFFF700
00000000000004EFFFFFFFB0
000000000001AFFFFFFFFC71
000000000008FFFFFEA51000
000000000006FFC840000000
000000000001620000000000
000000000000000000000000
000000000000000000000000
000042673000055000000000
17CEFFFFE2000BFD96400000
01BFFFFFFA003FFFFFFD7100
0008FFFFFF203FFFFFF90000
00004DFFFF70BFFFFF800000
000003FFFFB3FFFFFB000000
000001FFFFE9FFFFE1000000
0000008FFFFFFFFF50000000
00000009FFFFFFF900000000
00000008FFFFFFF500000000
00000005FFFFFFF300000000
00000001FFFFFFF100000000
00000000DFFFFFF000000000
000000009FFFFFD000000000
000000006FFFFFC000000000
000000002FFFFFB000000000
000000000EFFFFA000000000
000000000BFFFF8000000000
0000000008FFFF7000000000
0000000007FFFF5000000000
0000000007FFFF5000000000
0000000008FFFF6000000000
0000000008FFFF5000000000
0000000009FFFF4000000000
0000000009FFFF2000000000
0000000009FFFC0000000000
0000000008FFFA0000000000
0000000006FFFB0000000000
0000000003D6150000000000
000000000020000000000000
ENDCHAR
STARTCHAR thorn
ENCODING 254
SWIDTH 498 0
DWIDTH 18 0
BBX 17 38 0 -5
BITMAP
036A88C9BD10000000
9FFFFFFFFA00000000
2FFFFFFFF600000000
2FFFFFFFF500000000
0FFFFFFFF200000000
0DFFFFFFE000000000
0BFFFFFFF676441000
08FFFFFFFFFFFFE300
06FFFFFFFFFFFFFD10
04FFFFFFFFFFFFFF50
03FFFFFFFFFFFFFF90
02FFFFFFFFFFFFFFB0
01FFFFFFFFFFFFFFC0
00FFFFFFFFFFFFFFC0
00EFFFFFFFFFFFFFC0
00DFFFFFFFFFFFFFB0
00BFFFFFFFFFFFFFA0
009FFFFFD99DFFFF90
007FFFFFF006FFFF80
004FFFFFE002FFFF70
001FFFFFF001FFFF50
000EFFFFF000FFFF20
000BFFFFF000FFFE00
0008FFFFFAAAFFFB00
0005FFFFFFFFFFF700
0003FFFFFFFFFFF200
0000FFFFFFFFFF9000
0000BFFFFB33450000
00009FFFF900000000
0000DFFFFA00000000
0000EFFFFA00000000
0000BFFFFB00000000
00007FFFFB00000000
00003FAAFC00000000
00001F21C600000000
00000F209600000000
00000C50C000000000
000003204000000000
ENDCHAR
STARTCHAR ydieresis
ENCODING 255
SWIDTH 604 0
DWIDTH 22 0
BBX 22 41 0 -3
BITMAP
0000132010000022699720
0008FFFDEE4008FFFFFFC0
0009FFFFFF5008FFFFFFC0
0009FFFFFF6008FFFFFFB0
000AFFFFFF5008FFFFFF90
000AFFFFFF6008FFFFFFE0
000AFFFFFF5008FFFFFFE0
0009FFFFFF4008FFFFFFC0
0007FFFFFF3006DFDBBD90
0000001321000000000000
0000000000000000000000
0000426730000550000000
17CEFFFFE2000BFD964000
01BFFFFFFA003FFFFFFD71
0008FFFFFF203FFFFFF900
00004DFFFF70BFFFFF8000
000003FFFFB3FFFFFB0000
000001FFFFE9FFFFE10000
0000008FFFFFFFFF500000
00000009FFFFFFF9000000
00000008FFFFFFF5000000
00000005FFFFFFF3000000
00000001FFFFFFF1000000
00000000DFFFFFF0000000
000000009FFFFFD0000000
000000006FFFFFC0000000
000000002FFFFFB0000000
000000000EFFFFA0000000
000000000BFFFF80000000
0000000008FFFF70000000
0000000007FFFF50000000
0000000007FFFF50000000
0000000008FFFF60000000
0000000008FFFF50000000
0000000009FFFF40000000
0000000009FFFF20000000
0000000009FFFC00000000
0000000008FFFA00000000
0000000006FFFB00000000
0000000003D61500000000
0000000000200000000000
ENDCHAR
STARTCHAR Amacron
ENCODING 256
SWIDTH 494 0
DWIDTH 18 0
BBX 17 42 0 -8
BITMAP
003DDDD99AA99CA000
005FFFFFFFFFFFC000
006FFFFFFFFFFFA000
006FEFFFFFFFEF9000
000228884754495000
000000000000000000
000000000000000000
000000000000000000
18ACDEEFFEEDCA8630
04DFFFFFFFFFFFFD30
0019FFFFFFFFFFE200
0003FFFFFFFFFF6000
0003FFFFFFFFFF1000
0002FFFFFFFFFE0000
0000FFFFFFFFFC0000
0000FFFFFFFFFA0000
0003FFFFFFFFF90000
0004FFFFFFFFF80000
0002FFFFFFFFF70000
0001FFFFFFFFF50000
0000EFFFDFFFF50000
0002FFFF8EFFF30000
0001FFFF4DFFF40000
0003FFFF1CFFF50000
0003FFFD0BFFF40000
0005FFFC0AFFF60000
0002FFF708FFF30000
0002FFFDDDFFF50000
0005FFFFFFFFF50000
0008FFFFFFFFF30000
0006FFFFFFFFF10000
0003FFFFFFFFD00000
0001FFFD4FFF900000
0000EFFB08FF700000
0000EFE30AFF700000
0000EED009EF400000
0000C7A0076E200000
0000B140010E000000
00006010002C000000
000000000165000000
000000000510000000
000000000400000000
ENDCHAR
STARTCHAR amacron
ENCODING 257
SWIDTH 479 0
DWIDTH 17 0
BBX 18 38 0 -4
BITMAP
000BDDDB8ABA8CD200
000EFFFFFFFFFFF300
000FFFFFFFFFFFF100
000EEFFFFFFFEFF000
000116887465488000
000000000000000000
000000000000000000
013578ABCCC8ACDDC5
4EFFFFFFFFFFFFFF40
04EFFFFFFFFFFFF700
004FFFFFFFFFFFF100
0005FFFFFFFFFFB000
0005FFFFFFFFFF9000
0004FFFFFFFFFF8000
0002FFFFFFFFFF8000
0000EFFFFFFFFF8000
0001EFFFFFFFFF8000
0005FFFFFFFFFF7000
0004FFFFFFFFFF5000
0002FFFFFFFFFF3000
0000EFFFFEFFFE2000
0000DFFFFBFFFF3000
0001FFFFB8FFFF6000
0004FFFF87FFFF8000
0005FFFF54FFFF5000
0007FFFF33FFFF9000
0008FFFF03FFFFA000
0008FFFF01FFFF7000
0005FFFD99FFFF6000
0004FFFFFFFFFF5000
000BFFFFFFFFFF3000
0009FFFFEFFFFF1000
0005FFFF45FFFF0000
0006FFFF10CFFE0000
0007FFF900AFFE0000
0006FFF400AEFD0000
0002FFC10002450000
000012100000000000
ENDCHAR
STARTCHAR Abreve
ENCODING 258
SWIDTH 494 0
DWIDTH 18 0
BBX 18 48 0 -8
BITMAP
000488880000000000
0004FFFF10000CB983
0000EFFF20003FFFF4
0000BFFF70008FFFE1
00008FFFF955EFFFB0
00006FFFFFFFFFFF60
00001EFFFFFFFFFE00
00000448FFEFFFF400
00000001E41EFDE000
00000000200CA1A000
000000000002107000
000000000000000000
000000000000000000
000000000000000000
18ACDEEFFEEDCA8630
04DFFFFFFFFFFFFD30
0019FFFFFFFFFFE200
0003FFFFFFFFFF6000
0003FFFFFFFFFF1000
0002FFFFFFFFFE0000
0000FFFFFFFFFC0000
0000FFFFFFFFFA0000
0003FFFFFFFFF90000
0004FFFFFFFFF80000
0002FFFFFFFFF70000
0001FFFFFFFFF50000
0000EFFFDFFFF50000
0002FFFF8EFFF30000
0001FFFF4DFFF40000
0003FFFF1CFFF50000
0003FFFD0BFFF40000
0005FFFC0AFFF60000
0002FFF708FFF30000
0002FFFDDDFFF50000
0005FFFFFFFFF50000
0008FFFFFFFFF30000
0006FFFFFFFFF10000
0003FFFFFFFFD00000
0001FFFD4FFF900000
0000EFFB08FF700000
0000EFE30AFF700000
0000EED009EF400000
0000C7A0076E200000
0000B140010E000000
00006010002C000000
000000000165000000
000000000510000000
000000000400000000
ENDCHAR
STARTCHAR abreve
ENCODING 259
SWIDTH 479 0
DWIDTH 17 0
BBX 18 44 0 -4
BITMAP
000488880000000000
0004FFFF00001CB983
0001FFFF20003FFFF4
0000BFFF60008FFFE1
00008FFFF855FFFFA0
00006FFFFFFFFFFF60
00001EFFFFFFFFFD00
00000449FFEFFFF400
00000001E41EFDE000
00000000200CA1A000
000000000002107000
000000000000000000
000000000000000000
013578ABCCC8ACDDC5
4EFFFFFFFFFFFFFF40
04EFFFFFFFFFFFF700
004FFFFFFFFFFFF100
0005FFFFFFFFFFB000
0005FFFFFFFFFF9000
0004FFFFFFFFFF8000
0002FFFFFFFFFF8000
0000EFFFFFFFFF8000
0001EFFFFFFFFF8000
0005FFFFFFFFFF7000
0004FFFFFFFFFF5000
0002FFFFFFFFFF3000
0000EFFFFEFFFE2000
0000DFFFFBFFFF3000
0001FFFFB8FFFF6000
0004FFFF87FFFF8000
0005FFFF54FFFF5000
0007FFFF33FFFF9000
0008FFFF03FFFFA000
0008FFFF01FFFF7000
0005FFFD99FFFF6000
0004FFFFFFFFFF5000
000BFFFFFFFFFF3000
0009FFFFEFFFFF1000
0005FFFF45FFFF0000
0006FFFF10CFFE0000
0007FFF900AFFE0000
0006FFF400AEFD0000
0002FFC10002450000
000012100000000000
ENDCHAR
STARTCHAR Aogonek
ENCODING 260
SWIDTH 494 0
DWIDTH 18 0
BBX 17 42 0 -16
BITMAP
18ACDEEFFEEDCA8630
04DFFFFFFFFFFFFD30
0019FFFFFFFFFFE200
0003FFFFFFFFFF6000
0003FFFFFFFFFF1000
0002FFFFFFFFFE0000
0000FFFFFFFFFC0000
0000FFFFFFFFFA0000
0003FFFFFFFFF90000
0004FFFFFFFFF80000
0002FFFFFFFFF70000
0001FFFFFFFFF50000
0000EFFFDFFFF50000
0002FFFF8EFFF30000
0001FFFF4DFFF40000
0003FFFF1CFFF40000
0003FFFD0BFFF40000
0005FFFC0AFFF60000
0002FFF708FFF30000
0002FFFDDDFFF50000
0005FFFFFFFFF50000
0008FFFFFFFFF30000
0006FFFFFFFFF10000
0003FFFFFFFFD00000
0001FFFD4FFF900000
0000EFFB08FF700000
0000EFE30AFF700000
0000EED01EFF400000
0000C7A06FFF200000
0000B140BFFF000000
00006010EFFD000000
00000002FFFA000000
00000004FFF8000000
00000005FFF9000000
00000005FFFD000000
00000004FFFF800000
00000002FFFFFD9770
00000000CFFFFFFFF0
000000005FFFFFFFE0
0000000007FFFFFFD0
00000000003ADFFEB0
000000000000002100
ENDCHAR
STARTCHAR aogonek
ENCODING 261
SWIDTH 479 0
DWIDTH 17 0
BBX 19 40 0 -13
BITMAP
013578ABCCC8ACDDC500
4EFFFFFFFFFFFFFF4000
04EFFFFFFFFFFFF70000
004FFFFFFFFFFFF10000
0005FFFFFFFFFFB00000
0005FFFFFFFFFF900000
0004FFFFFFFFFF800000
0002FFFFFFFFFF800000
0000EFFFFFFFFF800000
0001EFFFFFFFFF800000
0005FFFFFFFFFF700000
0004FFFFFFFFFF500000
0002FFFFFFFFFF300000
0000EFFFFEFFFE200000
0000DFFFFBFFFF300000
0001FFFFB8FFFF600000
0004FFFF87FFFF800000
0005FFFF54FFFF500000
0007FFFF33FFFF900000
0008FFFF03FFFFA00000
0008FFFF01FFFF700000
0005FFFD99FFFF600000
0004FFFFFFFFFF500000
000BFFFFFFFFFF300000
0009FFFFEFFFFF100000
0005FFFF45FFFF000000
0006FFFF10CFFE000000
0007FFF900AFFD000000
0006FFF400CFFB000000
0002FFC100EFFA000000
0000121002FFF8000000
0000000004FFF6000000
0000000005FFF5000000
0000000005FFF6000000
0000000004FFFD200000
0000000001FFFFFCAA70
0000000000CFFFFFFFA0
00000000004FFFFFFF90
000000000006EFFFFF80
00000000000027BDEA50
ENDCHAR
STARTCHAR Cacute
ENCODING 262
SWIDTH 504 0
DWIDTH 18 0
BBX 19 43 1 -5
BITMAP
00000000000000200000
00000000000004E80000
0000000000005FFF1000
000000000007FFFF2000
00000000009FFFFFC200
000000001BFFFFFFFC50
00000006EFFFFFFFD930
0000002FFFFFFC730000
0000001EFE9610000000
00000005400000000000
00000000000000000000
0000049AAAA700000000
0001BFFFFFFFC4000000
003CFFFFFFFFFC600000
05FFFFFFFFFFFFF20000
1EFFFFFFFFFFFFFB1000
6FFFFFFFFFFFFFFF4000
BFFFFFFFFFFFFFFF3000
DFFFFFFFFFFFFFFF4000
FFFFFFFFFFFFFFFF4000
EFFFFFFFFFFFFFFF3000
DFFFFFFFFFFFFFFF3000
BFFFFFFFEFFFFFFF2000
9FFFFFFB3AFFFFFF1000
6FFFFFF302FFFFFE0000
4EFFFFF300BFFFFD0000
1EFFFFF400AEDCDA0000
0FFFFFF3001000010000
0CFFFFF1000000000000
09FFFFE0000000000000
06FFFFF0002100000000
04FFFFF100EFDA600000
01EFFFF203FFFFD00000
01FFFFF707FFFF700000
008FFFFC4EFFFF500000
002FFFFFFFFFFF200000
001FFFFFFFFFF7000000
000AFFFFFFFF81000000
00003AE7CDFD10000000
0000029089A300000000
00000090967000000000
00000060556000000000
00000000001000000000
ENDCHAR
STARTCHAR cacute
ENCODING 263
SWIDTH 534 0
DWIDTH 19 0
BBX 21 42 0 -3
BITMAP
0000000000000000300000
0000000000000008F30000
00000000000000AFFB0000
0000000000001CFFFB0000
000000000002DFFFFF8000
00000000004EFFFFFFFB10
000000001AFFFFFFFFC710
000000007FFFFFEA610000
000000005FFC8400000000
0000000006200000000000
0000000000000000000000
0000000000000000000000
000000268CCB9500000000
000019FFFFFFFFC2000000
0001CFFFFFFFFFFD300000
005DFFFFFFFFFFFFF40000
01EFFFFFFFFFFFFFFB0000
07FFFFFFFFFFFFFFFF8000
0CFFFFFFFFFFFFFFFF3000
0EFFFFFFFFFFFFFFFF3000
1FFFFFFFFFFFFFFFFF5000
0FFFFFFFFFFFFFFFFF5000
0DFFFFFFFFFFFFFFFF4000
0AFFFFFFFFFFFFFFFF3000
07FFFFFFFA2EFFFFFF1000
03FFFFFFE005FFFFFF0000
00EFFFFFA000EFFFFD0000
009FFFFFE000EFFFFB0000
009FFFFFE0002476770000
008FFFFFA0000000000000
005FFFFFA0000000000000
002FFFFFB0000000000000
000EFFFFD001DD83000000
0009FFFFF107FFFF400000
0007FFFFF40BFFFE000000
0004FFFFF82FFFFD000000
0000CFFFFECFFFFB000000
00005FFFFFFFFFF5000000
00001EFFFFFFFF80000000
0000078BBDCFF700000000
000000057267B000000000
0000000000010000000000
ENDCHAR
STARTCHAR Ccircumflex
ENCODING 264
SWIDTH 504 0
DWIDTH 18 0
BBX 17 47 1 -5
BITMAP
000006754588000000
00001FFFFFFF400000
00008FFFFFFFC00000
0000EFFFFFFFF40000
0006FFFFFFFFFC0000
000DFFFFFFFFFF5000
004FFFFD3DFFFFC000
00BFFFE302EFFFF500
02FFFF50004FFFFD00
09FFF7000006FFFF60
1FFF800000008FFFA0
2CFA000000000AFB10
006000000000006000
000000000000000000
000000000000000000
0000049AAAA7000000
0001BFFFFFFFC40000
003CFFFFFFFFFC6000
05FFFFFFFFFFFFF200
1EFFFFFFFFFFFFFB10
6FFFFFFFFFFFFFFF40
BFFFFFFFFFFFFFFF30
DFFFFFFFFFFFFFFF40
FFFFFFFFFFFFFFFF40
EFFFFFFFFFFFFFFF30
DFFFFFFFFFFFFFFF30
BFFFFFFFEFFFFFFF20
9FFFFFFB3AFFFFFF10
6FFFFFF302FFFFFE00
4EFFFFF300BFFFFD00
1EFFFFF400AEDCDA00
0FFFFFF30010000100
0CFFFFF10000000000
09FFFFE00000000000
06FFFFF00021000000
04FFFFF100EFDA6000
01EFFFF203FFFFD000
01FFFFF707FFFF7000
008FFFFC4EFFFF5000
002FFFFFFFFFFF2000
001FFFFFFFFFF70000
000AFFFFFFFF810000
00003AE7CDFD100000
0000029089A3000000
000000909670000000
000000605560000000
000000000010000000
ENDCHAR
STARTCHAR ccircumflex
ENCODING 265
SWIDTH 534 0
DWIDTH 19 0
BBX 19 45 0 -3
BITMAP
00000005764589000000
0000001EFFFFFF500000
0000006FFFFFFFD00000
000000DFFFFFFFF60000
000005FFFFFFFFFD0000
00000BFFFFFFFFFF6000
00003FFFFE3CFFFFD000
0000AFFFF402EFFFF600
0002FFFF60003FFFFE10
0008FFF8000005FFFF70
001EFF900000007FFFB0
001BFB0000000009FC10
00006100000000006100
00000000000000000000
00000000000000000000
000000268CCB95000000
000019FFFFFFFFC20000
0001CFFFFFFFFFFD3000
005DFFFFFFFFFFFFF400
01EFFFFFFFFFFFFFFB00
07FFFFFFFFFFFFFFFF80
0CFFFFFFFFFFFFFFFF30
0EFFFFFFFFFFFFFFFF30
1FFFFFFFFFFFFFFFFF50
0FFFFFFFFFFFFFFFFF50
0DFFFFFFFFFFFFFFFF40
0AFFFFFFFFFFFFFFFF30
07FFFFFFFA2EFFFFFF10
03FFFFFFE005FFFFFF00
00EFFFFFA000EFFFFD00
009FFFFFE000EFFFFB00
009FFFFFE00024767700
008FFFFFA00000000000
005FFFFFA00000000000
002FFFFFB00000000000
000EFFFFD001DD830000
0009FFFFF107FFFF4000
0007FFFFF40BFFFE0000
0004FFFFF82FFFFD0000
0000CFFFFECFFFFB0000
00005FFFFFFFFFF50000
00001EFFFFFFFF800000
0000078BBDCFF7000000
000000057267B0000000
00000000000100000000
ENDCHAR
STARTCHAR Cdotaccent
ENCODING 266
SWIDTH 504 0
DWIDTH 18 0
BBX 17 46 1 -5
BITMAP
000000003442000000
0005ACCEFFFFE30000
0003FFFFFFFFF30000
0000FFFFFFFFF30000
0000DFFFFFFFF10000
0000CFFFFFFFF30000
0000BFFFFFFFF60000
00009FFFFFFFF50000
00008FFFFFFFF40000
00008FFFFFFFF30000
00007FFFFFFFF20000
00006B984226410000
000000000000000000
000000000000000000
0000049AAAA7000000
0001BFFFFFFFC40000
003CFFFFFFFFFC6000
05FFFFFFFFFFFFF200
1EFFFFFFFFFFFFFB10
6FFFFFFFFFFFFFFF40
BFFFFFFFFFFFFFFF30
DFFFFFFFFFFFFFFF40
FFFFFFFFFFFFFFFF40
EFFFFFFFFFFFFFFF30
DFFFFFFFFFFFFFFF30
BFFFFFFFEFFFFFFF20
9FFFFFFB3AFFFFFF10
6FFFFFF302FFFFFE00
4EFFFFF300BFFFFD00
1EFFFFF400AEDCDA00
0FFFFFF30010000100
0CFFFFF10000000000
09FFFFE00000000000
06FFFFF00021000000
04FFFFF100EFDA6000
01EFFFF203FFFFD000
01FFFFF707FFFF7000
008FFFFC4EFFFF5000
002FFFFFFFFFFF2000
001FFFFFFFFFF70000
000AFFFFFFFF810000
00003AE7CDFD100000
0000029089A3000000
000000909670000000
000000605560000000
000000000010000000
ENDCHAR
STARTCHAR cdotaccent
ENCODING 267
SWIDTH 534 0
DWIDTH 19 0
BBX 19 44 0 -3
BITMAP
00000000013441000000
000016BCCFFFFFD00000
000007FFFFFFFFF00000
000004FFFFFFFFE00000
000002FFFFFFFFD00000
000001FFFFFFFFD10000
000000FFFFFFFFF20000
000000DFFFFFFFF10000
000000CFFFFFFFF00000
000000CFFFFFFFE00000
000000BFFFFFFFD00000
0000008B973236300000
00000000000000000000
00000000000000000000
000000268CCB95000000
000019FFFFFFFFC20000
0001CFFFFFFFFFFD3000
005DFFFFFFFFFFFFF400
01EFFFFFFFFFFFFFFB00
07FFFFFFFFFFFFFFFF80
0CFFFFFFFFFFFFFFFF30
0EFFFFFFFFFFFFFFFF30
1FFFFFFFFFFFFFFFFF50
0FFFFFFFFFFFFFFFFF50
0DFFFFFFFFFFFFFFFF40
0AFFFFFFFFFFFFFFFF30
07FFFFFFFA2EFFFFFF10
03FFFFFFE005FFFFFF00
00EFFFFFA000EFFFFD00
009FFFFFE000EFFFFB00
009FFFFFE00024767700
008FFFFFA00000000000
005FFFFFA00000000000
002FFFFFB00000000000
000EFFFFD001DD830000
0009FFFFF107FFFF4000
0007FFFFF40BFFFE0000
0004FFFFF82FFFFD0000
0000CFFFFECFFFFB0000
00005FFFFFFFFFF50000
00001EFFFFFFFF800000
0000078BBDCFF7000000
000000057267B0000000
00000000000100000000
ENDCHAR
STARTCHAR Ccaron
ENCODING 268
SWIDTH 504 0
DWIDTH 18 0
BBX 17 48 1 -5
BITMAP
001200000000020000
03DD100000007F6000
7FFFC0000004FFF700
7FFFF800001DFFFF40
1EFFFF10008FFFFD00
09FFFF8003FFFFF600
02FFFFF20CFFFFD000
00AFFFFB7FFFFF5000
004FFFFFFFFFFD0000
000CFFFFFFFFF50000
0005FFFFFFFFC00000
0000DFFFFFFF500000
00007FFFFFFC000000
000016544683000000
000000000000000000
000000000000000000
0000049AAAA7000000
0001BFFFFFFFC40000
003CFFFFFFFFFC6000
05FFFFFFFFFFFFF200
1EFFFFFFFFFFFFFB10
6FFFFFFFFFFFFFFF40
BFFFFFFFFFFFFFFF30
DFFFFFFFFFFFFFFF40
FFFFFFFFFFFFFFFF40
EFFFFFFFFFFFFFFF30
DFFFFFFFFFFFFFFF30
BFFFFFFFEFFFFFFF20
9FFFFFFB3AFFFFFF10
6FFFFFF302FFFFFE00
4EFFFFF300BFFFFD00
1EFFFFF400AEDCDA00
0FFFFFF30010000100
0CFFFFF10000000000
09FFFFE00000000000
06FFFFF00021000000
04FFFFF100EFDA6000
01EFFFF203FFFFD000
01FFFFF707FFFF7000
008FFFFC4EFFFF5000
002FFFFFFFFFFF2000
001FFFFFFFFFF70000
000AFFFFFFFF810000
00003AE7CDFD100000
0000029089A3000000
000000909670000000
000000605560000000
000000000010000000
ENDCHAR
STARTCHAR ccaron
ENCODING 269
SWIDTH 534 0
DWIDTH 19 0
BBX 19 46 0 -3
BITMAP
00000200000000020000
0001BF400000004EA000
004EFFE2000001EFFA00
003FFFFC00000AFFFF80
000CFFFF50004FFFFF30
0005FFFFC000DFFFFA00
0000DFFFF608FFFFF200
00006FFFFE4FFFFF9000
00001EFFFFFFFFFF2000
000008FFFFFFFFF90000
000002FFFFFFFFF20000
000000AFFFFFFF900000
0000003FFFFFFE100000
00000006543576000000
00000000000000000000
00000000000000000000
000000268CCB95000000
000019FFFFFFFFC20000
0001CFFFFFFFFFFD3000
005DFFFFFFFFFFFFF400
01EFFFFFFFFFFFFFFB00
07FFFFFFFFFFFFFFFF80
0CFFFFFFFFFFFFFFFF30
0EFFFFFFFFFFFFFFFF30
1FFFFFFFFFFFFFFFFF50
0FFFFFFFFFFFFFFFFF50
0DFFFFFFFFFFFFFFFF40
0AFFFFFFFFFFFFFFFF30
07FFFFFFFA2EFFFFFF10
03FFFFFFE005FFFFFF00
00EFFFFFA000EFFFFD00
009FFFFFE000EFFFFB00
009FFFFFE00024767700
008FFFFFA00000000000
005FFFFFA00000000000
002FFFFFB00000000000
000EFFFFD001DD830000
0009FFFFF107FFFF4000
0007FFFFF40BFFFE0000
0004FFFFF82FFFFD0000
0000CFFFFECFFFFB0000
00005FFFFFFFFFF50000
00001EFFFFFFFF800000
0000078BBDCFF7000000
000000057267B0000000
00000000000100000000
ENDCHAR
STARTCHAR Dcaron
ENCODING 270
SWIDTH 522 0
DWIDTH 19 0
BBX 18 48 1 -6
BITMAP
000020000000001100
0006F900000000BE30
01BFFF80000009FFE3
00CFFFF400004FFFFE
005FFFFB0000CFFFF9
000DFFFF4007FFFFF2
0007FFFFC02EFFFF80
0001EFFFF7BFFFFE10
00008FFFFFFFFFF800
00002FFFFFFFFFE100
00000AFFFFFFFF8000
000003FFFFFFFE1000
000000CFFFFFF70000
000000365346810000
000000000000000000
000000001244400000
24579BCEFFFFFB0000
5FFFFFFFFFFFFF9000
6FFFFFFFFFFFFFFA10
1FFFFFFFFFFFFFFFA0
0AFFFFFFFFFFFFFFB0
04FFFFFFFFFFFFFFF1
00FFFFFFFFFFFFFFF2
00CFFFFFFFFFFFFFF2
009FFFFFFFFFFFFFF1
008FFFFFFFFFFFFFE0
007FFFFFFFFFFFFFC0
006FFFFFF44DFFFFA0
004FFFFFA005FFFF70
003FFFFF7002FFFF40
001FFFFF6001FFFF10
000EFFFF6001FFFC00
000DFFFF5001EFF900
000BFFFF7002FFF600
0009FFFF6006FFF300
0007FFFF600AFFF100
0004FFFF800CFFF000
0002FFFFE48FFFE000
0000DFFFFCFFFFD000
0001FFFFFFFFFFB000
0001FFFFFFFFFF4000
0000EE409FFFF90000
0000E7008FFD710000
0000C4007DC0000000
000093006AA0000000
000061005820000000
000000004700000000
000000000100000000
ENDCHAR
STARTCHAR dcaron
ENCODING 271
SWIDTH 522 0
DWIDTH 19 0
BBX 18 48 1 -6
BITMAP
000020000000001100
0006F900000000BE30
01BFFF80000009FFE3
00CFFFF400004FFFFE
005FFFFB0000CFFFF9
000DFFFF4007FFFFF2
0007FFFFC02EFFFF80
0001EFFFF7BFFFFE10
00008FFFFFFFFFF800
00002FFFFFFFFFE100
00000AFFFFFFFF8000
000003FFFFFFFE1000
000000CFFFFFF70000
000000365346810000
000000000000000000
000000001244400000
24579BCEFFFFFB0000
5FFFFFFFFFFFFF9000
6FFFFFFFFFFFFFFA10
1FFFFFFFFFFFFFFFA0
0AFFFFFFFFFFFFFFB0
04FFFFFFFFFFFFFFF1
00FFFFFFFFFFFFFFF2
00CFFFFFFFFFFFFFF2
009FFFFFFFFFFFFFF1
008FFFFFFFFFFFFFE0
007FFFFFFFFFFFFFC0
006FFFFFF44DFFFFA0
004FFFFFA005FFFF70
003FFFFF7002FFFF40
001FFFFF6001FFFF10
000EFFFF6001FFFC00
000DFFFF5001EFF900
000BFFFF7002FFF600
0009FFFF6006FFF300
0007FFFF600AFFF100
0004FFFF800CFFF000
0002FFFFE48FFFE000
0000DFFFFCFFFFD000
0001FFFFFFFFFFB000
0001FFFFFFFFFF4000
0000EE409FFFF90000
0000E7008FFD710000
0000C4007DC0000000
000093006AA0000000
000061005820000000
000000004700000000
000000000100000000
ENDCHAR
STARTCHAR Eth.dup2
ENCODING 272
SWIDTH 530 0
DWIDTH 19 0
BBX 19 33 1 -6
BITMAP
00000000246788300000
00257ACFFFFFFFF20000
00DFFFFFFFFFFFFD1000
02EFFFFFFFFFFFFFD300
00CFFFFFFFFFFFFFFE10
004FFFFFFFFFFFFFFE20
000DFFFFFFFFFFFFFF70
0008FFFFFFFFFFFFFF90
0004FFFFFFFFFFFFFFA0
0002FFFFFFFFFFFFFFA0
0001FFFFFFFFFFFFFF90
0000FFFFFFFFFFFFFF80
0000DFFFFFA27FFFFF50
0000CFFFFF200DFFFF20
0000AFFFFD000BFFFD00
3544AFFFFD552BFFF900
9FFFFFFFFFFE0AFFF600
59ABDFFFFFB90AFFF200
00006FFFFD000BFFD000
00003FFFFC000FFF9000
00000FFFFC004FFF6000
00000CFFFE105FFF3000
000009FFFF77CFFF2000
000006FFFFDFFFFF2000
00000AFFFFFFFFFE0000
000009FFFFFFFFF70000
000008FA21FFFFC00000
000008E000DFEA300000
000006B000DA60000000
0000049000D650000000
0000024000C120000000
0000000000A000000000
00000000001000000000
ENDCHAR
STARTCHAR Emacron
ENCODING 274
SWIDTH 570 0
DWIDTH 21 0
BBX 19 37 1 -3
BITMAP
000ADDDB8ABA8BD30000
000DFFFFFFFFFFF30000
000EFFFFFFFFFFF20000
000EEFFFFFFFEFF10000
00011688746548900000
00000000000000000000
00000000000000000000
00134567776542000000
9EFFFFFFFFFFFFFDB820
6FFFFFFFFFFFFFFFFB00
09FFFFFFFFFFFFFFF200
01FFFFFFFFFFFFFFE000
00AFFFFFFFFFFFFFC000
00AFFFFFFFFFFFFF8000
009FFFFFFFFFFFFF3000
009FFFFFFFFFFFFD0000
008FFFFFFFFFFFF90000
007FFFFFFFFFFFF50000
006FFFFFEDFFFFF10000
005FFFFF80159DF00000
003FFFFF800000000000
002FFFFF800000000000
000FFFFFEEEEA2000000
000DFFFFFFFFF3000000
000DFFFFFFFFF0000000
000BFFFFFFFFF0000000
0009FFFFFEEEE0000000
0007FFFF500030000000
0005FFFF400000000000
0004FFFF899963000000
0002FFFFFFFFFC000000
0001FFFFFFFFF8000000
0000FCAFFFFFF4000000
0000E10BFFB8F4000000
0000D00BCE10B2000000
0000400A650090000000
00000000000010000000
ENDCHAR
STARTCHAR emacron
ENCODING 275
SWIDTH 632 0
DWIDTH 23 0
BBX 22 37 0 -3
BITMAP
00000CDDDA8AAA8CD10000
00000FFFFFFFFFFFF20000
00001FFFFFFFFFFFF00000
00001EEFFFFFFFEFE00000
0000011788655538800000
0000000000000000000000
0000000000000000000000
0000002456677654310000
0059CFFFFFFFFFFFFFDB84
1DFFFFFFFFFFFFFFFFFFF3
04FFFFFFFFFFFFFFFFFF80
008FFFFFFFFFFFFFFFFE10
001EFFFFFFFFFFFFFFF800
0008FFFFFFFFFFFFFFF200
0008FFFFFFFFFFFFFFE000
0005FFFFFFFFFFFFFFA000
0003FFFFFFFFFFFFFF9000
0001FFFFFFFFFFFFFF8000
0000DFFFFFFFFFFFFF6000
0000AFFFFFE68ABFFF3000
00008FFFFFF100014A0000
00005FFFFFF10000000000
00003FFFFFF11111000000
00000FFFFFFFFFFF400000
00000AFFFFFFFFFF400000
00000AFFFFFFFFFF400000
000009FFFFFFFFFF300000
000007FFFFFDCCDF100000
000005FFFFF00006000000
000003FFFFF00000000000
000001FFFFF5A876500000
000000DFFFFDFFFFC00000
000000AFFFFFFFFF900000
0000007FFFFFFFFF700000
0000003F30BFFCBE600000
0000001800242007500000
0000000000000002200000
ENDCHAR
STARTCHAR Ebreve
ENCODING 276
SWIDTH 570 0
DWIDTH 21 0
BBX 19 43 1 -3
BITMAP
00018888300000000000
0000EFFF600009BA9600
0000AFFF70000DFFFA00
00006FFFC0003FFFF500
00002FFFFB54CFFFF100
00001FFFFFFFFFFFB000
000009FFFFFFFFFF4000
00000255FFEFFFF90000
00000000A90AFEE40000
000000001107D3820000
00000000000030620000
00000000000000000000
00000000000000000000
00134567776542000000
9EFFFFFFFFFFFFFDB820
6FFFFFFFFFFFFFFFFB00
09FFFFFFFFFFFFFFF200
01FFFFFFFFFFFFFFE000
00AFFFFFFFFFFFFFC000
00AFFFFFFFFFFFFF8000
009FFFFFFFFFFFFF3000
009FFFFFFFFFFFFD0000
008FFFFFFFFFFFF90000
007FFFFFFFFFFFF50000
006FFFFFEDFFFFF10000
005FFFFF80159DF00000
003FFFFF800000000000
002FFFFF800000000000
000FFFFFEEEEA2000000
000DFFFFFFFFF3000000
000DFFFFFFFFF0000000
000BFFFFFFFFF0000000
0009FFFFFEEEE0000000
0007FFFF500030000000
0005FFFF400000000000
0004FFFF899963000000
0002FFFFFFFFFC000000
0001FFFFFFFFF8000000
0000FCAFFFFFF4000000
0000E10BFFB8F4000000
0000D00BCE10B2000000
0000400A650090000000
00000000000010000000
ENDCHAR
STARTCHAR ebreve
ENCODING 277
SWIDTH 632 0
DWIDTH 23 0
BBX 22 43 0 -3
BITMAP
0000003888810000000000
0000003FFFF20000BBA840
0000000DFFF30001FFFF60
00000009FFF80007FFFF10
00000006FFFF955EFFFC00
00000004FFFFFFFFFFF700
00000000DFFFFFFFFFE100
00000000447FFEFFFF6000
00000000000D60DFDF0000
00000000000200BB2A0000
0000000000000022070000
0000000000000000000000
0000000000000000000000
0000002456677654310000
0059CFFFFFFFFFFFFFDB84
1DFFFFFFFFFFFFFFFFFFF3
04FFFFFFFFFFFFFFFFFF80
008FFFFFFFFFFFFFFFFE10
001EFFFFFFFFFFFFFFF800
0008FFFFFFFFFFFFFFF200
0008FFFFFFFFFFFFFFE000
0005FFFFFFFFFFFFFFA000
0003FFFFFFFFFFFFFF9000
0001FFFFFFFFFFFFFF8000
0000DFFFFFFFFFFFFF6000
0000AFFFFFE68ABFFF3000
00008FFFFFF100014A0000
00005FFFFFF10000000000
00003FFFFFF11111000000
00000FFFFFFFFFFF400000
00000AFFFFFFFFFF400000
00000AFFFFFFFFFF400000
000009FFFFFFFFFF300000
000007FFFFFDCCDF100000
000005FFFFF00006000000
000003FFFFF00000000000
000001FFFFF5A876500000
000000DFFFFDFFFFC00000
000000AFFFFFFFFF900000
0000007FFFFFFFFF700000
0000003F30BFFCBE600000
0000001800242007500000
0000000000000002200000
ENDCHAR
STARTCHAR Edotaccent
ENCODING 278
SWIDTH 570 0
DWIDTH 21 0
BBX 19 44 1 -3
BITMAP
00000000234310000000
00027CCDFFFFFA000000
0000BFFFFFFFFB000000
00007FFFFFFFFB000000
00006FFFFFFFF9000000
00004FFFFFFFFB000000
00003FFFFFFFFD000000
00002FFFFFFFFD000000
00001FFFFFFFFC000000
00000FFFFFFFFB000000
00000EFFFFFFFA000000
00000BA9632353000000
00000000000000000000
00000000000000000000
00134567776542000000
9EFFFFFFFFFFFFFDB820
6FFFFFFFFFFFFFFFFB00
09FFFFFFFFFFFFFFF200
01FFFFFFFFFFFFFFE000
00AFFFFFFFFFFFFFC000
00AFFFFFFFFFFFFF8000
009FFFFFFFFFFFFF3000
009FFFFFFFFFFFFD0000
008FFFFFFFFFFFF90000
007FFFFFFFFFFFF50000
006FFFFFEDFFFFF10000
005FFFFF80159DF00000
003FFFFF800000000000
002FFFFF800000000000
000FFFFFEEEEA2000000
000DFFFFFFFFF3000000
000DFFFFFFFFF0000000
000BFFFFFFFFF0000000
0009FFFFFEEEE0000000
0007FFFF500030000000
0005FFFF400000000000
0004FFFF899963000000
0002FFFFFFFFFC000000
0001FFFFFFFFF8000000
0000FCAFFFFFF4000000
0000E10BFFB8F4000000
0000D00BCE10B2000000
0000400A650090000000
00000000000010000000
ENDCHAR
STARTCHAR edotaccent
ENCODING 279
SWIDTH 632 0
DWIDTH 23 0
BBX 22 44 0 -3
BITMAP
0000000000244310000000
0000038CCDFFFFF8000000
000000CFFFFFFFF9000000
0000009FFFFFFFF9000000
0000008FFFFFFFF7000000
0000006FFFFFFFF9000000
0000005FFFFFFFFC000000
0000004FFFFFFFFB000000
0000003FFFFFFFFA000000
0000002FFFFFFFF9000000
0000001FFFFFFFF8000000
0000001CA9532452000000
0000000000000000000000
0000000000000000000000
0000002456677654310000
0059CFFFFFFFFFFFFFDB84
1DFFFFFFFFFFFFFFFFFFF3
04FFFFFFFFFFFFFFFFFF80
008FFFFFFFFFFFFFFFFE10
001EFFFFFFFFFFFFFFF800
0008FFFFFFFFFFFFFFF200
0008FFFFFFFFFFFFFFE000
0005FFFFFFFFFFFFFFA000
0003FFFFFFFFFFFFFF9000
0001FFFFFFFFFFFFFF8000
0000DFFFFFFFFFFFFF6000
0000AFFFFFE68ABFFF3000
00008FFFFFF100014A0000
00005FFFFFF10000000000
00003FFFFFF11111000000
00000FFFFFFFFFFF400000
00000AFFFFFFFFFF400000
00000AFFFFFFFFFF400000
000009FFFFFFFFFF300000
000007FFFFFDCCDF100000
000005FFFFF00006000000
000003FFFFF00000000000
000001FFFFF5A876500000
000000DFFFFDFFFFC00000
000000AFFFFFFFFF900000
0000007FFFFFFFFF700000
0000003F30BFFCBE600000
0000001800242007500000
0000000000000002200000
ENDCHAR
STARTCHAR Eogonek
ENCODING 280
SWIDTH 513 0
DWIDTH 19 0
BBX 19 39 1 -12
BITMAP
00134567776542000000
9EFFFFFFFFFFFFFDB820
6FFFFFFFFFFFFFFFFB00
09FFFFFFFFFFFFFFF200
01FFFFFFFFFFFFFFE000
00AFFFFFFFFFFFFFC000
00AFFFFFFFFFFFFF8000
009FFFFFFFFFFFFF3000
009FFFFFFFFFFFFD0000
008FFFFFFFFFFFF90000
007FFFFFFFFFFFF50000
006FFFFFEDFFFFF10000
005FFFFF80159DF00000
003FFFFF800000000000
002FFFFF800000000000
000FFFFFEEEEA2000000
000DFFFFFFFFF3000000
000DFFFFFFFFF0000000
000BFFFFFFFFF0000000
0009FFFFFEEEE0000000
0007FFFF500030000000
0005FFFF400000000000
0004FFFF899963000000
0002FFFFFFFFFC000000
0001FFFFFFFFF8000000
0000FFFFFFFFF4000000
0000EFC9BFFFF4000000
0000E7007FFFF2000000
00005000AFFFB0000000
00000000DFFB10000000
00000001FFF400000000
00000002FFF700000000
00000001FFFE10000000
00000000FFFFB1000000
00000000BFFFFFDDD400
000000005FFFFFFFF300
000000000BFFFFFFF200
00000000018FFFFFF100
00000000000169AA7000
ENDCHAR
STARTCHAR eogonek
ENCODING 281
SWIDTH 632 0
DWIDTH 23 0
BBX 22 39 0 -12
BITMAP
0000002456677654310000
0059CFFFFFFFFFFFFFDB84
1DFFFFFFFFFFFFFFFFFFF3
04FFFFFFFFFFFFFFFFFF80
008FFFFFFFFFFFFFFFFE10
001EFFFFFFFFFFFFFFF800
0008FFFFFFFFFFFFFFF200
0008FFFFFFFFFFFFFFE000
0005FFFFFFFFFFFFFFA000
0003FFFFFFFFFFFFFF9000
0001FFFFFFFFFFFFFF8000
0000DFFFFFFFFFFFFF6000
0000AFFFFFE68ABFFF3000
00008FFFFFF100014A0000
00005FFFFFF10000000000
00003FFFFFF11111000000
00000FFFFFFFFFFF400000
00000AFFFFFFFFFF400000
00000AFFFFFFFFFF400000
000009FFFFFFFFFF300000
000007FFFFFDCCDF100000
000005FFFFF00006000000
000003FFFFF00000000000
000001FFFFF5A876500000
000000DFFFFDFFFFC00000
000000AFFFFFFFFF900000
0000007FFFFFFFFF200000
0000003F30BFFFF6000000
00000018002DFFE0000000
00000000000DFFC0000000
00000000001FFF80000000
00000000002FFF80000000
00000000001FFFD0000000
00000000000FFFF8000000
00000000000CFFFFDBBB30
000000000007FFFFFFFF30
000000000000CFFFFFFF20
0000000000001BFFFFFF10
0000000000000038BCC900
ENDCHAR
STARTCHAR Ecaron
ENCODING 282
SWIDTH 570 0
DWIDTH 21 0
BBX 19 45 1 -3
BITMAP
00002000000000110000
0006F900000001CD2000
01BFFF70000009FFE300
00CFFFF300004FFFFD00
006FFFFB0000DFFFF800
000EFFFF3007FFFFE100
0007FFFFC02FFFFF8000
0001EFFFF6CFFFFE1000
00009FFFFFFFFFF80000
00002FFFFFFFFFE10000
00000BFFFFFFFF700000
000004FFFFFFFE100000
000000CFFFFFF7000000
00000036534781000000
00000000000000000000
00134567776542000000
9EFFFFFFFFFFFFFDB820
6FFFFFFFFFFFFFFFFB00
09FFFFFFFFFFFFFFF200
01FFFFFFFFFFFFFFE000
00AFFFFFFFFFFFFFC000
00AFFFFFFFFFFFFF8000
009FFFFFFFFFFFFF3000
009FFFFFFFFFFFFD0000
008FFFFFFFFFFFF90000
007FFFFFFFFFFFF50000
006FFFFFEDFFFFF10000
005FFFFF80159DF00000
003FFFFF800000000000
002FFFFF800000000000
000FFFFFEEEEA2000000
000DFFFFFFFFF3000000
000DFFFFFFFFF0000000
000BFFFFFFFFF0000000
0009FFFFFEEEE0000000
0007FFFF500030000000
0005FFFF400000000000
0004FFFF899963000000
0002FFFFFFFFFC000000
0001FFFFFFFFF8000000
0000FCAFFFFFF4000000
0000E10BFFB8F4000000
0000D00BCE10B2000000
0000400A650090000000
00000000000010000000
ENDCHAR
STARTCHAR ecaron
ENCODING 283
SWIDTH 632 0
DWIDTH 23 0
BBX 22 46 0 -3
BITMAP
0000000200000000020000
0000019F500000002EB100
00003DFFF4000000CFFC10
00001FFFFD100008FFFFA0
000009FFFF70002FFFFF50
000003FFFFE100BFFFFC00
000000BFFFF806FFFFF400
0000004FFFFF4EFFFFB000
0000000DFFFFFFFFFF4000
00000006FFFFFFFFFB0000
00000000EFFFFFFFF30000
000000008FFFFFFFB00000
000000001FFFFFFF300000
0000000005643577000000
0000000000000000000000
0000000000000000000000
0000002456677654310000
0059CFFFFFFFFFFFFFDB84
1DFFFFFFFFFFFFFFFFFFF3
04FFFFFFFFFFFFFFFFFF80
008FFFFFFFFFFFFFFFFE10
001EFFFFFFFFFFFFFFF800
0008FFFFFFFFFFFFFFF200
0008FFFFFFFFFFFFFFE000
0005FFFFFFFFFFFFFFA000
0003FFFFFFFFFFFFFF9000
0001FFFFFFFFFFFFFF8000
0000DFFFFFFFFFFFFF6000
0000AFFFFFE68ABFFF3000
00008FFFFFF100014A0000
00005FFFFFF10000000000
00003FFFFFF11111000000
00000FFFFFFFFFFF400000
00000AFFFFFFFFFF400000
00000AFFFFFFFFFF400000
000009FFFFFFFFFF300000
000007FFFFFDCCDF100000
000005FFFFF00006000000
000003FFFFF00000000000
000001FFFFF5A876500000
000000DFFFFDFFFFC00000
000000AFFFFFFFFF900000
0000007FFFFFFFFF700000
0000003F30BFFCBE600000
0000001800242007500000
0000000000000002200000
ENDCHAR
STARTCHAR Gcircumflex
ENCODING 284
SWIDTH 499 0
DWIDTH 18 0
BBX 18 45 0 -4
BITMAP
000005754589000000
00001EFFFFFF500000
00007FFFFFFFC00000
0000DFFFFFFFF50000
0005FFFFFFFFFD0000
000CFFFFFFFFFF6000
003FFFFE3CFFFFD000
00AFFFF402EFFFF600
02FFFF60003FFFFD00
08FFF8000005FFFF70
1EFF900000008FFFB0
2BFB0000000009FC10
006100000000006100
000000000000000000
000000254630000000
00002AFFFFFE810000
0038FFFFFFFFFE6000
01EFFFFFFFFFFFF900
05FFFFFFFFFFFFFF20
06FFFFFFFFFFFFFFA0
0BFFFFFFFFFFFFFFF1
0BFFFFFFFFFFFFFFF3
0AFFFFFFFFFFFFFFF3
09FFFFFFFFFFFFFFF2
07FFFFFFFFFFFFFFE0
06FFFFFFFFFFFFFFB0
03FFFFFA06FFFFFF90
01FFFFF700CFFFFF60
00EFFFF7008FFFFF50
00BFFFF4004EFFFF70
009FFFF30001356640
007FFFF30864565100
006FFFF509FFFFFF40
005FFFF808FFFFFF50
004FFFFA07FFFFFF50
002FFFFD067AFFFF50
000EFFFF200AFFFF40
000AFFFF817EFFFF30
0006FFFFFFFFFFFF00
0001FFFFFFFFFFFB00
00009FFFEFFFFFF500
00001CEC7EFFFF8000
0000016557D6E30000
000000A41240800000
000000530000000000
ENDCHAR
STARTCHAR gcircumflex
ENCODING 285
SWIDTH 546 0
DWIDTH 20 0
BBX 19 46 1 -4
BITMAP
00000765468600000000
00004FFFFFFE10000000
0000BFFFFFFF80000000
0003FFFFFFFFF2000000
0009FFFFFFFFF9000000
001FFFFFFFFFFF200000
007FFFFB3EFFFF900000
00EFFFD105FFFFF20000
06FFFE20007FFFFA0000
0CFFF400000AFFFF3000
4FFF50000000BFFF7000
4DF7000000001CF90000
01500000000001500000
00000000000000000000
00000000000000000000
00000265333200000000
0007EFFEEFFFD7000000
005FFFFFFFFFFFD20000
1BFFFFFFFFFFFFFE2000
7FFFFFFFFFFFFFFFB000
8FFFFFFFFFFFFFFFF400
CFFFFFFFFFFFFFFFF900
EFFFFFFFFFFFFFFFFD00
DFFFFFFFFFFFFFFFFF00
BFFFFFFFFFFFFFFFFF10
9FFFFFFFFFFFFFFFFE00
7FFFFFFFFFFFFFFFFB00
4FFFFFFA3BFFFFFFF700
2FFFFFF700DFFFFFF400
0EFFFFF3007FFFFFF100
0AFFFFF3004FFFFFE000
0AFFFFE100178BDFE000
05FFFFF2032000012000
00EFFFE208FEB7410000
00BFFFF807FFFFFFC000
007FFFFB06FFFFFFB000
005FFFFD05FFFFFF9000
003FFFFE1476FFFF7000
002FFFFF6005FFFF7000
000DFFFFE69EFFFF6000
0009FFFFFFFFFFFF5000
0004FFFFFFFFFFFF4000
00009FFFFFFFFFFF1000
00001CFCEEFFBFD40000
0000008291A407100000
00000000100000000000
ENDCHAR
STARTCHAR Gbreve
ENCODING 286
SWIDTH 499 0
DWIDTH 18 0
BBX 17 44 1 -4
BITMAP
038888100000000000
03FFFF20000CBA8400
00EFFF30001FFFF600
00AFFF80007FFFF100
006FFFF955EFFFC000
005FFFFFFFFFFF7000
000DFFFFFFFFFE1000
000448FFEFFFF50000
000000D60DFDF00000
000000200BB2A00000
000000000210700000
000000000000000000
000000000000000000
000002546300000000
0002AFFFFFE8100000
038FFFFFFFFFE60000
1EFFFFFFFFFFFF9000
5FFFFFFFFFFFFFF200
6FFFFFFFFFFFFFFA00
BFFFFFFFFFFFFFFF10
BFFFFFFFFFFFFFFF30
AFFFFFFFFFFFFFFF30
9FFFFFFFFFFFFFFF20
7FFFFFFFFFFFFFFE00
6FFFFFFFFFFFFFFB00
3FFFFFA06FFFFFF900
1FFFFF700CFFFFF600
0EFFFF7008FFFFF500
0BFFFF4004EFFFF700
09FFFF300013566400
07FFFF308645651000
06FFFF509FFFFFF400
05FFFF808FFFFFF500
04FFFFA07FFFFFF500
02FFFFD067AFFFF500
00EFFFF200AFFFF400
00AFFFF817EFFFF300
006FFFFFFFFFFFF000
001FFFFFFFFFFFB000
0009FFFEFFFFFF5000
0001CEC7EFFFF80000
000016557D6E300000
00000A412408000000
000005300000000000
ENDCHAR
STARTCHAR gbreve
ENCODING 287
SWIDTH 546 0
DWIDTH 20 0
BBX 19 44 1 -4
BITMAP
00588880000000000000
006FFFE00002CB982000
002FFFF00004FFFF3000
000CFFF5000AFFFD0000
0009FFFE846FFFF90000
0007FFFFFFFFFFF40000
0002EFFFFFFFFFC00000
000054AFFEFFFF300000
0000002F31FFDC000000
0000000200E90A000000
00000000003107000000
00000000000000000000
00000000000000000000
00000265333200000000
0007EFFEEFFFD7000000
005FFFFFFFFFFFD20000
1BFFFFFFFFFFFFFE2000
7FFFFFFFFFFFFFFFB000
8FFFFFFFFFFFFFFFF400
CFFFFFFFFFFFFFFFF900
EFFFFFFFFFFFFFFFFD00
DFFFFFFFFFFFFFFFFF00
BFFFFFFFFFFFFFFFFF10
9FFFFFFFFFFFFFFFFE00
7FFFFFFFFFFFFFFFFB00
4FFFFFFA3BFFFFFFF700
2FFFFFF700DFFFFFF400
0EFFFFF3007FFFFFF100
0AFFFFF3004FFFFFE000
0AFFFFE100178BDFE000
05FFFFF2032000012000
00EFFFE208FEB7410000
00BFFFF807FFFFFFC000
007FFFFB06FFFFFFB000
005FFFFD05FFFFFF9000
003FFFFE1476FFFF7000
002FFFFF6005FFFF7000
000DFFFFE69EFFFF6000
0009FFFFFFFFFFFF5000
0004FFFFFFFFFFFF4000
00009FFFFFFFFFFF1000
00001CFCEEFFBFD40000
0000008291A407100000
00000000100000000000
ENDCHAR
STARTCHAR Gdotaccent
ENCODING 288
SWIDTH 499 0
DWIDTH 18 0
BBX 17 45 1 -4
BITMAP
000000024430000000
0049CCEFFFFE500000
002FFFFFFFFF600000
000DFFFFFFFF500000
000BFFFFFFFF400000
000AFFFFFFFF500000
0009FFFFFFFF800000
0007FFFFFFFF700000
0006FFFFFFFF600000
0005FFFFFFFF500000
0005FFFFFFFF400000
0004B9943254200000
000000000000000000
000000000000000000
000002546300000000
0002AFFFFFE8100000
038FFFFFFFFFE60000
1EFFFFFFFFFFFF9000
5FFFFFFFFFFFFFF200
6FFFFFFFFFFFFFFA00
BFFFFFFFFFFFFFFF10
BFFFFFFFFFFFFFFF30
AFFFFFFFFFFFFFFF30
9FFFFFFFFFFFFFFF20
7FFFFFFFFFFFFFFE00
6FFFFFFFFFFFFFFB00
3FFFFFA06FFFFFF900
1FFFFF700CFFFFF600
0EFFFF7008FFFFF500
0BFFFF4004EFFFF700
09FFFF300013566400
07FFFF308645651000
06FFFF509FFFFFF400
05FFFF808FFFFFF500
04FFFFA07FFFFFF500
02FFFFD067AFFFF500
00EFFFF200AFFFF400
00AFFFF817EFFFF300
006FFFFFFFFFFFF000
001FFFFFFFFFFFB000
0009FFFEFFFFFF5000
0001CEC7EFFFF80000
000016557D6E300000
00000A412408000000
000005300000000000
ENDCHAR
STARTCHAR gdotaccent
ENCODING 289
SWIDTH 546 0
DWIDTH 20 0
BBX 19 45 1 -4
BITMAP
00000001344200000000
0006ACCFFFFFE2000000
0005FFFFFFFFF2000000
0002FFFFFFFFF1000000
0000FFFFFFFFF0000000
0000EFFFFFFFE2000000
0000CFFFFFFFF4000000
0000BFFFFFFFF3000000
0000AFFFFFFFF2000000
00009FFFFFFFF1000000
00008FFFFFFFF1000000
00007B98422640000000
00000000000000000000
00000000000000000000
00000265333200000000
0007EFFEEFFFD7000000
005FFFFFFFFFFFD20000
1BFFFFFFFFFFFFFE2000
7FFFFFFFFFFFFFFFB000
8FFFFFFFFFFFFFFFF400
CFFFFFFFFFFFFFFFF900
EFFFFFFFFFFFFFFFFD00
DFFFFFFFFFFFFFFFFF00
BFFFFFFFFFFFFFFFFF10
9FFFFFFFFFFFFFFFFE00
7FFFFFFFFFFFFFFFFB00
4FFFFFFA3BFFFFFFF700
2FFFFFF700DFFFFFF400
0EFFFFF3007FFFFFF100
0AFFFFF3004FFFFFE000
0AFFFFE100178BDFE000
05FFFFF2032000012000
00EFFFE208FEB7410000
00BFFFF807FFFFFFC000
007FFFFB06FFFFFFB000
005FFFFD05FFFFFF9000
003FFFFE1476FFFF7000
002FFFFF6005FFFF7000
000DFFFFE69EFFFF6000
0009FFFFFFFFFFFF5000
0004FFFFFFFFFFFF4000
00009FFFFFFFFFFF1000
00001CFCEEFFBFD40000
0000008291A407100000
00000000100000000000
ENDCHAR
STARTCHAR Gcommaaccent
ENCODING 290
SWIDTH 499 0
DWIDTH 18 0
BBX 17 49 1 -22
BITMAP
000002546300000000
0002AFFFFFE8100000
038FFFFFFFFFE60000
1EFFFFFFFFFFFF9000
5FFFFFFFFFFFFFF200
6FFFFFFFFFFFFFFA00
BFFFFFFFFFFFFFFF10
BFFFFFFFFFFFFFFF30
AFFFFFFFFFFFFFFF30
9FFFFFFFFFFFFFFF20
7FFFFFFFFFFFFFFE00
6FFFFFFFFFFFFFFB00
3FFFFFA06FFFFFF900
1FFFFF700CFFFFF600
0EFFFF7008FFFFF500
0BFFFF4004EFFFF700
09FFFF300013566400
07FFFF308645651000
06FFFF509FFFFFF400
05FFFF808FFFFFF500
04FFFFA07FFFFFF500
02FFFFD067AFFFF500
00EFFFF200AFFFF400
00AFFFF817EFFFF300
006FFFFFFFFFFFF000
001FFFFFFFFFFFB000
0009FFFEFFFFFF5000
0001CEC7EFFFF80000
000016557D6E300000
00000A412408000000
000005300000000000
000000000000000000
000002452001000000
00000EFFFEDFE40000
00000EFFFFFFF50000
00000FFFFFFFF70000
00001FFFFFFFF80000
00002FFFFFFFF80000
00002FFFFFFFF70000
00003FFFFFFFF70000
00003FFFFFFFF70000
000008869CFFF70000
0000000005FFF50000
0000000007FFF20000
000000000AFFF00000
000000000DFFD00000
000000000FFFA00000
000000000FFF800000
000000000443100000
ENDCHAR
STARTCHAR Hcircumflex
ENCODING 292
SWIDTH 726 0
DWIDTH 26 0
BBX 26 50 0 -8
BITMAP
00000000066546870000000000
000000003FFFFFFF2000000000
000000009FFFFFFFA000000000
00000001FFFFFFFFF300000000
00000008FFFFFFFFFB00000000
0000000EFFFFFFFFFF30000000
0000006FFFFD3EFFFFB0000000
000000CFFFE204FFFFF4000000
000004FFFF40006FFFFB000000
00000BFFF5000008FFFF400000
00002FFF60000000AFFF900000
00003DF9000000000BFA000000
00000160000000000160000000
00000000000000000000000000
00000000000000000000000000
00000001246700474653120000
000246AEFFFA006FFFFFFFDA61
3AFFFFFFFFF3004FFFFFFFFF90
00AFFFFFFFC0001FFFFFFFFE10
001FFFFFFFE00007FFFFFFF700
000DFFFFFFD0000BFFFFFFF100
000CFFFFFFD0002FFFFFFFA000
0009FFFFFFC0004FFFFFFF5000
0006FFFFFFC0004FFFFFFE0000
0002FFFFFFB0004FFFFFFB0000
0000EFFFFFB0004FFFFFFA0000
0000CFFFFFA0004FFFFFF70000
00009FFFFFA0004FFFFFF20000
00006FFFFF90004FFFFFB00000
00004FFFFF92128FFFFF900000
00001FFFFFEFEFFFFFFF700000
00000EFFFFFFFFFFFFFF000000
00000CFFFFFFFFFFFFFF000000
00000AFFFFFFFFFFFFFF000000
000008FFFFF855EFFFFD000000
000007FFFFC000FFFFFC000000
000005FFFFD002FFFFF7000000
000004FFFFE003FFFFF4000000
000003FFFFE003FFFFF3000000
000002FFFFE004FFFFF1000000
000001FFFFE006FFFFD0000000
000001FFFFE009EFFFB0000000
000003FA573001FFFFA0000000
000003500000018C6890000000
00000000000000030620000000
00000000000001000000000000
00000000000006000000000000
00000000000008000000000000
00000000000009000000000000
00000000000002000000000000
ENDCHAR
STARTCHAR hcircumflex
ENCODING 293
SWIDTH 730 0
DWIDTH 26 0
BBX 26 45 0 -3
BITMAP
00000000057545890000000000
000000001EFFFFFF5000000000
000000007FFFFFFFC000000000
00000000DFFFFFFFF500000000
00000005FFFFFFFFFD00000000
0000000CFFFFFFFFFF60000000
0000003FFFFE3CFFFFD0000000
000000AFFFF402EFFFF6000000
000002FFFF60004FFFFD000000
000008FFF7000006FFFF600000
00001EFF900000008FFFB00000
00002CFB0000000009FC100000
00000061000000000061000000
00000000000000000000000000
00000000000000000000000000
0000000489BC103CB9B9676100
25679BEFFFF8001FFFFFFFFFD3
04DFFFFFFFE1000EFFFFFFFF90
004FFFFFFFF10009FFFFFFFE10
000CFFFFFFF10002FFFFFFF800
000AFFFFFFF00009FFFFFFF200
0009FFFFFFF0000DFFFFFFC000
0007FFFFFFF0000FFFFFFF6000
0005FFFFFFE0000EFFFFFF2000
0003FFFFFFE0000EFFFFFF0000
0000EFFFFFD0000DFFFFFE0000
0000BFFFFFD0000DFFFFFA0000
00008FFFFFD0000DFFFFF50000
00005FFFFFC0000FFFFFE10000
00002FFFFFD6669FFFFFB00000
00000EFFFFFFFFFFFFFF900000
00000CFFFFFFFFFFFFFF400000
00000AFFFFFFFFFFFFFF400000
000009FFFFFFFEFFFFFF400000
000008FFFFF411BFFFFF200000
000007FFFFE000DFFFFF000000
000006FFFFF101FFFFF9000000
000004FFFFF200FFFFF8000000
000003FFFFF200FFFFF6000000
000001FFFFF201FFFFF4000000
000000EFFFF206FFFFF2000000
000000DFFFD104CFFFF0000000
000003E9121000DFDEE0000000
000000200000001D23C0000000
00000000000000000220000000
ENDCHAR
STARTCHAR hbar
ENCODING 295
SWIDTH 704 0
DWIDTH 25 0
BBX 25 30 0 -3
BITMAP
000000148AB800AB9B96761000
25679CFFFFF300CFFFFFFFFD40
04DFFFFFFFD000CFFFFFFFFA00
004FFFFFFFA000BFFFFFFFF200
000CFFFFFF8000AFFFFFFFA000
000AFFFFFFCAAADFFFFFFF3000
0009FFFFFFFFFFFFFFFFFD0000
0007FFFFFFFFFFFFFFFFF70000
0005FFFFFFFFFFFFFFFFF30000
0003FFFFFFFFFFFFFFFFF10000
0000EFFFFFFFFFFFFFFFF10000
0000BFFFFFCBBBDFFFFFB00000
00008FFFFF40007FFFFF600000
00005FFFFF40008FFFFF100000
00002FFFFF8758DFFFFC000000
00000EFFFFFFFFFFFFF9000000
00000CFFFFFFFFFFFFF5000000
00000AFFFFFFFFFFFFF5000000
000009FFFFFFFEFFFFF7000000
000008FFFFF301BFFFFA000000
000007FFFFE000DFFFFD000000
000006FFFFF101FFFFF9000000
000004FFFFF200FFFFF8000000
000003FFFFF200FFFFF6000000
000001FFFFF201FFFFF4000000
000000EFFFF206FFFFF2000000
000000DFFFD104CFFFF0000000
000003E9121000DFDEE0000000
000000200000001D23C0000000
00000000000000000220000000
ENDCHAR
STARTCHAR Itilde
ENCODING 296
SWIDTH 401 0
DWIDTH 14 0
BBX 17 40 -2 -2
BITMAP
000000000003000000
002A2000014FD70000
06EFD10028FFFFA000
9FFFFC38FFFFFFF900
9FFFFFFFFFFFFFFF50
0CFFFFFFFFFFFFFF70
02EFFFFFFFEFFFFB00
004EFFFFA203CF9000
00016B830000140000
000000000000000000
000000000000000000
000599997998986200
003DFFFFFFFFFFF300
000AFFFFFFFFFF7000
0001AFFFFFFFFF4000
00000BFFFFFFFB0000
000006FFFFFFF60000
000000CFFFFFFD0000
000000BFFFFFFA0000
000000DFFFFFF90000
000000FFFFFFF70000
000001FFFFFFF50000
000000FFFFFFF30000
000000FFFFFFF00000
000000EFFFFFA00000
000000DFFFFFB00000
000000BFFFFFC00000
000000AFFFFFC00000
0000008FFFFFC00000
0000006FFFFF700000
0000004FFFFF400000
0000002FFFFF700000
0000000FFFFF700000
0000000DFFFF600000
0000000BFFFF500000
00000009FFFF400000
00000007FFFF300000
00000005A1EF500000
0000000390B5700000
0000000030A2000000
ENDCHAR
STARTCHAR itilde
ENCODING 297
SWIDTH 411 0
DWIDTH 15 0
BBX 17 40 -2 -2
BITMAP
000000000002000000
00194000004CE81000
03DFF40016FFFFD100
5FFFFE46EFFFFFFB00
6FFFFFFFFFFFFFFF90
09FFFFFFFFFFFFFFA0
01CFFFFFFFEFFFFD20
002DFFFFB402BFB100
00016AA40000050000
000000000000000000
000000000000000000
000025799689521000
003DFFFFFFFFFFF900
0005FFFFFFFFFFD000
00009FFFFFFFFFA000
000008FFFFFFFF2000
000001EFFFFFFB0000
0000009FFFFFFC0000
0000009FFFFFFA0000
000000AFFFFFF60000
000000BFFFFFF30000
000000BFFFFFF00000
000000CFFFFFD00000
000000CFFFFFB00000
000000BFFFFF900000
0000009FFFFF800000
0000007FFFFF900000
0000005FFFFFB00000
0000002FFFFFC00000
0000000EFFFF600000
0000000CFFFF600000
00000009FFFF200000
00000008FFFF200000
00000008FFFF200000
00000007FFFF100000
00000006FFFF000000
00000005FFFE000000
00000003E6ED000000
0000000030BD000000
000000000001100000
ENDCHAR
STARTCHAR Imacron
ENCODING 298
SWIDTH 401 0
DWIDTH 14 0
BBX 14 36 0 -2
BITMAP
1DDDDA9AA99CC0
2FFFFFFFFFFFF0
3FFFFFFFFFFFD0
3FEFFFFFFFEFC0
02178856553960
00000000000000
00000000000000
05999979989862
3DFFFFFFFFFFF3
0AFFFFFFFFFF70
01AFFFFFFFFF40
000BFFFFFFFB00
0006FFFFFFF600
0000CFFFFFFD00
0000BFFFFFFA00
0000DFFFFFF900
0000FFFFFFF700
0001FFFFFFF500
0000FFFFFFF300
0000FFFFFFF000
0000EFFFFFA000
0000DFFFFFB000
0000BFFFFFC000
0000AFFFFFC000
00008FFFFFC000
00006FFFFF7000
00004FFFFF4000
00002FFFFF7000
00000FFFFF7000
00000DFFFF6000
00000BFFFF5000
000009FFFF4000
000007FFFF3000
000005A1EF5000
00000390B57000
00000030A20000
ENDCHAR
STARTCHAR imacron
ENCODING 299
SWIDTH 411 0
DWIDTH 15 0
BBX 14 36 0 -2
BITMAP
0BDDDB8ABA8CD2
0EFFFFFFFFFFF2
0FFFFFFFFFFFF1
1EEFFFFFFFEFF0
01168875654880
00000000000000
00000000000000
00257996895210
3DFFFFFFFFFFF9
05FFFFFFFFFFD0
009FFFFFFFFFA0
0008FFFFFFFF20
0001EFFFFFFB00
00009FFFFFFC00
00009FFFFFFA00
0000AFFFFFF600
0000BFFFFFF300
0000BFFFFFF000
0000CFFFFFD000
0000CFFFFFB000
0000BFFFFF9000
00009FFFFF8000
00007FFFFF9000
00005FFFFFB000
00002FFFFFC000
00000EFFFF6000
00000CFFFF6000
000009FFFF2000
000008FFFF2000
000008FFFF2000
000007FFFF1000
000006FFFF0000
000005FFFE0000
000003E6ED0000
00000030BD0000
00000000011000
ENDCHAR
STARTCHAR Ibreve
ENCODING 300
SWIDTH 401 0
DWIDTH 14 0
BBX 15 42 0 -2
BITMAP
0888840000000000
0CFFF700007BA970
08FFF90000BFFFB0
04FFFD0001FFFF70
01FFFFC64BFFFF20
00EFFFFFFFFFFC10
007FFFFFFFFFF600
00165EFEFFFFB000
000008B08FFD6000
000001105E464000
0000000003043000
0000000000000000
0000000000000000
0599997998986200
3DFFFFFFFFFFF300
0AFFFFFFFFFF7000
01AFFFFFFFFF4000
000BFFFFFFFB0000
0006FFFFFFF60000
0000CFFFFFFD0000
0000BFFFFFFA0000
0000DFFFFFF90000
0000FFFFFFF70000
0001FFFFFFF50000
0000FFFFFFF30000
0000FFFFFFF00000
0000EFFFFFA00000
0000DFFFFFB00000
0000BFFFFFC00000
0000AFFFFFC00000
00008FFFFFC00000
00006FFFFF700000
00004FFFFF400000
00002FFFFF700000
00000FFFFF700000
00000DFFFF600000
00000BFFFF500000
000009FFFF400000
000007FFFF300000
000005A1EF500000
00000390B5700000
00000030A2000000
ENDCHAR
STARTCHAR ibreve
ENCODING 301
SWIDTH 411 0
DWIDTH 15 0
BBX 15 42 0 -2
BITMAP
1888830000000000
0EFFF600009BA960
0AFFF70000DFFFA0
06FFFC0003FFFF50
02FFFFB54CFFFF10
01FFFFFFFFFFFB00
009FFFFFFFFFF400
00255FFEFFFF9000
00000A90AFEE4000
000001107D382000
0000000003062000
0000000000000000
0000000000000000
0025799689521000
3DFFFFFFFFFFF900
05FFFFFFFFFFD000
009FFFFFFFFFA000
0008FFFFFFFF2000
0001EFFFFFFB0000
00009FFFFFFC0000
00009FFFFFFA0000
0000AFFFFFF60000
0000BFFFFFF30000
0000BFFFFFF00000
0000CFFFFFD00000
0000CFFFFFB00000
0000BFFFFF900000
00009FFFFF800000
00007FFFFF900000
00005FFFFFB00000
00002FFFFFC00000
00000EFFFF600000
00000CFFFF600000
000009FFFF200000
000008FFFF200000
000008FFFF200000
000007FFFF100000
000006FFFF000000
000005FFFE000000
000003E6ED000000
00000030BD000000
0000000001100000
ENDCHAR
STARTCHAR Iogonek
ENCODING 302
SWIDTH 401 0
DWIDTH 14 0
BBX 14 41 0 -14
BITMAP
05999979989862
3DFFFFFFFFFFF3
0AFFFFFFFFFF70
01AFFFFFFFFF40
000BFFFFFFFB00
0006FFFFFFF600
0000CFFFFFFD00
0000BFFFFFFA00
0000DFFFFFF900
0000FFFFFFF700
0001FFFFFFF500
0000FFFFFFF300
0000FFFFFFF000
0000EFFFFFA000
0000CFFFFFB000
0000BFFFFFC000
0000AFFFFFC000
00008FFFFFC000
00006FFFFF7000
00004FFFFF4000
00002FFFFF7000
00000FFFFF7000
00000DFFFF6000
00000BFFFF5000
000009FFFF3000
000007FFFF3000
000008FFFF5000
00000BFFFA7000
00000EFFB00000
00002FFF700000
00005FFF200000
00008FFE000000
0000AFFC000000
0000CFFC000000
0000DFFE100000
0000DFFFA00000
0000BFFFFDA994
00007FFFFFFFF6
00001DFFFFFFF5
000003DFFFFFF3
00000006ADEEB2
ENDCHAR
STARTCHAR iogonek
ENCODING 303
SWIDTH 412 0
DWIDTH 15 0
BBX 14 41 0 -14
BITMAP
00257996895210
3DFFFFFFFFFFF9
05FFFFFFFFFFD0
009FFFFFFFFFA0
0008FFFFFFFF20
0001EFFFFFFB00
00008FFFFFFC00
00008FFFFFFA00
0000AFFFFFF600
0000BFFFFFF300
0000BFFFFFF000
0000CFFFFFD000
0000CFFFFFB000
0000BFFFFF9000
00009FFFFF8000
00007FFFFF9000
00005FFFFFB000
00002FFFFFC000
00000EFFFF6000
00000CFFFF6000
000009FFFF2000
000008FFFF3000
000008FFFF2000
000007FFFF1000
000006FFFF0000
000007FFFE0000
000009FFFD0000
00000CFFFC1000
00000FFFC11000
00003FFF800000
00006FFF400000
00009FFE000000
0000CFFD000000
0000CFFF100000
0000BFFF900000
00009FFFFC6432
00005FFFFFFFF9
00000DFFFFFFF8
000003EFFFFFF6
00000019EFFFF5
00000000035521
ENDCHAR
STARTCHAR Idotaccent
ENCODING 304
SWIDTH 401 0
DWIDTH 14 0
BBX 14 43 0 -2
BITMAP
00000024430000
048CCEFFFFF700
01EFFFFFFFF700
00BFFFFFFFF700
009FFFFFFFF500
008FFFFFFFF700
007FFFFFFFFA00
005FFFFFFFF900
004FFFFFFFF800
004FFFFFFFF700
003FFFFFFFF600
002B9953254200
00000000000000
00000000000000
05999979989862
3DFFFFFFFFFFF3
0AFFFFFFFFFF70
01AFFFFFFFFF40
000BFFFFFFFB00
0006FFFFFFF600
0000CFFFFFFD00
0000BFFFFFFA00
0000DFFFFFF900
0000FFFFFFF700
0001FFFFFFF500
0000FFFFFFF300
0000FFFFFFF000
0000EFFFFFA000
0000DFFFFFB000
0000BFFFFFC000
0000AFFFFFC000
00008FFFFFC000
00006FFFFF7000
00004FFFFF4000
00002FFFFF7000
00000FFFFF7000
00000DFFFF6000
00000BFFFF5000
000009FFFF4000
000007FFFF3000
000005A1EF5000
00000390B57000
00000030A20000
ENDCHAR
STARTCHAR dotlessi
ENCODING 305
SWIDTH 411 0
DWIDTH 15 0
BBX 14 29 0 -2
BITMAP
00257996895210
3DFFFFFFFFFFF9
05FFFFFFFFFFD0
009FFFFFFFFFA0
0008FFFFFFFF20
0001EFFFFFFB00
00009FFFFFFC00
00009FFFFFFA00
0000AFFFFFF600
0000BFFFFFF300
0000BFFFFFF000
0000CFFFFFD000
0000CFFFFFB000
0000BFFFFF9000
00009FFFFF8000
00007FFFFF9000
00005FFFFFB000
00002FFFFFC000
00000EFFFF6000
00000CFFFF6000
000009FFFF2000
000008FFFF2000
000008FFFF2000
000007FFFF1000
000006FFFF0000
000005FFFE0000
000003E6ED0000
00000030BD0000
00000000011000
ENDCHAR
STARTCHAR IJ
ENCODING 306
SWIDTH 908 0
DWIDTH 33 0
BBX 32 29 0 -2
BITMAP
05999987989985000000014444442000
3DFFFFFFFFFFFB00000002FFFFFFFEB3
0AFFFFFFFFFFE200000000EFFFFFFFB0
01AFFFFFFFFFC0000000007FFFFFFF50
000BFFFFFFFF50000000002FFFFFFF20
0006FFFFFFFD10000000000DFFFFFF00
0000CFFFFFFF60000000000AFFFFFA00
0000BFFFFFFF40000000000AFFFFE100
0000DFFFFFFF20000000000DFFFFF100
0000FFFFFFFF00000000000FFFFFC000
0001FFFFFFFD00000000001FFFFFB000
0000FFFFFFFB00000000003FFFFFB000
0000FFFFFFF800000000003FFFFFB000
0000EFFFFFF300000000003FFFFF6000
0000CFFFFFF400000000003FFFFF3000
0000BFFFFFF600000000001FFFFF2000
00009FFFFFF600000000000EFFFF0000
00007FFFFFF500000001203FFFFC0000
00005FFFFFF00000468D403FFFF90000
00003FFFFFC00007FFFF502FFFF90000
00001FFFFFF00008FFFF503FFFF70000
00000EFFFFF10003FFFF505FFFF40000
00000CFFFFE00001FFFF90AFFFF20000
00000AFFFFD00002FFFFF9FFFFE00000
000007FFFFC00000CFFFFFFFFF700000
000005FFFFB000006FFFFFFFFF200000
000003D19FD0000004BEC3FFBD000000
000000C05A720000000190DA06000000
00000040590000000000304200000000
ENDCHAR
STARTCHAR ij
ENCODING 307
SWIDTH 901 0
DWIDTH 32 0
BBX 32 29 0 -2
BITMAP
002579A67A7320000000659986300000
3DFFFFFFFFFFFD1000008FFFFFFFB841
05FFFFFFFFFFF30000001EFFFFFFFFB3
009FFFFFFFFFF100000009FFFFFFFF30
0008FFFFFFFF9000000005FFFFFFFF40
0001EFFFFFFF3000000001FFFFFFFE00
00008FFFFFFF4000000000DFFFFFFA00
00008FFFFFFF20000000008FFFFFF300
0000AFFFFFFD00000000008FFFFFF200
0000BFFFFFFB00000000008FFFFFF300
0000BFFFFFF800000000008FFFFFF300
0000CFFFFFF600000000008FFFFFF200
0000CFFFFFF400000000008FFFFFF100
0000AFFFFFF300000000008FFFFFF000
00009FFFFFF200000000008FFFFFE000
00007FFFFFF300000000003EFFFFD000
00004FFFFFF500000000002FFFFF9000
00001FFFFFF500000001202FFFFF7000
00000DFFFFE10000467D302FFFFF7000
00000AFFFFF00007FFFF402FFFFF7000
000008FFFFA00005FFFF801EFFFF6000
000007FFFFB00000EFFFC02FFFFF4000
000006FFFFA000009FFFF25FFFFF1000
000005FFFFA00000AFFFFEFFFFFD0000
000005FFFF9000004FFFFFFFFFF70000
000003FFFF8000000BFFFFFFFFF10000
000001F8BF700000019DEFFFFFF00000
000000405E7000000000155DB6B00000
00000000002000000000000110300000
ENDCHAR
STARTCHAR Jcircumflex
ENCODING 308
SWIDTH 455 0
DWIDTH 16 0
BBX 20 43 -1 -2
BITMAP
00000003764579200000
0000000BFFFFFF900000
0000003FFFFFFFF20000
000000AFFFFFFFF90000
000002FFFFFFFFFF2000
000008FFFFFFFFFFA000
00001EFFFF59FFFFF200
00006FFFF700BFFFFA00
0000DFFF90001DFFFF30
0004FFFB000003EFFFA0
000BFFC00000004FFFE1
0009FD2000000005FE30
00004200000000005200
00000000000000000000
00000024444432000000
0000005FFFFFFFEA2000
0000002FFFFFFFF80000
0000000AFFFFFFF20000
00000004FFFFFFF00000
00000001FFFFFFC00000
00000000CFFFFF700000
00000000CFFFFC000000
00000001FFFFFC000000
00000003FFFFF9000000
00000004FFFFF8000000
00000005FFFFF8000000
00000006FFFFF8000000
00000006FFFFF3000000
00000006FFFFF0000000
00000003FFFFE0000000
00000002FFFFC0000000
00002105FFFF90000000
1478E106FFFF70000000
AFFFF205FFFF60000000
BFFFF206FFFF40000000
6FFFF208FFFF10000000
3FFFF60DFFFE00000000
5FFFFEAFFFFC00000000
1EFFFFFFFFF400000000
08FFFFFFFFE000000000
006CF95FFAB000000000
0000371F816000000000
00001205100000000000
ENDCHAR
STARTCHAR jcircumflex
ENCODING 309
SWIDTH 458 0
DWIDTH 17 0
BBX 20 44 -1 -2
BITMAP
00000003764579200000
0000000BFFFFFF900000
0000002FFFFFFFF20000
0000009FFFFFFFFA0000
000001EFFFFFFFFF3000
000007FFFFFFFFFFA000
00000DFFFF58FFFFF300
00005FFFF800BFFFFB00
0000CFFFA0001DFFFF30
0004FFFC100002EFFFB0
000AFFD10000004FFFE1
0009FE2000000005FE30
00004300000000004200
00000000000000000000
00000000000000000000
00000559986300000000
000006FFFFFFFC851000
000000DFFFFFFFFC4000
0000006FFFFFFFF50000
0000002FFFFFFFF70000
0000000EFFFFFFF20000
0000000AFFFFFFC00000
00000005FFFFFF500000
00000005FFFFFF400000
00000005FFFFFF600000
00000005FFFFFF600000
00000005FFFFFF500000
00000005FFFFFF400000
00000005FFFFFF200000
00000005FFFFFF100000
00000001DFFFFF100000
00000000EFFFFC000000
00000300FFFFFA000000
1468C600FFFFF9000000
AFFFF700FFFFF9000000
8FFFFB00CFFFF8000000
2FFFFF00EFFFF6000000
0BFFFF53FFFFF3000000
0CFFFFEEFFFFF1000000
05FFFFFFFFFFA0000000
00CFFFFFFFFF40000000
0019DEFFFFFF30000000
00000155CD5C10000000
00000000010310000000
ENDCHAR
STARTCHAR Kcommaaccent
ENCODING 310
SWIDTH 580 0
DWIDTH 21 0
BBX 21 48 0 -21
BITMAP
0036784216002661000000
5FFFFFFEDD009FFFDA8610
05EFFFFFFD00AFFFFFF500
005FFFFFFD00CFFFFE4000
001EFFFFFE01EFFFE40000
0007FFFFFF04FFFE300000
0001FFFFFF16FFF5000000
0000BFFFFF2BFFF2000000
00007FFFFF6FFFE0000000
00004FFFFFEFFFA0000000
00001FFFFFFFFF60000000
00000FFFFFFFFF40000000
00002FFFFFFFFF80000000
00001FFFFFFFFFB0000000
00000CFFFFFFFFA0000000
000009FFFFFFFF90000000
000006FFFFFFFFA0000000
000006FFFFFFFFC0000000
000002FFFFFFFFD0000000
000002FFFFFFFFC0000000
000000FFFFFFFFF1000000
000000EFFF9EFFF5000000
000000DFFB06FFF8000000
000000CFFA02FFFB000000
0000009FFD00CFFE000000
0000008FFF107FFF300000
0000008FEF108FFF300000
0000002B08306D4A300000
0000000203300113100000
0000000000000000000000
0000000000000000000000
0000000225300010000000
00000009FFFFDEF9000000
00000009FFFFFFFB000000
0000000AFFFFFFFC000000
0000000BFFFFFFFD000000
0000000BFFFFFFFE000000
0000000CFFFFFFFC000000
0000000DFFFFFFFC000000
0000000DFFFFFFFC000000
00000005967BEFFC000000
000000000000EFFA000000
000000000002FFF7000000
000000000005FFF5000000
000000000007FFF3000000
00000000000AFFF1000000
00000000000AFFD0000000
0000000000034320000000
ENDCHAR
STARTCHAR kcommaaccent
ENCODING 311
SWIDTH 636 0
DWIDTH 23 0
BBX 23 47 0 -20
BITMAP
000001233083033788751000
147BEFFFDCF207FFFFFFFA20
3CFFFFFFFFE009FFFFFF7000
007EFFFFFFC00DFFFFF60000
000DFFFFFFC03FFFFF700000
0009FFFFFFC07FFFF8000000
0002FFFFFFE09FFF90000000
0000BFFFFFF0AFFF80000000
00004FFFFFF1CFFF70000000
00000DFFFFF3DFFF50000000
000009FFFFF4EFFF10000000
000008FFFFF6FFF600000000
000008FFFFF9FFF100000000
000007FFFFFCFFB000000000
000005FFFFFFFF6000000000
000004FFFFFFFF5000000000
000003FFFFFFFF5000000000
000000DFFFFFFFB000000000
000000AFFFFFFFF200000000
0000007FFFFFFFF800000000
0000007FFFFEFFFC00000000
0000005FFFF7DFFF20000000
0000001FFFE08FFF80000000
0000001FFFC01EFFE0000000
0000001FFFC008FFF4000000
0000000DFFD002FFF8000000
0000000CFFE004FFFE100000
00000006B3B201BC8B200000
000000000000001300000000
000000000000000000000000
000000002253100100000000
000000007FFFFDEFB0000000
000000008FFFFFFFC0000000
000000008FFFFFFFD0000000
000000009FFFFFFFE0000000
00000000AFFFFFFFF0000000
00000000AFFFFFFFD0000000
00000000BFFFFFFFE0000000
00000000BFFFFFFFE0000000
000000004977AEFFE0000000
0000000000000DFFB0000000
0000000000001FFF90000000
0000000000004FFF70000000
0000000000006FFF40000000
0000000000008FFF20000000
0000000000009FFF00000000
000000000000243300000000
ENDCHAR
STARTCHAR kgreenlandic
ENCODING 312
SWIDTH 636 0
DWIDTH 23 0
BBX 23 29 0 -2
BITMAP
000001233083033788751000
147BEFFFDCF207FFFFFFFA20
3CFFFFFFFFE009FFFFFF7000
007EFFFFFFC00DFFFFF60000
000DFFFFFFC03FFFFF700000
0009FFFFFFC07FFFF8000000
0002FFFFFFE09FFF90000000
0000BFFFFFF0AFFF80000000
00004FFFFFF1CFFF70000000
00000DFFFFF3DFFF50000000
000009FFFFF4EFFF10000000
000008FFFFF6FFF600000000
000008FFFFF9FFF100000000
000007FFFFFCFFB000000000
000005FFFFFFFF6000000000
000004FFFFFFFF5000000000
000003FFFFFFFF5000000000
000000DFFFFFFFB000000000
000000AFFFFFFFF200000000
0000007FFFFFFFF800000000
0000007FFFFEFFFC00000000
0000005FFFF7DFFF20000000
0000001FFFE08FFF80000000
0000001FFFC01EFFE0000000
0000001FFFC008FFF4000000
0000000DFFD002FFF8000000
0000000CFFE004FFFE100000
00000006B3B201BC8B200000
000000000000001300000000
ENDCHAR
STARTCHAR Lacute
ENCODING 313
SWIDTH 416 0
DWIDTH 15 0
BBX 20 41 0 -3
BITMAP
00000000000000020000
000000000000004E8000
00000000000005FFF100
0000000000007FFFF200
000000000009FFFFFC20
0000000001BFFFFFFFC5
000000006EFFFFFFFD93
00000002FFFFFFC73000
00000001EFE961000000
00000000540000000000
00000000000000000000
37777776727750000000
3CFFFFFFFFFD20000000
02EFFFFFFFC100000000
008FFFFFFF7000000000
009FFFFFFC0000000000
006FFFFFF80000000000
003FFFFFFF1000000000
000FFFFFFE0000000000
000FFFFFFB0000000000
000FFFFFFA0000000000
000FFFFFFA0000000000
000DFFFFF70000000000
000CFFFFF80000000000
0005FFFFFA0000000000
0005FFFFFB0000000000
0005FFFFFB0000000000
0005FFFFFB0000000000
0003FFFFFB0000000000
0000CFFFFB0000000000
0000BFFFF90000000000
0000DFFFFB0000000000
0000AFFFFF1000001000
00008FFFFFEEB8BD1000
00006FFFFFFFFFFA0000
00004FFFFFFFFFFA0000
00001FFFFFFFFFF60000
00000BFFFEAFFFF40000
000004C59A5DDFF30000
0000003069241C800000
00000020120017100000
ENDCHAR
STARTCHAR lacute
ENCODING 314
SWIDTH 438 0
DWIDTH 16 0
BBX 21 42 0 -3
BITMAP
0000000000000000200000
0000000000000009E20000
00000000000001BFF90000
0000000000002CFFFA0000
000000000003EFFFFF6000
00000000005EFFFFFFFA00
000000001AFFFFFFFFB710
000000009FFFFFEA510000
000000007FFB8400000000
0000000016200000000000
0000000000000000000000
0000000000000000000000
00015777779BDD90000000
27BFFFFFFFFFE700000000
02DFFFFFFFFF2000000000
004FFFFFFFF90000000000
000BFFFFFFF20000000000
000DFFFFFFC00000000000
0009FFFFFFF20000000000
0005FFFFFFF00000000000
0006FFFFFFC00000000000
0003FFFFFFA00000000000
0002FFFFFFB00000000000
0002FFFFFFB00000000000
0000AFFFFFC00000000000
00005FFFFFB00000000000
00000FFFFFA00000000000
00000FFFFF900000000000
00000FFFFF800000000000
00000EFFFF700000000000
00000DFFFF700000000000
00000BFFFF700000000000
00000AFFFF800000000000
000008FFFFB30000000000
000006FFFFFFECCDA00000
000005FFFFFFFFFF400000
000003FFFFFFFFFF100000
000001FFFFFFFFFC000000
000000FFFF79FFF9000000
000000D92526AFF6000000
000000B500001CB2000000
0000004200000320000000
ENDCHAR
STARTCHAR Lcommaaccent
ENCODING 315
SWIDTH 416 0
DWIDTH 15 0
BBX 17 48 0 -21
BITMAP
377777767277500000
3CFFFFFFFFFD200000
02EFFFFFFFC1000000
008FFFFFFF70000000
009FFFFFFC00000000
006FFFFFF800000000
003FFFFFFF10000000
000FFFFFFE00000000
000FFFFFFB00000000
000FFFFFFA00000000
000FFFFFFA00000000
000DFFFFF700000000
000CFFFFF800000000
0005FFFFFA00000000
0005FFFFFB00000000
0005FFFFFB00000000
0005FFFFFB00000000
0003FFFFFB00000000
0000CFFFFB00000000
0000BFFFF900000000
0000DFFFFB00000000
0000AFFFFF10000010
00008FFFFFEEB8BD10
00006FFFFFFFFFFA00
00004FFFFFFFFFFA00
00001FFFFFFFFFF600
00000BFFFEAFFFF400
000004C59A5DDFF300
0000003069241C8000
000000201200171000
000000000000000000
000023530001000000
0000AFFFFDEF800000
0000AFFFFFFFA00000
0000BFFFFFFFB00000
0000CFFFFFFFC00000
0000CFFFFFFFD00000
0000DFFFFFFFB00000
0000EFFFFFFFB00000
0000EFFFFFFFB00000
00006968BFFFB00000
000000001FFF900000
000000003FFF700000
000000006FFF400000
000000008FFF200000
00000000BFFF000000
00000000BFFC000000
000000003432000000
ENDCHAR
STARTCHAR lcommaaccent
ENCODING 316
SWIDTH 438 0
DWIDTH 16 0
BBX 17 48 0 -21
BITMAP
00015777779BDD9000
27BFFFFFFFFFE70000
02DFFFFFFFFF200000
004FFFFFFFF9000000
000BFFFFFFF2000000
000DFFFFFFC0000000
0009FFFFFFF2000000
0005FFFFFFF0000000
0006FFFFFFC0000000
0003FFFFFFA0000000
0002FFFFFFB0000000
0002FFFFFFB0000000
0000AFFFFFC0000000
00005FFFFFB0000000
00000FFFFFA0000000
00000FFFFF90000000
00000FFFFF80000000
00000EFFFF70000000
00000DFFFF70000000
00000BFFFF70000000
00000AFFFF80000000
000008FFFFB3000000
000006FFFFFFECCDA0
000005FFFFFFFFFF40
000003FFFFFFFFFF10
000001FFFFFFFFFC00
000000FFFF79FFF900
000000D92526AFF600
000000B500001CB200
000000420000032000
000000000000000000
000002541001000000
00002FFFFEDFE20000
00002FFFFFFFF30000
00003FFFFFFFF40000
00004FFFFFFFF50000
00004FFFFFFFF60000
00005FFFFFFFF40000
00006FFFFFFFF40000
00006FFFFFFFF40000
00001976ADFFF40000
0000000007FFF20000
000000000AFFE00000
000000000DFFC00000
000000001FFFA00000
000000003FFF800000
000000003FFF500000
000000001443100000
ENDCHAR
STARTCHAR Lcaron
ENCODING 317
SWIDTH 714 0
DWIDTH 26 0
BBX 25 30 0 -3
BITMAP
37777776727760024531001000
3CFFFFFFFFFE200CFFFFEDFE20
02EFFFFFFFC2000DFFFFFFFF30
007FFFFFFF70000DFFFFFFFF40
009FFFFFFC00000EFFFFFFFF50
006FFFFFF800000EFFFFFFFF50
003FFFFFFF10000FFFFFFFFF60
000FFFFFFE00000FFFFFFFFF40
000FFFFFFB00001FFFFFFFFF50
000FFFFFFA00002FFFFFFFFF40
000FFFFFFA00001FFFFFFFFF40
000DFFFFF70000044247AFFF30
000CFFFFF800000000008FFF10
0005FFFFFA0000000000BFFE00
0004FFFFFB0000000000EFFC00
0004FFFFFB0000000001FFF900
0004FFFFFB0000000003FFF700
0003FFFFFB0000000003FFF500
0000CFFFFB0000000001332000
0000BFFFFA0000000000000000
0000CFFFFC0000000000000000
0000AFFFFF1000001000000000
00008FFFFFEEB8BD1000000000
00006FFFFFFFFFFA0000000000
00003FFFFFFFFFFA0000000000
00000FFFFFFFFFF60000000000
00000AFFFEAFFFF40000000000
000003C69A4DDFF30000000000
0000003069241C800000000000
00000020020017100000000000
ENDCHAR
STARTCHAR lcaron
ENCODING 318
SWIDTH 782 0
DWIDTH 28 0
BBX 27 30 0 -3
BITMAP
00015777779BDD90012542000100
27BFFFFFFFFFE70005FFFFEDEF80
02DFFFFFFFFF200006FFFFFFFFA0
004FFFFFFFF9000006FFFFFFFFB0
000BFFFFFFF2000007FFFFFFFFC0
000DFFFFFFC0000007FFFFFFFFC0
0009FFFFFFF2000008FFFFFFFFD0
0005FFFFFFF0000008FFFFFFFFB0
0006FFFFFFC0000009FFFFFFFFC0
0003FFFFFFA000000AFFFFFFFFB0
0002FFFFFFB0000009FFFFFFFFB0
0002FFFFFFB000000153267FFFA0
0000AFFFFFC000000000001FFF80
00005FFFFFB000000000004FFF60
00000FFFFFA000000000007FFF40
00000FFFFF9000000000009FFF10
00000FFFFF800000000000BFFE00
00000EFFFF700000000000BFFC00
00000DFFFF700000000000232100
00000BFFFF700000000000000000
00000AFFFF800000000000000000
000008FFFFB30000000000000000
000006FFFFFFECCDA00000000000
000005FFFFFFFFFF400000000000
000003FFFFFFFFFF100000000000
000001FFFFFFFFFC000000000000
000000FFFF79FFF9000000000000
000000D92526AFF6000000000000
000000B500001CB2000000000000
0000004200000320000000000000
ENDCHAR
STARTCHAR Ldotaccent
ENCODING 319
SWIDTH 567 0
DWIDTH 20 0
BBX 23 30 0 -3
BITMAP
377777767277500000000000
3CFFFFFFFFFD200000000000
02EFFFFFFFC1000000000000
008FFFFFFF70000000000000
009FFFFFFC00000000000000
006FFFFFF800000024542000
003FFFFFFF117CCDFFFFFE00
000FFFFFFE007FFFFFFFFF00
000FFFFFFB004FFFFFFFFE00
000FFFFFFA002FFFFFFFFD00
000FFFFFFA000FFFFFFFFD10
000DFFFFF7000EFFFFFFFF20
000CFFFFF8000DFFFFFFFF10
0005FFFFFA000CFFFFFFFF00
0005FFFFFB000BFFFFFFFE00
0005FFFFFB000BFFFFFFFE00
0005FFFFFB0008A873225300
0003FFFFFB00000000000000
0000CFFFFB00000000000000
0000BFFFF900000000000000
0000DFFFFB00000000000000
0000AFFFFF10000010000000
00008FFFFFEEB8BD10000000
00006FFFFFFFFFFA00000000
00004FFFFFFFFFFA00000000
00001FFFFFFFFFF600000000
00000BFFFEAFFFF400000000
000004C59A5DDFF300000000
0000003069241C8000000000
000000201200171000000000
ENDCHAR
STARTCHAR ldot
ENCODING 320
SWIDTH 660 0
DWIDTH 24 0
BBX 25 30 0 -3
BITMAP
00015777779BDD900000000000
27BFFFFFFFFFE7000000000000
02DFFFFFFFFF20000000000000
004FFFFFFFF900000000000000
000BFFFFFFF200000000000000
000DFFFFFFC000000000000000
0009FFFFFFF200000000000000
0005FFFFFFF000000002343100
0006FFFFFFC00037CCDFFFFF90
0003FFFFFFA0000CFFFFFFFFA0
0002FFFFFFB00009FFFFFFFFA0
0002FFFFFFB00007FFFFFFFF80
0000AFFFFFC00005FFFFFFFFA0
00005FFFFFB00004FFFFFFFFD0
00000FFFFFA00003FFFFFFFFC0
00000FFFFF900002FFFFFFFFB0
00000FFFFF800001FFFFFFFFA0
00000EFFFF700000FFFFFFFF90
00000DFFFF700000CA96324530
00000BFFFF7000000000000000
00000AFFFF8000000000000000
000008FFFFB300000000000000
000006FFFFFFECCDA000000000
000005FFFFFFFFFF4000000000
000003FFFFFFFFFF1000000000
000001FFFFFFFFFC0000000000
000000FFFF79FFF90000000000
000000D92526AFF60000000000
000000B500001CB20000000000
00000042000003200000000000
ENDCHAR
STARTCHAR Lslash
ENCODING 321
SWIDTH 428 0
DWIDTH 15 0
BBX 17 30 0 -3
BITMAP
157777776377500000
07EFFFFFFFFD200000
008FFFFFFFC1000000
000EFFFFFF70000000
001FFFFFFC00000000
000DFFFFF800000000
000AFFFFFF00000000
0007FFFFFE00017600
0007FFFFFB018FF800
0007FFFFFDBFFFF800
0007FFFFFFFFFFFC00
0006FFFFFFFFFFFF10
04AFFFFFFFFFFFFF70
8FFFFFFFFFFFFFFFC0
4FFFFFFFFFFFFE8610
0DFFFFFFFFFD610000
08FFFFFFFD40000000
03FFFFFFFB00000000
00CCAFFFFB00000000
00003FFFF900000000
00005FFFFB00000000
00002FFFFF10000110
00001FFFFFEEB8BD10
00000EFFFFFFFFFB00
00000CFFFFFFFFFA00
000008FFFFFFFFF600
000004FFFEAFFFF300
000000C77A5DDFF200
0000003049241C8000
000000100200170000
ENDCHAR
STARTCHAR lslash
ENCODING 322
SWIDTH 457 0
DWIDTH 16 0
BBX 19 30 0 -3
BITMAP
0000367776A9DDC20000
169EFFFFFFFFF9200000
029FFFFFFFFF70000000
001DFFFFFFFD10000000
0005FFFFFFF600000000
0008FFFFFFE300000000
0004FFFFFFF700015000
0000FFFFFFF5019EC000
0001FFFFFFF58EFFD000
0000DFFFFFFFFFFFF100
0000CFFFFFFFFFFFF500
0000CFFFFFFFFFFFFB00
004BFFFFFFFFFFFFFF20
2DFFFFFFFFFFFFFEA810
0EFFFFFFFFFFFF920000
09FFFFFFFFFE82000000
03FFFFFFFFE100000000
00CFFFFFFFC000000000
006FBDFFFFC000000000
000416FFFFC000000000
000005FFFFD000000000
000003FFFFE500000000
000001FFFFFFFDBDD200
000000FFFFFFFFFF9000
000000DFFFFFFFFF6000
000000BFFFFFFFFF2000
000000AFFFB5FFFE0000
0000008C3342AFFA0000
0000006A000008D60000
00000024000000400000
ENDCHAR
STARTCHAR Nacute
ENCODING 323
SWIDTH 610 0
DWIDTH 22 0
BBX 23 45 1 -6
BITMAP
000000000000000000300000
000000000000000005F50000
00000000000000007FFE0000
0000000000000009FFFE1000
00000000000001BFFFFFA100
0000000000002DFFFFFFFC30
000000000007FFFFFFFFD820
00000000004FFFFFFB720000
00000000002FFD8510000000
000000000006300000000000
000000000000000000000000
000000000000000000000000
000012339008752000000000
4DEFFFFFF109FFFFDB750000
CFFFFFFFF205FFFFFFF70000
39FFFFFFF502FFFFFF800000
01EFFFFFFA00FFFFFC000000
00DFFFFFFF10EFFFF7000000
00CFFFFFFF90FFFFF7000000
00BFFFFFFFD0FFFFF6000000
00AFFFFFFFF3FFFFF4000000
008FFFFFFFF9FFFFF2000000
007FFFFFFFFEFFFFF0000000
005FFFFFFFFFFFFFD0000000
004FFFFFFFFFFFFFB0000000
002FFFFFFFFFFFFF90000000
000FFFFFFFFFFFFF70000000
000DFFFFFFFFFFFF40000000
000AFFFFFFFFFFFF30000000
0007FFFFFFFFFFFF10000000
0005FFFFAFFFFFFF00000000
0000FFFF6FFFFFFE00000000
0000EFFF6CFFFFFE00000000
0000DFFF54FFFFFD00000000
0000CFFF52FFFFFC00000000
0000BFFF71CFFFFC00000000
0000AFFF707FFFF900000000
00009FFF803FFFF500000000
00007FFF901FFFF600000000
00006FFFA00BFCF500000000
00005DB5A009F8C100000000
000048009005878000000000
000038007004000000000000
00002A009007200000000000
000004006002000000000000
ENDCHAR
STARTCHAR nacute
ENCODING 324
SWIDTH 664 0
DWIDTH 24 0
BBX 25 43 0 -4
BITMAP
00000000000000000000200000
00000000000000000004E70000
0000000000000000006FFF1000
000000000000000008FFFF1000
0000000000000000AFFFFFB200
000000000000001CFFFFFFFC40
00000000000006EFFFFFFFD930
0000000000003FFFFFFB730000
0000000000001FFE9510000000
00000000000005400000000000
00000000000000000000000000
00000000000000000000000000
13456789A89103742222233200
1EFFFFFFFFF201FFFFFFFFE200
07FFFFFFFFF400DFFFFFFF7000
00DFFFFFFFF900AFFFFFFD0000
006FFFFFFFFD006FFFFFF70000
001FFFFFFFFF607FFFFFE10000
000EFFFFFFFF908FFFFFA00000
000DFFFFFFFFD0AFFFFF600000
000DFFFFFFFFF2CFFFFF300000
000CFFFFFFFFF6EFFFFF100000
000CFFFFFFFFFDFFFFFE000000
000AFFFFFFFFFFFFFFFC000000
0008FFFFFFFFFFFFFFFA000000
0007FFFFFFFFFFFFFFF8000000
0005FFFFFFFFFFFFFFF6000000
0003FFFFFFFFFFFFFFF4000000
0001FFFFFFFFFFFFFFF1000000
0000DFFFFEFFFFFFFFE0000000
00008FFFF9EFFFFFFFA0000000
00007FFFF8BFFFFFFF80000000
00006FFFF87FFFFFFF60000000
00005FFFF42FFFFFFF30000000
00003FFFF50EFFFFFD00000000
00002FFFF70AFFFFFB00000000
00000FFFF408FFFFF900000000
00000DFFF403FFFFE200000000
00000CFFF402FFFFD000000000
00000AFFF401FFFDB000000000
000008AA1400DEF67000000000
00000001000043694000000000
00000000000000300000000000
ENDCHAR
STARTCHAR Ncommaaccent
ENCODING 325
SWIDTH 610 0
DWIDTH 22 0
BBX 20 52 1 -25
BITMAP
00001233900875200000
4DEFFFFFF109FFFFDB75
CFFFFFFFF205FFFFFFF7
39FFFFFFF502FFFFFF80
01EFFFFFFA00FFFFFC00
00DFFFFFFF10EFFFF700
00CFFFFFFF90FFFFF700
00BFFFFFFFD0FFFFF600
00AFFFFFFFF3FFFFF400
008FFFFFFFF9FFFFF200
007FFFFFFFFEFFFFF000
005FFFFFFFFFFFFFD000
004FFFFFFFFFFFFFB000
002FFFFFFFFFFFFF9000
000FFFFFFFFFFFFF7000
000DFFFFFFFFFFFF4000
000AFFFFFFFFFFFF3000
0007FFFFFFFFFFFF1000
0005FFFFAFFFFFFF0000
0000FFFF6FFFFFFE0000
0000EFFF6CFFFFFE0000
0000DFFF54FFFFFD0000
0000CFFF52FFFFFC0000
0000BFFF71CFFFFC0000
0000AFFF707FFFF90000
00009FFF803FFFF50000
00007FFF901FFFF60000
00006FFFA00BFCF50000
00005DB5A009F8C10000
00004800900587800000
00003800700400000000
00002A00900720000000
00000400600200000000
00000000000000000000
00000000000000000000
00000002253100100000
00000008FFFFDEFA0000
00000008FFFFFFFC0000
00000009FFFFFFFD0000
0000000AFFFFFFFE0000
0000000AFFFFFFFE0000
0000000BFFFFFFFD0000
0000000CFFFFFFFD0000
0000000CFFFFFFFD0000
00000004977BEFFD0000
000000000000EFFB0000
000000000001FFF80000
000000000004FFF60000
000000000007FFF40000
000000000009FFF10000
000000000009FFE00000
00000000000343200000
ENDCHAR
ENDFONT
